<svg width="870" height="250" viewBox="0 0 870 250" fill="none" xmlns="http://www.w3.org/2000/svg">
<g clip-path="url(#clip0_22_2)">
<path d="M860 107C865.523 107 870 102.523 870 97C870 91.4772 865.523 87 860 87C854.477 87 850 91.4772 850 97C850 102.523 854.477 107 860 107Z" fill="#AAAAAA" style="fill:#AAAAAA;fill:color(display-p3 0.6667 0.6667 0.6667);fill-opacity:1;"/>
<path d="M860 68C865.523 68 870 63.5228 870 58C870 52.4772 865.523 48 860 48C854.477 48 850 52.4772 850 58C850 63.5228 854.477 68 860 68Z" fill="#FF7B00" style="fill:#FF7B00;fill:color(display-p3 1.0000 0.4833 0.0000);fill-opacity:1;"/>
<path d="M5 244H7.33409H14.3376H16.6717H19.0058H21.3399H23.674H30.6762H33.0116H37.6797H40.0138H47.0161H49.3502H54.0196V231.75H56.3537H63.356H65.6901H68.0242H72.6936H79.6959H82.0299H84.364H86.6981H89.0335H98.3698H100.704H103.038H105.372H112.376H114.71H117.044H119.378H121.712H128.715V219.499H131.05H133.384H135.718H138.052H145.055H147.389H149.724H152.058H154.392H163.729H166.063H168.397H170.732H177.734H180.069H182.403H184.737H187.071H194.074V207.249H196.408H198.743H201.077H203.411H210.414H212.748H215.082H217.417H219.751H226.753H229.088H231.422H233.756H236.091H243.093H245.427H247.762H250.096H252.43H259.433H261.767V195H264.101H266.435H268.77H275.773H278.107H280.441H282.775H285.109H292.113H294.447H296.781H299.115H308.452H310.787H313.121H315.455H317.789H324.791H327.126H329.461H331.795V182.75H334.129H341.131H343.465H345.801H348.135H350.469H357.471H359.805H362.139H364.475H366.809H373.811H376.145H378.479H380.813H383.149H392.485H394.819H397.153H399.487H406.491V170.5H408.825H411.159H413.493H415.827H422.831H425.165H427.499H429.833H432.167H439.171H441.505H443.839H448.507H455.509H457.845H460.179H462.513H464.847H471.849H474.183V158.25H476.518H478.853H488.189H490.523H492.857H495.192H497.527H504.529H506.863H509.197H511.531H513.866H520.869H523.203H525.537H527.871H530.206H537.209H539.543H541.877H544.211H546.545V146H553.548H555.883H558.217H560.551H562.885H569.888H572.222H574.556H576.891H579.225H586.228H588.562H590.896H593.23H595.565H602.567H604.902H607.236H609.57H611.904H621.241V133.751H623.576H625.91H628.244H635.247H637.581H639.915H642.25H644.584H651.586H653.921H656.255H658.589H660.924H667.926H670.26H672.594H674.929H677.263H684.266H686.6H688.934V121.5H691.268H693.603H700.606H702.94H705.274H707.608H709.942H716.946H719.28H721.614H723.948H726.282H733.286H735.62H737.954H740.288H742.622H749.624H751.96H754.294H756.628H758.962H765.964V109.25H768.298H770.634H772.968H775.302H782.304H784.638H786.972H789.308H791.642H798.644H800.978H803.312H805.646H807.982H814.984H817.318H819.652H824.32H831.324V97H833.658H835.992H838.326H840.66H847.664H849.998H852.332H854.666H857" stroke="#AAAAAA" style="stroke:#AAAAAA;stroke:color(display-p3 0.6667 0.6667 0.6667);stroke-opacity:1;" stroke-width="10" stroke-linecap="round" stroke-linejoin="round"/>
<path d="M5 243.964C5.72985 243.982 6.4597 244 7.19057 244C7.92042 244 8.65027 243.78 9.38011 243.741C10.11 243.7 10.8398 243.721 11.5707 243.681C12.3005 243.641 13.0304 242.965 13.7602 242.933C14.4901 242.9 15.2209 242.884 15.9508 242.884C16.6806 242.884 17.4105 242.896 18.1403 242.896C18.8855 242.896 19.6316 242.861 20.3767 242.818C21.1066 242.775 21.8364 242.638 22.5663 242.638C23.2961 242.638 24.027 242.774 24.7568 242.774C25.4867 242.774 26.2165 242.735 26.9464 242.712C27.6772 242.69 28.4071 242.687 29.1369 242.637C29.8668 242.587 30.5966 242.452 31.3265 242.398C32.0574 242.344 32.7872 242.313 33.5171 242.313C34.2469 242.313 34.9768 242.434 35.7076 242.434C36.4375 242.434 37.1673 242.346 37.8972 242.171C38.627 241.994 39.3579 237.068 40.0877 236.888C40.8176 236.707 41.5474 236.617 42.2773 236.617C43.0071 236.617 43.738 237.156 44.4679 237.156C45.1977 237.156 45.9276 236.764 46.6574 236.65C47.3883 236.537 48.1181 236.477 48.848 236.477C49.5778 236.477 50.3077 236.662 51.0375 236.662C51.7684 236.662 52.4982 236.537 53.2281 236.455C53.9579 236.374 54.6878 236.292 55.4186 236.171C56.1485 236.05 56.8783 236.024 57.6082 235.729C58.338 235.435 59.0689 234.324 59.7988 234.324C60.5286 234.324 61.2585 234.594 61.9883 234.594C62.7182 234.594 63.449 234.445 64.1789 234.445C64.9087 234.445 65.6386 235.296 66.3684 235.296C67.0993 235.296 67.8291 234.731 68.559 234.731C69.2888 234.731 70.0187 235.061 70.7485 235.061C71.4794 235.061 72.2093 230.191 72.9391 229.906C73.669 229.621 74.3988 229.675 75.1297 229.478C75.8595 229.281 76.5894 228.724 77.3192 228.724C78.0491 228.724 78.7799 228.765 79.5098 228.785C80.2396 228.805 80.9695 228.821 81.6993 228.845C82.4292 228.868 83.1601 228.871 83.8899 228.925C84.6198 228.978 85.3496 229.559 86.0795 229.559C86.8103 229.559 87.5402 229.533 88.27 229.48C88.9999 229.429 89.7297 228.21 90.4596 228.21C91.1904 228.21 91.9203 228.517 92.6501 228.577C93.38 228.637 94.1098 228.667 94.8407 228.667C95.5705 228.667 96.3004 227.26 97.0302 227.26C97.7601 227.26 98.491 227.314 99.2208 227.422C99.9507 227.529 100.681 228.87 101.41 229.203C102.14 229.536 102.871 229.702 103.601 229.702C104.331 229.702 105.061 229.488 105.79 229.061C106.521 228.633 107.251 224.893 107.981 224.732C108.711 224.571 109.441 224.49 110.171 224.49C110.901 224.49 111.631 225.782 112.361 225.782C113.091 225.782 113.821 225.668 114.552 225.441C115.282 225.214 116.011 224.487 116.741 224.399C117.471 224.313 118.202 224.356 118.932 224.268C119.662 224.182 120.392 223.769 121.121 223.72C121.851 223.671 122.582 223.646 123.312 223.646C124.042 223.646 124.772 223.663 125.501 223.696C126.232 223.73 126.962 223.896 127.692 223.896C128.422 223.896 129.152 223.35 129.883 222.903C130.612 222.455 131.342 221.606 132.072 221.209C132.802 220.813 133.532 220.782 134.263 220.524C134.993 220.264 135.722 220.02 136.452 219.656C137.182 219.293 137.913 219.218 138.643 218.342C139.373 217.466 140.103 213.152 140.832 213.097C141.562 213.043 142.293 213.036 143.023 213.015C143.753 212.995 144.483 212.973 145.213 212.973C145.943 212.973 146.673 213.752 147.403 213.752C148.133 213.752 148.863 213.517 149.594 213.048C150.324 212.579 151.053 210.394 151.783 209.284C152.513 208.175 153.243 206.782 153.974 206.392C154.704 206.003 155.433 206.198 156.163 205.807C156.893 205.418 157.624 201.377 158.354 201.377C159.084 201.377 159.814 202.941 160.543 202.941C161.273 202.941 162.004 201.736 162.734 201.399C163.464 201.061 164.194 201.23 164.924 200.893C165.654 200.555 166.384 199.161 167.114 199.161C167.844 199.161 168.574 199.182 169.305 199.221C170.035 199.261 170.764 203.497 171.494 203.497C172.224 203.497 172.954 196.47 173.685 196.278C174.415 196.087 175.144 195.991 175.874 195.991C176.604 195.991 177.335 199.245 178.065 199.245C178.795 199.245 179.525 197.34 180.254 196.525C180.984 195.712 181.715 194.756 182.445 194.359C183.175 193.962 183.905 193.763 184.635 193.763C185.365 193.763 186.095 194.629 186.825 194.629C187.54 194.629 188.254 194.584 188.97 194.584C189.7 194.584 190.43 197.512 191.159 197.512C191.889 197.512 192.62 196.495 193.35 196.051C194.08 195.607 194.81 194.851 195.54 194.851C196.27 194.851 197 195.027 197.73 195.027C198.46 195.027 199.19 194.302 199.92 194.302C200.651 194.302 201.38 199.003 202.11 199.211C202.84 199.418 203.57 199.521 204.301 199.521C205.031 199.521 205.76 196.934 206.49 195.968C207.22 195.002 207.95 194.259 208.681 193.729C209.411 193.198 210.141 193.157 210.87 192.784C211.6 192.411 212.331 191.492 213.061 191.492C213.791 191.492 214.521 192.738 215.251 193.172C215.981 193.607 216.711 194.099 217.441 194.099C218.171 194.099 218.901 193.731 219.631 193.731C220.362 193.731 221.091 198.605 221.821 198.605C222.551 198.605 223.281 195.225 224.012 194.561C224.742 193.897 225.472 193.565 226.201 193.565C226.931 193.565 227.661 195.045 228.392 195.045C229.122 195.045 229.852 194.421 230.581 194.421C231.311 194.421 232.042 196.389 232.772 196.389C233.502 196.389 234.232 195.347 234.962 194.551C235.692 193.755 236.422 193.154 237.152 191.614C237.882 190.075 238.612 185.316 239.342 185.316C240.073 185.316 240.802 186.055 241.532 186.055C242.262 186.055 242.992 182.366 243.723 182.366C244.453 182.366 245.183 184.476 245.912 184.476C246.642 184.476 247.372 183.281 248.103 183.199C248.833 183.116 249.563 183.075 250.293 183.075C251.022 183.075 251.753 184.756 252.483 184.812C253.213 184.869 253.943 184.897 254.673 184.897C255.403 184.897 256.133 184.814 256.863 184.647C257.593 184.479 258.323 182.075 259.053 181.954C259.784 181.833 260.513 181.773 261.243 181.773C261.973 181.773 262.703 183.16 263.434 183.16C264.164 183.16 264.894 182.963 265.623 182.963C266.353 182.963 267.084 183.62 267.814 184.179C268.544 184.736 269.274 186.311 270.004 186.311C270.733 186.311 271.464 180.248 272.194 180.248C272.924 180.248 273.654 181.588 274.384 181.804C275.115 182.019 275.844 181.974 276.574 182.128C277.304 182.281 278.034 182.327 278.764 182.726C279.495 183.125 280.224 186.852 280.954 186.852C281.684 186.852 282.414 186.298 283.145 186.298C283.875 186.298 284.605 186.808 285.334 186.808C286.064 186.808 286.795 184.36 287.525 184.36C288.255 184.36 288.985 184.584 289.715 185.034C290.444 185.483 291.175 190.278 291.905 190.278C292.635 190.278 293.365 188.901 294.095 188.901C294.826 188.901 295.555 190.56 296.285 190.56C297.015 190.56 297.745 189.592 298.475 189.484C299.206 189.375 299.936 189.429 300.665 189.321C301.395 189.212 302.125 188.321 302.856 186.323C303.586 184.323 304.316 176.387 305.045 176.387C305.775 176.387 306.506 177.647 307.236 177.647C307.966 177.647 308.696 174.384 309.426 174.068C310.155 173.753 310.886 173.595 311.616 173.595C312.346 173.595 313.076 176.078 313.806 176.078C314.537 176.078 315.266 173.486 315.996 173.229C316.726 172.971 317.456 172.843 318.186 172.843C318.917 172.843 319.647 174.606 320.376 175.148C321.106 175.691 321.836 175.464 322.567 176.095C323.297 176.726 324.027 179.217 324.757 181.343C325.486 183.468 326.217 188.847 326.947 188.847C327.677 188.847 328.407 188.46 329.137 187.685C329.866 186.91 330.597 181.118 331.327 181.118C332.057 181.118 332.787 183.543 333.517 183.543C334.248 183.543 334.977 181.422 335.707 181.422C336.437 181.422 337.167 184.844 337.897 184.844C338.628 184.844 339.358 177.186 340.087 177.175C340.817 177.163 341.547 177.168 342.278 177.157C343.008 177.145 343.738 176.046 344.468 175.114C345.197 174.182 345.928 171.762 346.658 171.568C347.388 171.374 348.118 171.277 348.848 171.277C349.577 171.277 350.308 177.05 351.038 177.144C351.768 177.237 352.498 177.191 353.228 177.285C353.959 177.378 354.688 177.792 355.418 177.792C356.148 177.792 356.878 177.619 357.608 177.619C358.339 177.619 359.069 178.081 359.798 179.006C360.528 179.93 361.258 183.892 361.989 183.892C362.719 183.892 363.449 183.53 364.179 182.807C364.908 182.084 365.639 179.785 366.369 179.398C367.099 179.01 367.829 179.204 368.559 178.816C369.288 178.429 370.019 177.459 370.749 176.535C371.479 175.612 372.209 174.572 372.939 173.275C373.67 171.978 374.399 169.842 375.129 168.751C375.859 167.661 376.589 167.129 377.319 166.731C378.05 166.334 378.78 166.377 379.509 166.135C380.239 165.893 380.969 165.614 381.7 165.28C382.43 164.946 383.16 164.476 383.89 164.13C384.619 163.784 385.35 163.205 386.08 163.205C386.81 163.205 387.54 165.407 388.27 166.553C389 167.699 389.73 170.082 390.46 170.082C391.19 170.082 391.92 168.682 392.65 168.205C393.381 167.728 394.111 167.221 394.84 167.221C395.57 167.221 396.3 167.565 397.03 168.12C397.761 168.675 398.491 170.551 399.22 170.551C399.95 170.551 400.68 167.991 401.411 166.731C402.141 165.473 402.871 164.872 403.601 162.998C404.33 161.124 405.061 156.233 405.791 155.486C406.521 154.74 407.251 154.688 407.981 154.366C408.711 154.045 409.441 153.556 410.171 153.556C410.901 153.556 411.631 155.835 412.361 155.835C413.092 155.835 413.822 154.724 414.551 154.724C415.281 154.724 416.011 156.317 416.741 156.317C417.487 156.317 418.232 153.541 418.977 152.297C419.707 151.079 420.437 148.919 421.167 148.919C421.898 148.919 422.628 152.202 423.357 152.888C424.087 153.575 424.817 153.918 425.548 153.918C426.278 153.918 427.008 153.632 427.738 153.059C428.467 152.486 429.197 144.775 429.928 143.965C430.658 143.155 431.388 143.561 432.118 142.751C432.847 141.942 433.578 127.93 434.308 126.186C435.038 124.442 435.768 124.017 436.498 123.571C437.228 123.124 437.958 123.347 438.688 122.901C439.418 122.455 440.148 120.401 440.878 119.177C441.609 117.953 442.339 117.648 443.068 115.556C443.798 113.464 444.528 106.624 445.259 106.624C445.989 106.624 446.719 106.976 447.449 107.679C448.178 108.382 448.908 114.456 449.639 114.456C450.369 114.456 451.099 111.363 451.829 110.31C452.559 109.257 453.289 108.137 454.019 108.137C454.749 108.137 455.479 108.225 456.209 108.4C456.939 108.576 457.67 110.252 458.399 110.252C459.129 110.252 459.859 109.966 460.589 109.395C461.32 108.824 462.05 104.568 462.779 104.568C463.509 104.568 464.239 108.179 464.97 108.179C465.7 108.179 466.43 103.033 467.16 102.757C467.889 102.48 468.619 102.618 469.35 102.341C470.08 102.065 470.81 100.268 471.54 98.225C472.27 96.183 473 90.087 473.73 90.087C474.46 90.087 475.19 102.806 475.92 103.072C476.65 103.339 477.381 103.205 478.11 103.471C478.84 103.738 479.57 107.282 480.3 107.282C481.031 107.282 481.761 100.358 482.491 100.358C483.22 100.358 483.95 107.43 484.681 108.065C485.411 108.7 486.141 108.917 486.871 109.018C487.6 109.119 488.33 109.17 489.061 109.17C489.791 109.17 490.521 105.182 491.251 103.979C491.981 102.776 492.711 103.252 493.441 101.953C494.171 100.655 494.901 96.1861 495.631 96.1861C496.361 96.1861 497.092 106.404 497.821 106.746C498.551 107.089 499.281 107.121 500.011 107.26C500.742 107.398 501.472 107.579 502.202 107.579C502.931 107.579 503.661 105.827 504.392 104.509C505.122 103.19 505.852 102.593 506.582 99.6705C507.311 96.7474 508.041 86.9713 508.772 86.9713C509.502 86.9713 510.232 90.6923 510.962 90.6923C511.692 90.6923 512.422 88.8731 513.152 88.1462C513.882 87.4194 514.612 86.3313 515.342 86.3313C516.072 86.3313 516.803 88.7522 517.532 89.6565C518.262 90.5608 518.992 91.7571 519.722 91.7571C520.453 91.7571 521.183 86.4622 521.913 86.4622C522.642 86.4622 523.372 92.8099 524.103 92.8099C524.833 92.8099 525.563 91.6432 526.293 91.6432C527.022 91.6432 527.752 99.0066 528.483 99.0966C529.213 99.1859 529.943 99.201 530.673 99.2306C531.403 99.2608 532.133 99.2457 532.863 99.2759C533.593 99.3061 534.323 100.447 535.053 100.447C535.783 100.447 536.514 99.5585 537.243 99.0834C537.973 98.6083 538.703 98.281 539.433 97.5951C540.164 96.9092 540.894 95.6373 541.624 94.9678C542.353 94.2976 543.083 93.577 543.814 93.577C544.544 93.577 545.274 94.3995 546.004 94.3995C546.734 94.3995 547.463 94.1604 548.194 94.1604C548.924 94.1604 549.654 103.207 550.384 106.316C551.114 109.426 551.845 112.819 552.574 112.819C553.304 112.819 554.034 110.715 554.764 110.678C555.494 110.642 556.225 110.66 556.954 110.623C557.684 110.588 558.414 103.273 559.144 103.273C559.875 103.273 560.605 106.838 561.335 109.532C562.064 112.226 562.794 119.437 563.525 119.437C564.255 119.437 564.985 115.79 565.715 115.79C566.445 115.79 567.174 118.686 567.905 118.686C568.635 118.686 569.365 115.137 570.095 113.402C570.825 111.666 571.556 109.905 572.285 108.272C573.015 106.64 573.745 103.607 574.475 103.607C575.205 103.607 575.936 108.326 576.666 108.326C577.395 108.326 578.125 105.909 578.855 104.95C579.586 103.991 580.316 102.57 581.046 102.57C581.775 102.57 582.505 102.735 583.236 103.065C583.966 103.395 584.696 110.698 585.426 110.754C586.14 110.808 586.856 110.805 587.571 110.835C588.3 110.867 589.03 110.941 589.76 110.941C590.491 110.941 591.221 108.661 591.951 108.661C592.68 108.661 593.41 115.994 594.14 118.113C594.871 120.231 595.601 121.374 596.331 121.374C597.061 121.374 597.79 118.265 598.521 115.742C599.251 113.22 599.981 106.238 600.711 106.238C601.441 106.238 602.172 107.488 602.901 107.488C603.631 107.488 604.361 103.365 605.091 102.881C605.821 102.395 606.552 102.485 607.281 102.153C608.011 101.822 608.741 101.733 609.471 100.891C610.202 100.051 610.932 87.0575 611.662 86.4742C612.391 85.8902 613.121 85.9487 613.851 85.5988C614.582 85.2483 615.312 84.6731 616.042 84.3723C616.772 84.0715 617.501 83.794 618.232 83.794C618.962 83.794 619.692 85.1388 620.422 85.1388C621.152 85.1388 621.883 80.426 622.612 80.426C623.342 80.426 624.072 84.9494 624.802 84.9494C625.532 84.9494 626.263 83.2075 626.993 80.6136C627.722 78.0196 628.452 71.076 629.182 69.3844C629.913 67.6935 630.643 66.8477 631.373 66.8477C632.102 66.8477 632.832 70.132 633.562 70.132C634.293 70.132 635.023 69.7098 635.753 68.8652C636.483 68.0207 637.212 65.272 637.943 63.4904C638.673 61.7095 639.403 58.5914 640.133 58.1785C640.863 57.7651 641.594 57.9715 642.323 57.5581C643.053 57.1452 643.783 48.7869 644.513 48.7869C645.243 48.7869 645.974 55.7614 646.704 55.7614C647.433 55.7614 648.163 52.7987 648.893 52.7987C649.624 52.7987 650.354 54.112 651.084 55.7413C651.814 57.3712 652.543 62.5754 653.273 62.5754C654.004 62.5754 654.734 59.6045 655.464 59.6045C656.194 59.6045 656.923 59.7361 657.654 59.9991C658.384 60.2621 659.114 66.9283 659.844 66.9283C660.574 66.9283 661.305 62.2809 662.034 59.67C662.764 57.0597 663.494 51.2645 664.224 51.2645C664.954 51.2645 665.685 52.8944 666.415 54.1529C667.144 55.4115 667.874 58.171 668.604 58.816C669.335 59.4617 670.065 59.7845 670.795 59.7845C671.525 59.7845 672.254 56.246 672.984 56.1434C673.715 56.0408 674.445 55.9899 675.175 55.9899C675.905 55.9899 676.635 60.4742 677.365 60.4742C678.095 60.4742 678.825 55.9106 679.555 54.3386C680.285 52.7666 681.016 51.043 681.745 51.043C682.475 51.043 683.205 51.547 683.935 51.547C684.665 51.547 685.396 49.1507 686.126 49.1507C686.855 49.1507 687.585 54.1158 688.315 54.1158C689.046 54.1158 689.776 46.8179 690.506 46.8179C691.236 46.8179 691.965 49.4357 692.695 49.4357C693.426 49.4357 694.156 49.3936 694.886 49.3086C695.616 49.2243 696.346 46.5548 697.076 43.7161C697.806 40.8773 698.536 34.2471 699.266 32.2774C699.996 30.3077 700.727 29.3228 701.457 29.3228C702.186 29.3228 702.916 31.7966 703.646 31.7966C704.376 31.7966 705.107 23.5144 705.837 23.5144C706.566 23.5144 707.296 25.4867 708.026 26.0706C708.757 26.6546 709.487 27.0184 710.217 27.0184C710.947 27.0184 711.676 24.527 712.406 24.527C713.137 24.527 713.867 26.6464 714.597 26.6464C715.327 26.6464 716.057 23.2136 716.787 23.2136C717.517 23.2136 718.247 24.9398 718.977 26.1046C719.707 27.2695 720.438 28.4997 721.168 30.2026C721.897 31.9055 722.627 36.3219 723.357 36.3219C724.087 36.3219 724.818 31.5021 725.548 31.5021C726.278 31.5021 727.007 31.5852 727.737 31.5852C728.468 31.5852 729.198 29.791 729.928 28.4406C730.658 27.0895 731.387 24.5761 732.117 23.4824C732.848 22.3886 733.578 21.8418 734.308 21.8418C735.038 21.8418 735.768 25.2758 736.498 25.2758C737.228 25.2758 737.958 21.4585 738.688 21.4585C739.418 21.4585 740.149 22.8222 740.879 23.8624C741.608 24.9027 742.338 27.6993 743.068 27.6993C743.798 27.6993 744.529 22.6561 745.259 22.6561C745.989 22.6561 746.718 27.6433 747.448 29.2832C748.179 30.9231 748.909 32.4957 749.639 32.4957C750.369 32.4957 751.099 31.0559 751.829 31.0559C752.559 31.0559 753.289 38.3067 754.019 38.3067C754.749 38.3067 755.479 38.0203 756.209 37.4477C756.939 36.8756 757.669 32.6499 758.399 32.6499C759.129 32.6499 759.86 34.7304 760.59 34.7304C761.319 34.7304 762.049 34.0123 762.779 33.7279C763.509 33.4435 764.24 33.4932 764.97 33.0237C765.7 32.5543 766.429 25.8806 767.159 25.3073C767.89 24.7347 768.62 24.4483 769.35 24.4483C770.08 24.4483 770.81 25.4294 771.54 25.4294C772.27 25.4294 773 17.9987 773.73 17.9987C774.46 17.9987 775.19 19.1629 775.921 19.548C776.65 19.9325 777.38 19.801 778.11 20.3082C778.84 20.8154 779.571 24.7768 780.301 26.8491C781.03 28.9207 781.76 32.7405 782.49 32.7405C783.22 32.7405 783.951 32.3221 784.681 31.4838C785.411 30.6456 786.14 25.0776 786.87 22.108C787.601 19.1383 788.331 16.2713 789.061 13.666C789.791 11.0607 790.521 8.08853 791.251 6.47754C791.981 4.86654 792.711 4 793.441 4C794.171 4 794.901 8.09734 795.632 8.09734C796.361 8.09734 797.091 7.59265 797.821 7.59265C798.551 7.59265 799.282 29.2467 800.012 29.2467C800.742 29.2467 801.471 20.378 802.201 20.378C802.931 20.378 803.662 27.2757 804.392 29.2958C805.122 31.3152 805.851 32.4951 806.581 32.4951C807.312 32.4951 808.042 28.0145 808.772 28.0145C809.502 28.0145 810.232 28.4016 810.962 28.4016C811.692 28.4016 812.422 26.2311 813.152 25.1563C813.882 24.0814 814.612 23.308 815.343 21.9532C816.088 20.57 816.833 16.905 817.578 16.905C818.308 16.905 819.038 24.5075 819.768 25.1852C820.498 25.8636 821.228 26.2028 821.958 26.2028C822.688 26.2028 823.418 23.9952 824.149 23.9952C824.878 23.9952 825.608 42.0396 826.338 42.4329C827.068 42.8256 827.799 43.022 828.529 43.022C829.259 43.022 829.988 42.3555 830.718 41.0233C831.449 39.6911 832.179 33.4554 832.909 33.4554C833.639 33.4554 834.369 38.3457 835.098 42.2844C835.829 46.2232 836.559 56.7884 837.289 57.088C838.019 57.3875 838.749 57.5379 839.48 57.5379C840.209 57.5379 840.939 54.6495 841.669 54.6495C842.399 54.6495 843.129 65.1159 843.86 67.8867C844.589 70.6581 845.319 72.0432 846.049 72.0432C846.779 72.0432 847.51 66.5029 848.24 64.4533C848.97 62.403 849.699 60.3024 850.429 59.7423C851.16 59.1829 851.89 58.9029 852.62 58.9029C853.35 58.9029 854.08 60.0029 854.809 60.0029C855.54 60.0029 856.27 59.001 857 57.9998" stroke="#FF7B00" style="stroke:#FF7B00;stroke:color(display-p3 1.0000 0.4833 0.0000);stroke-opacity:1;" stroke-width="10" stroke-linecap="round"/>
</g>
<defs>
<clipPath id="clip0_22_2">
<rect width="870" height="250" fill="white" style="fill:white;fill-opacity:1;"/>
</clipPath>
</defs>
</svg>
