<svg width="640" height="360" viewBox="0 0 640 360" fill="none" xmlns="http://www.w3.org/2000/svg">
<path fill-rule="evenodd" clip-rule="evenodd" d="M209.653 166.502C213.013 164.447 217.384 165.535 219.417 168.932C221.449 172.331 220.373 176.752 217.014 178.808C208.471 184.033 206.223 188.509 206.222 191.289C206.223 192.356 206.549 193.68 207.472 195.229C207.516 195.307 207.561 195.384 207.604 195.461C208.617 197.079 210.289 198.931 212.931 200.974C218.158 205.018 226.172 208.968 236.708 212.416C257.703 219.286 287.152 223.654 320 223.654C352.848 223.654 382.297 219.286 403.292 212.416C413.828 208.968 421.842 205.018 427.069 200.974C429.698 198.941 431.36 197.094 432.375 195.482C432.441 195.365 432.51 195.248 432.576 195.131C433.457 193.622 433.777 192.335 433.778 191.289C433.777 188.509 431.529 184.033 422.986 178.808C419.627 176.752 418.551 172.331 420.583 168.932C422.616 165.535 426.987 164.447 430.347 166.502C439.955 172.38 448 180.596 448 191.289C448 194.91 447.053 198.243 445.465 201.291L445.479 201.298C445.44 201.369 445.393 201.437 445.354 201.508C445.073 202.036 444.777 202.558 444.458 203.068C419.28 247.262 373.716 273.999 319.965 274C265.943 274 220.296 247.089 195.194 202.485C195.028 202.202 194.857 201.922 194.701 201.635C194.682 201.6 194.665 201.564 194.646 201.529C192.986 198.42 192 195.001 192 191.289C192 180.596 200.045 172.38 209.653 166.502ZM231.25 225.726C254.202 247.276 284.989 259.615 319.965 259.615C354.88 259.614 385.678 247.263 408.653 225.754C408.326 225.864 408.003 225.99 407.674 226.098C384.915 233.545 353.917 238.039 320 238.039C286.083 238.039 255.085 233.545 232.326 226.098C231.964 225.98 231.609 225.846 231.25 225.726Z" fill="#0000FF" style="fill:#0000FF;fill:color(display-p3 0.0000 0.0000 1.0000);fill-opacity:1;"/>
<path d="M282.299 87.0008C291.64 87.063 296.903 94.3196 300.403 97.8594C302.291 99.7416 303.435 102.718 302.361 105.15C301.194 107.791 298.486 108.535 296.264 108.535C294.513 108.535 288 108.578 288 108.578C288 108.578 296.079 112.403 299.028 118.334C299.028 118.334 307.084 136.729 310.306 141.533C313.528 146.337 310.167 151.647 305.333 151.647C299.094 151.647 293.748 143.724 291.611 140.943C291.611 155.327 291.504 181.459 291.556 188.255C291.583 191.907 288.194 194.913 284.75 194.885C281.306 194.857 278.861 192.104 278.278 189.884C277.583 186.709 276.482 182.43 275.472 178.871C274.611 175.837 272.778 173.814 269.528 173.364C266.278 172.915 263.639 175.163 262.722 177.185C261.132 181.064 257.131 191.652 254.806 197.863C253.722 200.757 250.944 201.965 248.194 202.049C245.444 202.133 241.889 199.352 241.806 195.615C241.722 191.877 241.745 190.631 241.778 166.046C237.582 166.113 234.639 163.22 234.667 158.853C234.699 153.711 234.667 148.135 234.667 144.539C234.667 119.366 248.5 103.593 259.556 97.7892C264.344 93.0189 270.223 86.9208 282.299 87.0008Z" fill="#0000FF" style="fill:#0000FF;fill:color(display-p3 0.0000 0.0000 1.0000);fill-opacity:1;"/>
<path d="M320 166.116C327.854 166.116 334.222 172.556 334.222 180.5C334.222 188.445 327.855 194.885 320 194.885C312.145 194.885 305.778 188.445 305.778 180.5C305.778 172.556 312.146 166.116 320 166.116Z" fill="#0000FF" style="fill:#0000FF;fill:color(display-p3 0.0000 0.0000 1.0000);fill-opacity:1;"/>
<path d="M355.556 137.347C363.41 137.347 369.778 143.778 369.778 151.71C369.778 157.026 366.917 161.666 362.667 164.149V187.587C362.665 191.558 359.482 194.78 355.556 194.78C351.629 194.779 348.446 191.558 348.444 187.587V164.149C344.194 161.666 341.333 157.026 341.333 151.71C341.334 143.778 347.701 137.347 355.556 137.347Z" fill="#0000FF" style="fill:#0000FF;fill:color(display-p3 0.0000 0.0000 1.0000);fill-opacity:1;"/>
<path d="M391.111 108.578C398.966 108.578 405.333 115.009 405.333 122.941C405.333 128.257 402.473 132.896 398.222 135.38V187.587C398.221 191.558 395.037 194.78 391.111 194.78C387.185 194.779 384.002 191.558 384 187.587V135.38C379.75 132.896 376.889 128.257 376.889 122.941C376.889 115.009 383.257 108.578 391.111 108.578Z" fill="#0000FF" style="fill:#0000FF;fill:color(display-p3 0.0000 0.0000 1.0000);fill-opacity:1;"/>
</svg>
