<svg width="640" height="360" viewBox="0 0 640 360" fill="none" xmlns="http://www.w3.org/2000/svg">
<path d="M70 186.994L87.29 183L101.79 217.5L117.536 226L129.42 211.007L135.362 214.792L147.246 198.99L171.014 218.996L182.898 190.307L194.782 206.507L206.666 202.456L218.55 193.52L230.434 194.217L242.318 202.878L254.202 218.589L260.144 212.741L272.028 222.575L277.906 214.839L289.79 212.741L307.616 219.264H319.29" stroke="#0000FF" style="stroke:#0000FF;stroke:color(display-p3 0.0000 0.0000 1.0000);stroke-opacity:1;" stroke-width="10" stroke-linecap="round" stroke-linejoin="round"/>
<path d="M70 214.556L93.7681 200.59L105.652 192.002L111.594 175.871L121.29 156.5L135.362 138L153.188 143.378L171.014 151.119L182.898 142.61L188.84 146.042L194.782 140.361L212.608 151.844L224.492 141.707L236.376 158.029L254.202 159.933L266.086 178.167L277.97 161.063L295.796 156.748L301.738 141.692H318.79" stroke="#0000FF" style="stroke:#0000FF;stroke:color(display-p3 0.0000 0.0000 1.0000);stroke-opacity:1;" stroke-width="10" stroke-linecap="round" stroke-linejoin="round"/>
<path d="M339.98 219.28L360.26 199H569.459V239.56H360.26L339.98 219.28Z" fill="#0000FF" style="fill:#0000FF;fill:color(display-p3 0.0000 0.0000 1.0000);fill-opacity:1;"/>
<path d="M340 141.5L360.238 121H569V162H360.238L340 141.5Z" fill="#0000FF" style="fill:#0000FF;fill:color(display-p3 0.0000 0.0000 1.0000);fill-opacity:1;"/>
<path d="M372.604 144.92H376.263L378.103 147.287L379.913 149.395L383.323 153.67H379.306L376.96 150.787L375.756 149.077L372.604 144.92ZM383.631 141.818C383.631 144.039 383.21 145.928 382.369 147.486C381.533 149.044 380.393 150.233 378.948 151.055C377.51 151.871 375.892 152.278 374.096 152.278C372.286 152.278 370.662 151.867 369.224 151.045C367.785 150.223 366.648 149.034 365.813 147.476C364.978 145.918 364.56 144.032 364.56 141.818C364.56 139.598 364.978 137.708 365.813 136.151C366.648 134.593 367.785 133.406 369.224 132.591C370.662 131.769 372.286 131.358 374.096 131.358C375.892 131.358 377.51 131.769 378.948 132.591C380.393 133.406 381.533 134.593 382.369 136.151C383.21 137.708 383.631 139.598 383.631 141.818ZM379.266 141.818C379.266 140.38 379.051 139.167 378.62 138.179C378.196 137.191 377.596 136.442 376.82 135.932C376.045 135.421 375.137 135.166 374.096 135.166C373.055 135.166 372.147 135.421 371.371 135.932C370.596 136.442 369.993 137.191 369.562 138.179C369.138 139.167 368.925 140.38 368.925 141.818C368.925 143.257 369.138 144.47 369.562 145.457C369.993 146.445 370.596 147.194 371.371 147.705C372.147 148.215 373.055 148.47 374.096 148.47C375.137 148.47 376.045 148.215 376.82 147.705C377.596 147.194 378.196 146.445 378.62 145.457C379.051 144.47 379.266 143.257 379.266 141.818ZM394.507 144.92H398.166L400.005 147.287L401.815 149.395L405.225 153.67H401.208L398.862 150.787L397.659 149.077L394.507 144.92ZM405.534 141.818C405.534 144.039 405.113 145.928 404.271 147.486C403.436 149.044 402.296 150.233 400.85 151.055C399.412 151.871 397.795 152.278 395.998 152.278C394.189 152.278 392.565 151.867 391.126 151.045C389.688 150.223 388.551 149.034 387.716 147.476C386.88 145.918 386.463 144.032 386.463 141.818C386.463 139.598 386.88 137.708 387.716 136.151C388.551 134.593 389.688 133.406 391.126 132.591C392.565 131.769 394.189 131.358 395.998 131.358C397.795 131.358 399.412 131.769 400.85 132.591C402.296 133.406 403.436 134.593 404.271 136.151C405.113 137.708 405.534 139.598 405.534 141.818ZM401.169 141.818C401.169 140.38 400.953 139.167 400.522 138.179C400.098 137.191 399.498 136.442 398.723 135.932C397.947 135.421 397.039 135.166 395.998 135.166C394.958 135.166 394.049 135.421 393.274 135.932C392.498 136.442 391.895 137.191 391.464 138.179C391.04 139.167 390.828 140.38 390.828 141.818C390.828 143.257 391.04 144.47 391.464 145.457C391.895 146.445 392.498 147.194 393.274 147.705C394.049 148.215 394.958 148.47 395.998 148.47C397.039 148.47 397.947 148.215 398.723 147.705C399.498 147.194 400.098 146.445 400.522 145.457C400.953 144.47 401.169 143.257 401.169 141.818ZM416.409 144.92H420.068L421.908 147.287L423.717 149.395L427.128 153.67H423.111L420.764 150.787L419.561 149.077L416.409 144.92ZM427.436 141.818C427.436 144.039 427.015 145.928 426.173 147.486C425.338 149.044 424.198 150.233 422.753 151.055C421.314 151.871 419.697 152.278 417.901 152.278C416.091 152.278 414.467 151.867 413.028 151.045C411.59 150.223 410.453 149.034 409.618 147.476C408.783 145.918 408.365 144.032 408.365 141.818C408.365 139.598 408.783 137.708 409.618 136.151C410.453 134.593 411.59 133.406 413.028 132.591C414.467 131.769 416.091 131.358 417.901 131.358C419.697 131.358 421.314 131.769 422.753 132.591C424.198 133.406 425.338 134.593 426.173 136.151C427.015 137.708 427.436 139.598 427.436 141.818ZM423.071 141.818C423.071 140.38 422.856 139.167 422.425 138.179C422 137.191 421.401 136.442 420.625 135.932C419.849 135.421 418.941 135.166 417.901 135.166C416.86 135.166 415.952 135.421 415.176 135.932C414.401 136.442 413.797 137.191 413.366 138.179C412.942 139.167 412.73 140.38 412.73 141.818C412.73 143.257 412.942 144.47 413.366 145.457C413.797 146.445 414.401 147.194 415.176 147.705C415.952 148.215 416.86 148.47 417.901 148.47C418.941 148.47 419.849 148.215 420.625 147.705C421.401 147.194 422 146.445 422.425 145.457C422.856 144.47 423.071 143.257 423.071 141.818ZM430.625 131.636H435.935L441.543 145.318H441.782L447.39 131.636H452.699V152H448.523V138.746H448.354L443.084 151.901H440.24L434.971 138.696H434.801V152H430.625V131.636ZM468.693 148.898V134.818H472.252V148.898H468.693ZM463.433 143.638V140.078H477.512V143.638H463.433ZM481.065 152V148.898L488.313 142.186C488.93 141.589 489.447 141.053 489.864 140.575C490.289 140.098 490.61 139.631 490.829 139.173C491.048 138.709 491.157 138.209 491.157 137.672C491.157 137.075 491.021 136.562 490.749 136.131C490.478 135.693 490.106 135.358 489.636 135.126C489.165 134.888 488.631 134.768 488.035 134.768C487.412 134.768 486.868 134.894 486.404 135.146C485.94 135.398 485.582 135.759 485.33 136.23C485.078 136.701 484.952 137.261 484.952 137.911H480.866C480.866 136.578 481.167 135.421 481.771 134.44C482.374 133.459 483.219 132.7 484.306 132.163C485.393 131.626 486.646 131.358 488.065 131.358C489.523 131.358 490.792 131.616 491.873 132.134C492.96 132.644 493.805 133.353 494.408 134.261C495.012 135.17 495.313 136.21 495.313 137.384C495.313 138.152 495.161 138.911 494.856 139.661C494.558 140.41 494.024 141.241 493.255 142.156C492.486 143.064 491.402 144.155 490.004 145.428L487.031 148.341V148.48H495.582V152H481.065ZM506.139 152.278C504.734 152.278 503.481 152.02 502.38 151.503C501.287 150.986 500.418 150.273 499.775 149.365C499.132 148.457 498.797 147.416 498.771 146.243H502.947C502.993 147.032 503.325 147.671 503.941 148.162C504.558 148.652 505.29 148.898 506.139 148.898C506.815 148.898 507.412 148.749 507.929 148.45C508.452 148.145 508.86 147.724 509.152 147.188C509.45 146.644 509.599 146.021 509.599 145.318C509.599 144.602 509.447 143.973 509.142 143.429C508.843 142.885 508.429 142.461 507.899 142.156C507.368 141.851 506.762 141.696 506.079 141.689C505.483 141.689 504.903 141.812 504.339 142.057C503.782 142.302 503.348 142.637 503.037 143.061L499.208 142.375L500.173 131.636H512.622V135.156H503.723L503.196 140.257H503.315C503.673 139.753 504.213 139.336 504.936 139.004C505.658 138.673 506.467 138.507 507.362 138.507C508.588 138.507 509.682 138.795 510.643 139.372C511.604 139.949 512.363 140.741 512.92 141.749C513.477 142.75 513.752 143.903 513.745 145.209C513.752 146.581 513.434 147.801 512.791 148.868C512.154 149.929 511.263 150.764 510.116 151.374C508.976 151.977 507.65 152.278 506.139 152.278ZM518.608 152.259C517.951 152.259 517.388 152.027 516.917 151.562C516.453 151.092 516.221 150.528 516.221 149.872C516.221 149.223 516.453 148.666 516.917 148.202C517.388 147.738 517.951 147.506 518.608 147.506C519.244 147.506 519.801 147.738 520.278 148.202C520.755 148.666 520.994 149.223 520.994 149.872C520.994 150.31 520.881 150.711 520.656 151.075C520.437 151.433 520.149 151.722 519.791 151.94C519.433 152.152 519.038 152.259 518.608 152.259ZM530.748 131.636V152H526.443V135.723H526.324L521.66 138.646V134.828L526.701 131.636H530.748ZM546.734 148.182V147.108C546.734 146.293 546.907 145.544 547.251 144.861C547.603 144.171 548.11 143.621 548.773 143.21C549.442 142.793 550.258 142.584 551.219 142.584C552.193 142.584 553.012 142.789 553.675 143.2C554.344 143.611 554.848 144.161 555.186 144.851C555.531 145.534 555.703 146.286 555.703 147.108V148.182C555.703 148.997 555.531 149.75 555.186 150.439C554.841 151.122 554.334 151.669 553.665 152.08C552.995 152.497 552.18 152.706 551.219 152.706C550.244 152.706 549.426 152.497 548.763 152.08C548.1 151.669 547.596 151.122 547.251 150.439C546.907 149.75 546.734 148.997 546.734 148.182ZM549.628 147.108V148.182C549.628 148.652 549.741 149.097 549.966 149.514C550.198 149.932 550.616 150.141 551.219 150.141C551.822 150.141 552.233 149.935 552.452 149.524C552.677 149.113 552.79 148.666 552.79 148.182V147.108C552.79 146.624 552.684 146.173 552.472 145.756C552.259 145.338 551.842 145.129 551.219 145.129C550.622 145.129 550.208 145.338 549.976 145.756C549.744 146.173 549.628 146.624 549.628 147.108ZM536.284 136.528V135.455C536.284 134.633 536.46 133.88 536.811 133.197C537.162 132.508 537.67 131.958 538.332 131.547C539.002 131.136 539.811 130.93 540.759 130.93C541.74 130.93 542.562 131.136 543.224 131.547C543.887 131.958 544.391 132.508 544.736 133.197C545.08 133.88 545.253 134.633 545.253 135.455V136.528C545.253 137.35 545.077 138.103 544.726 138.786C544.381 139.468 543.874 140.015 543.205 140.426C542.542 140.83 541.726 141.033 540.759 141.033C539.791 141.033 538.972 140.827 538.303 140.416C537.64 139.999 537.136 139.452 536.791 138.776C536.453 138.093 536.284 137.344 536.284 136.528ZM539.197 135.455V136.528C539.197 137.012 539.31 137.46 539.536 137.871C539.768 138.282 540.175 138.487 540.759 138.487C541.368 138.487 541.783 138.282 542.001 137.871C542.227 137.46 542.339 137.012 542.339 136.528V135.455C542.339 134.971 542.233 134.52 542.021 134.102C541.809 133.685 541.388 133.476 540.759 133.476C540.169 133.476 539.761 133.688 539.536 134.112C539.31 134.536 539.197 134.984 539.197 135.455ZM537.597 152L551.597 131.636H554.202L540.202 152H537.597Z" fill="white" style="fill:white;fill-opacity:1;"/>
<path d="M365.422 229V208.636H373.576C375.074 208.636 376.323 208.858 377.324 209.303C378.325 209.747 379.078 210.363 379.581 211.152C380.085 211.934 380.337 212.836 380.337 213.857C380.337 214.652 380.178 215.351 379.86 215.955C379.542 216.551 379.104 217.042 378.547 217.426C377.997 217.804 377.367 218.072 376.658 218.232V218.43C377.434 218.464 378.159 218.682 378.836 219.087C379.518 219.491 380.072 220.058 380.496 220.787C380.92 221.509 381.132 222.371 381.132 223.372C381.132 224.453 380.864 225.417 380.327 226.266C379.797 227.107 379.011 227.774 377.971 228.264C376.93 228.755 375.647 229 374.123 229H365.422ZM369.728 225.48H373.238C374.437 225.48 375.312 225.251 375.863 224.794C376.413 224.33 376.688 223.714 376.688 222.945C376.688 222.381 376.552 221.884 376.28 221.453C376.008 221.022 375.621 220.684 375.117 220.439C374.62 220.194 374.026 220.071 373.337 220.071H369.728V225.48ZM369.728 217.158H372.919C373.509 217.158 374.033 217.055 374.49 216.849C374.954 216.637 375.319 216.339 375.584 215.955C375.856 215.57 375.992 215.109 375.992 214.572C375.992 213.837 375.73 213.243 375.206 212.793C374.689 212.342 373.953 212.116 372.999 212.116H369.728V217.158ZM383.158 212.186V208.636H399.883V212.186H393.648V229H389.393V212.186H383.158ZM419.675 215.766H415.32C415.24 215.202 415.078 214.702 414.832 214.264C414.587 213.82 414.272 213.442 413.888 213.131C413.503 212.819 413.059 212.58 412.555 212.415C412.058 212.249 411.518 212.166 410.935 212.166C409.881 212.166 408.963 212.428 408.18 212.952C407.398 213.469 406.792 214.224 406.361 215.219C405.93 216.206 405.714 217.406 405.714 218.818C405.714 220.27 405.93 221.49 406.361 222.477C406.798 223.465 407.408 224.211 408.19 224.714C408.973 225.218 409.877 225.47 410.905 225.47C411.482 225.47 412.015 225.394 412.506 225.241C413.003 225.089 413.444 224.867 413.828 224.575C414.213 224.277 414.531 223.916 414.783 223.491C415.041 223.067 415.22 222.583 415.32 222.04L419.675 222.06C419.562 222.994 419.28 223.896 418.83 224.764C418.385 225.626 417.786 226.398 417.03 227.081C416.281 227.757 415.386 228.294 414.345 228.692C413.311 229.083 412.141 229.278 410.835 229.278C409.019 229.278 407.395 228.867 405.963 228.045C404.538 227.223 403.411 226.034 402.582 224.476C401.76 222.918 401.349 221.032 401.349 218.818C401.349 216.598 401.767 214.708 402.602 213.151C403.438 211.593 404.571 210.406 406.003 209.591C407.435 208.769 409.045 208.358 410.835 208.358C412.015 208.358 413.109 208.524 414.116 208.855C415.131 209.187 416.029 209.67 416.811 210.307C417.593 210.937 418.23 211.709 418.72 212.624C419.217 213.538 419.536 214.586 419.675 215.766ZM438.679 217.138V220.499H429.392V217.138H438.679ZM451.108 208.636V229H446.802V212.723H446.683L442.02 215.646V211.828L447.061 208.636H451.108ZM463.315 208.358C464.363 208.358 465.37 208.534 466.338 208.885C467.313 209.236 468.181 209.796 468.943 210.565C469.712 211.334 470.319 212.355 470.763 213.628C471.214 214.894 471.442 216.448 471.449 218.291C471.449 220.021 471.253 221.566 470.862 222.925C470.478 224.277 469.924 225.427 469.202 226.375C468.479 227.323 467.607 228.045 466.587 228.543C465.566 229.033 464.426 229.278 463.166 229.278C461.807 229.278 460.607 229.017 459.567 228.493C458.526 227.963 457.688 227.243 457.051 226.335C456.421 225.42 456.04 224.393 455.908 223.253H460.153C460.319 223.995 460.667 224.572 461.197 224.983C461.728 225.387 462.384 225.589 463.166 225.589C464.492 225.589 465.5 225.013 466.189 223.859C466.878 222.699 467.226 221.112 467.233 219.097H467.094C466.789 219.693 466.378 220.207 465.861 220.638C465.344 221.062 464.75 221.39 464.081 221.622C463.418 221.854 462.712 221.97 461.963 221.97C460.763 221.97 459.693 221.688 458.751 221.125C457.81 220.562 457.068 219.786 456.524 218.798C455.981 217.811 455.709 216.684 455.709 215.418C455.702 214.052 456.017 212.836 456.653 211.768C457.29 210.701 458.178 209.866 459.318 209.263C460.465 208.653 461.797 208.351 463.315 208.358ZM463.345 211.739C462.676 211.739 462.079 211.898 461.555 212.216C461.038 212.534 460.627 212.962 460.322 213.499C460.024 214.036 459.878 214.635 459.885 215.298C459.885 215.968 460.031 216.571 460.322 217.108C460.621 217.638 461.025 218.062 461.536 218.381C462.053 218.692 462.643 218.848 463.305 218.848C463.803 218.848 464.263 218.755 464.688 218.57C465.112 218.384 465.48 218.129 465.791 217.804C466.109 217.473 466.358 217.091 466.537 216.661C466.716 216.23 466.805 215.772 466.805 215.288C466.799 214.645 466.646 214.055 466.348 213.518C466.05 212.982 465.639 212.551 465.115 212.226C464.591 211.901 464.001 211.739 463.345 211.739ZM476.127 229.259C475.471 229.259 474.907 229.027 474.437 228.562C473.973 228.092 473.741 227.528 473.741 226.872C473.741 226.223 473.973 225.666 474.437 225.202C474.907 224.738 475.471 224.506 476.127 224.506C476.763 224.506 477.32 224.738 477.798 225.202C478.275 225.666 478.513 226.223 478.513 226.872C478.513 227.31 478.401 227.711 478.175 228.075C477.957 228.433 477.668 228.722 477.31 228.94C476.952 229.152 476.558 229.259 476.127 229.259ZM481.951 229V225.898L489.2 219.186C489.816 218.589 490.333 218.053 490.751 217.575C491.175 217.098 491.497 216.631 491.716 216.173C491.934 215.709 492.044 215.209 492.044 214.672C492.044 214.075 491.908 213.562 491.636 213.131C491.364 212.693 490.993 212.358 490.522 212.126C490.052 211.888 489.518 211.768 488.922 211.768C488.298 211.768 487.755 211.894 487.291 212.146C486.827 212.398 486.469 212.759 486.217 213.23C485.965 213.701 485.839 214.261 485.839 214.911H481.752C481.752 213.578 482.054 212.421 482.657 211.44C483.261 210.459 484.106 209.7 485.193 209.163C486.28 208.626 487.533 208.358 488.951 208.358C490.41 208.358 491.679 208.616 492.76 209.134C493.847 209.644 494.692 210.353 495.295 211.261C495.898 212.17 496.2 213.21 496.2 214.384C496.2 215.152 496.047 215.911 495.743 216.661C495.444 217.41 494.911 218.241 494.142 219.156C493.373 220.064 492.289 221.155 490.89 222.428L487.917 225.341V225.48H496.468V229H481.951ZM510.734 225.182V224.108C510.734 223.293 510.907 222.544 511.251 221.861C511.603 221.171 512.11 220.621 512.773 220.21C513.442 219.793 514.258 219.584 515.219 219.584C516.193 219.584 517.012 219.789 517.675 220.2C518.344 220.611 518.848 221.161 519.186 221.851C519.531 222.534 519.703 223.286 519.703 224.108V225.182C519.703 225.997 519.531 226.75 519.186 227.439C518.841 228.122 518.334 228.669 517.665 229.08C516.995 229.497 516.18 229.706 515.219 229.706C514.244 229.706 513.426 229.497 512.763 229.08C512.1 228.669 511.596 228.122 511.251 227.439C510.907 226.75 510.734 225.997 510.734 225.182ZM513.628 224.108V225.182C513.628 225.652 513.741 226.097 513.966 226.514C514.198 226.932 514.616 227.141 515.219 227.141C515.822 227.141 516.233 226.935 516.452 226.524C516.677 226.113 516.79 225.666 516.79 225.182V224.108C516.79 223.624 516.684 223.173 516.472 222.756C516.259 222.338 515.842 222.129 515.219 222.129C514.622 222.129 514.208 222.338 513.976 222.756C513.744 223.173 513.628 223.624 513.628 224.108ZM500.284 213.528V212.455C500.284 211.633 500.46 210.88 500.811 210.197C501.162 209.508 501.67 208.958 502.332 208.547C503.002 208.136 503.811 207.93 504.759 207.93C505.74 207.93 506.562 208.136 507.224 208.547C507.887 208.958 508.391 209.508 508.736 210.197C509.08 210.88 509.253 211.633 509.253 212.455V213.528C509.253 214.35 509.077 215.103 508.726 215.786C508.381 216.468 507.874 217.015 507.205 217.426C506.542 217.83 505.726 218.033 504.759 218.033C503.791 218.033 502.972 217.827 502.303 217.416C501.64 216.999 501.136 216.452 500.791 215.776C500.453 215.093 500.284 214.344 500.284 213.528ZM503.197 212.455V213.528C503.197 214.012 503.31 214.46 503.536 214.871C503.768 215.282 504.175 215.487 504.759 215.487C505.368 215.487 505.783 215.282 506.001 214.871C506.227 214.46 506.339 214.012 506.339 213.528V212.455C506.339 211.971 506.233 211.52 506.021 211.102C505.809 210.685 505.388 210.476 504.759 210.476C504.169 210.476 503.761 210.688 503.536 211.112C503.31 211.536 503.197 211.984 503.197 212.455ZM501.597 229L515.597 208.636H518.202L504.202 229H501.597Z" fill="white" style="fill:white;fill-opacity:1;"/>
<circle cx="319.29" cy="219" r="12" fill="#0000FF" style="fill:#0000FF;fill:color(display-p3 0.0000 0.0000 1.0000);fill-opacity:1;"/>
<circle cx="319.29" cy="141" r="12" fill="#0000FF" style="fill:#0000FF;fill:color(display-p3 0.0000 0.0000 1.0000);fill-opacity:1;"/>
<path d="M70 186.994L87.29 183L101.79 217.5L117.536 226L129.42 211.007L135.362 214.792L147.246 198.99L171.014 218.996L182.898 190.307L194.782 206.507L206.666 202.456L218.55 193.52L230.434 194.217L242.318 202.878L254.202 218.589L260.144 212.741L272.028 222.575L277.906 214.839L289.79 212.741L307.616 219.264H319.29" stroke="#0000FF" style="stroke:#0000FF;stroke:color(display-p3 0.0000 0.0000 1.0000);stroke-opacity:1;" stroke-width="10" stroke-linecap="round" stroke-linejoin="round"/>
<path d="M70 214.556L93.7681 200.59L105.652 192.002L111.594 175.871L121.29 156.5L135.362 138L153.188 143.378L171.014 151.119L182.898 142.61L188.84 146.042L194.782 140.361L212.608 151.844L224.492 141.707L236.376 158.029L254.202 159.933L266.086 178.167L277.97 161.063L295.796 156.748L301.738 141.692H318.79" stroke="#0000FF" style="stroke:#0000FF;stroke:color(display-p3 0.0000 0.0000 1.0000);stroke-opacity:1;" stroke-width="10" stroke-linecap="round" stroke-linejoin="round"/>
<path d="M339.98 219.28L360.26 199H569.459V239.56H360.26L339.98 219.28Z" fill="#0000FF" style="fill:#0000FF;fill:color(display-p3 0.0000 0.0000 1.0000);fill-opacity:1;"/>
<path d="M340 141.5L360.238 121H569V162H360.238L340 141.5Z" fill="#0000FF" style="fill:#0000FF;fill:color(display-p3 0.0000 0.0000 1.0000);fill-opacity:1;"/>
<path d="M548.734 147.182V146.108C548.734 145.293 548.907 144.544 549.252 143.861C549.603 143.171 550.11 142.621 550.773 142.21C551.442 141.793 552.258 141.584 553.219 141.584C554.193 141.584 555.012 141.789 555.675 142.2C556.344 142.611 556.848 143.161 557.186 143.851C557.531 144.534 557.703 145.286 557.703 146.108V147.182C557.703 147.997 557.531 148.75 557.186 149.439C556.841 150.122 556.334 150.669 555.665 151.08C554.995 151.497 554.18 151.706 553.219 151.706C552.244 151.706 551.426 151.497 550.763 151.08C550.1 150.669 549.596 150.122 549.252 149.439C548.907 148.75 548.734 147.997 548.734 147.182ZM551.628 146.108V147.182C551.628 147.652 551.741 148.097 551.966 148.514C552.198 148.932 552.616 149.141 553.219 149.141C553.822 149.141 554.233 148.935 554.452 148.524C554.677 148.113 554.79 147.666 554.79 147.182V146.108C554.79 145.624 554.684 145.173 554.472 144.756C554.26 144.338 553.842 144.129 553.219 144.129C552.622 144.129 552.208 144.338 551.976 144.756C551.744 145.173 551.628 145.624 551.628 146.108ZM538.284 135.528V134.455C538.284 133.633 538.46 132.88 538.811 132.197C539.162 131.508 539.67 130.958 540.332 130.547C541.002 130.136 541.811 129.93 542.759 129.93C543.74 129.93 544.562 130.136 545.225 130.547C545.887 130.958 546.391 131.508 546.736 132.197C547.081 132.88 547.253 133.633 547.253 134.455V135.528C547.253 136.35 547.077 137.103 546.726 137.786C546.381 138.468 545.874 139.015 545.205 139.426C544.542 139.831 543.726 140.033 542.759 140.033C541.791 140.033 540.972 139.827 540.303 139.416C539.64 138.999 539.136 138.452 538.791 137.776C538.453 137.093 538.284 136.344 538.284 135.528ZM541.198 134.455V135.528C541.198 136.012 541.31 136.46 541.536 136.871C541.768 137.282 542.175 137.487 542.759 137.487C543.368 137.487 543.783 137.282 544.002 136.871C544.227 136.46 544.34 136.012 544.34 135.528V134.455C544.34 133.971 544.234 133.52 544.021 133.102C543.809 132.685 543.388 132.476 542.759 132.476C542.169 132.476 541.761 132.688 541.536 133.112C541.31 133.536 541.198 133.984 541.198 134.455ZM539.597 151L553.597 130.636H556.202L542.202 151H539.597Z" fill="white" style="fill:white;fill-opacity:1;"/>
<path d="M532.748 130.636V151H528.443V134.723H528.324L523.66 137.646V133.828L528.701 130.636H532.748Z" fill="white" style="fill:white;fill-opacity:1;"/>
<path d="M520.608 151.258C519.951 151.258 519.388 151.026 518.917 150.562C518.453 150.092 518.221 149.528 518.221 148.872C518.221 148.222 518.453 147.666 518.917 147.202C519.388 146.738 519.951 146.506 520.608 146.506C521.244 146.506 521.801 146.738 522.278 147.202C522.755 147.666 522.994 148.222 522.994 148.872C522.994 149.31 522.881 149.711 522.656 150.075C522.437 150.433 522.149 150.722 521.791 150.94C521.433 151.152 521.038 151.258 520.608 151.258Z" fill="white" style="fill:white;fill-opacity:1;"/>
<path d="M508.139 151.279C506.734 151.279 505.481 151.02 504.38 150.503C503.287 149.986 502.418 149.273 501.775 148.365C501.132 147.457 500.798 146.416 500.771 145.243H504.947C504.994 146.032 505.325 146.672 505.941 147.162C506.558 147.653 507.29 147.898 508.139 147.898C508.815 147.898 509.412 147.749 509.929 147.45C510.452 147.145 510.86 146.725 511.152 146.188C511.45 145.644 511.599 145.021 511.599 144.318C511.599 143.602 511.447 142.973 511.142 142.429C510.843 141.886 510.429 141.461 509.899 141.156C509.369 140.851 508.762 140.696 508.079 140.689C507.483 140.689 506.903 140.812 506.339 141.057C505.782 141.302 505.348 141.637 505.037 142.061L501.208 141.375L502.173 130.636H514.622V134.156H505.723L505.196 139.257H505.315C505.673 138.753 506.213 138.336 506.936 138.004C507.658 137.673 508.467 137.507 509.362 137.507C510.588 137.507 511.682 137.796 512.643 138.372C513.604 138.949 514.363 139.741 514.92 140.749C515.477 141.75 515.752 142.903 515.745 144.209C515.752 145.581 515.434 146.801 514.791 147.868C514.155 148.929 513.263 149.764 512.116 150.374C510.976 150.977 509.65 151.279 508.139 151.279Z" fill="white" style="fill:white;fill-opacity:1;"/>
<path d="M483.065 151V147.898L490.313 141.186C490.93 140.589 491.447 140.053 491.864 139.575C492.289 139.098 492.61 138.631 492.829 138.173C493.048 137.709 493.157 137.209 493.157 136.672C493.157 136.075 493.021 135.562 492.749 135.131C492.477 134.693 492.106 134.358 491.636 134.126C491.165 133.888 490.631 133.768 490.035 133.768C489.412 133.768 488.868 133.894 488.404 134.146C487.94 134.398 487.582 134.759 487.33 135.23C487.078 135.701 486.952 136.261 486.952 136.91H482.866C482.866 135.578 483.167 134.421 483.771 133.44C484.374 132.459 485.219 131.7 486.306 131.163C487.393 130.626 488.646 130.358 490.065 130.358C491.523 130.358 492.792 130.616 493.873 131.133C494.96 131.644 495.805 132.353 496.408 133.261C497.012 134.169 497.313 135.21 497.313 136.383C497.313 137.152 497.161 137.911 496.856 138.66C496.557 139.41 496.024 140.241 495.255 141.156C494.486 142.064 493.402 143.155 492.004 144.428L489.03 147.341V147.48H497.582V151H483.065Z" fill="white" style="fill:white;fill-opacity:1;"/>
<path d="M470.693 147.898V133.818H474.252V147.898H470.693ZM465.433 142.638V139.078H479.512V142.638H465.433Z" fill="white" style="fill:white;fill-opacity:1;"/>
<path d="M432.625 130.636H437.935L443.543 144.318H443.782L449.39 130.636H454.699V151H450.523V137.746H450.354L445.084 150.901H442.241L436.971 137.696H436.802V151H432.625V130.636Z" fill="white" style="fill:white;fill-opacity:1;"/>
<path d="M418.409 143.92H422.068L423.908 146.287L425.717 148.395L429.128 152.67H425.111L422.764 149.787L421.561 148.077L418.409 143.92ZM429.436 140.818C429.436 143.039 429.015 144.928 428.173 146.486C427.338 148.044 426.198 149.233 424.753 150.055C423.314 150.871 421.697 151.278 419.901 151.278C418.091 151.278 416.467 150.867 415.028 150.045C413.59 149.223 412.453 148.034 411.618 146.476C410.783 144.918 410.365 143.032 410.365 140.818C410.365 138.597 410.783 136.708 411.618 135.151C412.453 133.593 413.59 132.406 415.028 131.591C416.467 130.769 418.091 130.358 419.901 130.358C421.697 130.358 423.314 130.769 424.753 131.591C426.198 132.406 427.338 133.593 428.173 135.151C429.015 136.708 429.436 138.597 429.436 140.818ZM425.071 140.818C425.071 139.38 424.856 138.167 424.425 137.179C424 136.191 423.401 135.442 422.625 134.932C421.849 134.421 420.941 134.166 419.901 134.166C418.86 134.166 417.952 134.421 417.176 134.932C416.401 135.442 415.797 136.191 415.366 137.179C414.942 138.167 414.73 139.38 414.73 140.818C414.73 142.257 414.942 143.47 415.366 144.457C415.797 145.445 416.401 146.194 417.176 146.705C417.952 147.215 418.86 147.47 419.901 147.47C420.941 147.47 421.849 147.215 422.625 146.705C423.401 146.194 424 145.445 424.425 144.457C424.856 143.47 425.071 142.257 425.071 140.818Z" fill="white" style="fill:white;fill-opacity:1;"/>
<path d="M396.507 143.92H400.166L402.005 146.287L403.815 148.395L407.225 152.67H403.208L400.862 149.787L399.659 148.077L396.507 143.92ZM407.534 140.818C407.534 143.039 407.113 144.928 406.271 146.486C405.436 148.044 404.296 149.233 402.85 150.055C401.412 150.871 399.795 151.278 397.998 151.278C396.189 151.278 394.564 150.867 393.126 150.045C391.688 149.223 390.551 148.034 389.715 146.476C388.88 144.918 388.463 143.032 388.463 140.818C388.463 138.597 388.88 136.708 389.715 135.151C390.551 133.593 391.688 132.406 393.126 131.591C394.564 130.769 396.189 130.358 397.998 130.358C399.795 130.358 401.412 130.769 402.85 131.591C404.296 132.406 405.436 133.593 406.271 135.151C407.113 136.708 407.534 138.597 407.534 140.818ZM403.169 140.818C403.169 139.38 402.953 138.167 402.522 137.179C402.098 136.191 401.498 135.442 400.723 134.932C399.947 134.421 399.039 134.166 397.998 134.166C396.957 134.166 396.049 134.421 395.274 134.932C394.498 135.442 393.895 136.191 393.464 137.179C393.04 138.167 392.828 139.38 392.828 140.818C392.828 142.257 393.04 143.47 393.464 144.457C393.895 145.445 394.498 146.194 395.274 146.705C396.049 147.215 396.957 147.47 397.998 147.47C399.039 147.47 399.947 147.215 400.723 146.705C401.498 146.194 402.098 145.445 402.522 144.457C402.953 143.47 403.169 142.257 403.169 140.818Z" fill="white" style="fill:white;fill-opacity:1;"/>
<path d="M374.604 143.92H378.263L380.103 146.287L381.913 148.395L385.323 152.67H381.306L378.959 149.787L377.756 148.077L374.604 143.92ZM385.631 140.818C385.631 143.039 385.21 144.928 384.369 146.486C383.533 148.044 382.393 149.233 380.948 150.055C379.51 150.871 377.892 151.278 376.096 151.278C374.286 151.278 372.662 150.867 371.224 150.045C369.785 149.223 368.648 148.034 367.813 146.476C366.978 144.918 366.56 143.032 366.56 140.818C366.56 138.597 366.978 136.708 367.813 135.151C368.648 133.593 369.785 132.406 371.224 131.591C372.662 130.769 374.286 130.358 376.096 130.358C377.892 130.358 379.51 130.769 380.948 131.591C382.393 132.406 383.533 133.593 384.369 135.151C385.21 136.708 385.631 138.597 385.631 140.818ZM381.266 140.818C381.266 139.38 381.051 138.167 380.62 137.179C380.196 136.191 379.596 135.442 378.82 134.932C378.045 134.421 377.137 134.166 376.096 134.166C375.055 134.166 374.147 134.421 373.371 134.932C372.596 135.442 371.993 136.191 371.562 137.179C371.137 138.167 370.925 139.38 370.925 140.818C370.925 142.257 371.137 143.47 371.562 144.457C371.993 145.445 372.596 146.194 373.371 146.705C374.147 147.215 375.055 147.47 376.096 147.47C377.137 147.47 378.045 147.215 378.82 146.705C379.596 146.194 380.196 145.445 380.62 144.457C381.051 143.47 381.266 142.257 381.266 140.818Z" fill="white" style="fill:white;fill-opacity:1;"/>
<path d="M512.734 226.182V225.108C512.734 224.293 512.907 223.544 513.252 222.861C513.603 222.171 514.11 221.621 514.773 221.21C515.442 220.793 516.258 220.584 517.219 220.584C518.193 220.584 519.012 220.789 519.675 221.2C520.344 221.611 520.848 222.161 521.186 222.851C521.531 223.534 521.703 224.286 521.703 225.108V226.182C521.703 226.997 521.531 227.75 521.186 228.439C520.841 229.122 520.334 229.669 519.665 230.08C518.995 230.497 518.18 230.706 517.219 230.706C516.244 230.706 515.426 230.497 514.763 230.08C514.1 229.669 513.596 229.122 513.252 228.439C512.907 227.75 512.734 226.997 512.734 226.182ZM515.628 225.108V226.182C515.628 226.652 515.741 227.097 515.966 227.514C516.198 227.932 516.616 228.141 517.219 228.141C517.822 228.141 518.233 227.935 518.452 227.524C518.677 227.113 518.79 226.666 518.79 226.182V225.108C518.79 224.624 518.684 224.173 518.472 223.756C518.26 223.338 517.842 223.129 517.219 223.129C516.622 223.129 516.208 223.338 515.976 223.756C515.744 224.173 515.628 224.624 515.628 225.108ZM502.284 214.528V213.455C502.284 212.633 502.46 211.88 502.811 211.197C503.162 210.508 503.67 209.958 504.332 209.547C505.002 209.136 505.811 208.93 506.759 208.93C507.74 208.93 508.562 209.136 509.225 209.547C509.887 209.958 510.391 210.508 510.736 211.197C511.081 211.88 511.253 212.633 511.253 213.455V214.528C511.253 215.35 511.077 216.103 510.726 216.786C510.381 217.468 509.874 218.015 509.205 218.426C508.542 218.831 507.726 219.033 506.759 219.033C505.791 219.033 504.972 218.827 504.303 218.416C503.64 217.999 503.136 217.452 502.791 216.776C502.453 216.093 502.284 215.344 502.284 214.528ZM505.198 213.455V214.528C505.198 215.012 505.31 215.46 505.536 215.871C505.768 216.282 506.175 216.487 506.759 216.487C507.368 216.487 507.783 216.282 508.002 215.871C508.227 215.46 508.34 215.012 508.34 214.528V213.455C508.34 212.971 508.234 212.52 508.021 212.102C507.809 211.685 507.388 211.476 506.759 211.476C506.169 211.476 505.761 211.688 505.536 212.112C505.31 212.536 505.198 212.984 505.198 213.455ZM503.597 230L517.597 209.636H520.202L506.202 230H503.597Z" fill="white" style="fill:white;fill-opacity:1;"/>
<path d="M483.951 230V226.898L491.2 220.186C491.816 219.589 492.333 219.053 492.751 218.575C493.175 218.098 493.497 217.631 493.716 217.173C493.934 216.709 494.044 216.209 494.044 215.672C494.044 215.075 493.908 214.562 493.636 214.131C493.364 213.693 492.993 213.358 492.522 213.126C492.052 212.888 491.518 212.768 490.921 212.768C490.298 212.768 489.755 212.894 489.291 213.146C488.827 213.398 488.469 213.759 488.217 214.23C487.965 214.701 487.839 215.261 487.839 215.91H483.752C483.752 214.578 484.054 213.421 484.657 212.44C485.26 211.459 486.106 210.7 487.193 210.163C488.28 209.626 489.533 209.358 490.951 209.358C492.41 209.358 493.679 209.616 494.76 210.133C495.847 210.644 496.692 211.353 497.295 212.261C497.898 213.169 498.2 214.21 498.2 215.383C498.2 216.152 498.047 216.911 497.742 217.66C497.444 218.41 496.911 219.241 496.142 220.156C495.373 221.064 494.289 222.155 492.89 223.428L489.917 226.341V226.48H498.468V230H483.951Z" fill="white" style="fill:white;fill-opacity:1;"/>
<path d="M478.127 230.258C477.471 230.258 476.907 230.026 476.437 229.562C475.973 229.092 475.741 228.528 475.741 227.872C475.741 227.222 475.973 226.666 476.437 226.202C476.907 225.738 477.471 225.506 478.127 225.506C478.763 225.506 479.32 225.738 479.798 226.202C480.275 226.666 480.513 227.222 480.513 227.872C480.513 228.31 480.401 228.711 480.175 229.075C479.957 229.433 479.668 229.722 479.31 229.94C478.952 230.152 478.558 230.258 478.127 230.258Z" fill="white" style="fill:white;fill-opacity:1;"/>
<path d="M465.315 209.358C466.363 209.358 467.37 209.534 468.338 209.885C469.313 210.236 470.181 210.796 470.943 211.565C471.712 212.334 472.319 213.355 472.763 214.628C473.214 215.894 473.442 217.448 473.449 219.291C473.449 221.021 473.253 222.566 472.862 223.925C472.478 225.277 471.924 226.427 471.202 227.375C470.479 228.323 469.608 229.046 468.587 229.543C467.566 230.033 466.426 230.278 465.166 230.278C463.807 230.278 462.608 230.017 461.567 229.493C460.526 228.963 459.688 228.243 459.051 227.335C458.421 226.421 458.04 225.393 457.908 224.253H462.153C462.319 224.995 462.667 225.572 463.197 225.983C463.728 226.387 464.384 226.59 465.166 226.59C466.492 226.59 467.5 226.013 468.189 224.859C468.878 223.699 469.226 222.112 469.233 220.097H469.094C468.789 220.693 468.378 221.207 467.861 221.638C467.344 222.062 466.751 222.39 466.081 222.622C465.418 222.854 464.712 222.97 463.963 222.97C462.763 222.97 461.693 222.689 460.751 222.125C459.81 221.562 459.068 220.786 458.524 219.798C457.981 218.811 457.709 217.684 457.709 216.418C457.702 215.052 458.017 213.836 458.653 212.769C459.29 211.701 460.178 210.866 461.318 210.263C462.465 209.653 463.797 209.351 465.315 209.358ZM465.345 212.739C464.676 212.739 464.079 212.898 463.555 213.216C463.038 213.534 462.627 213.962 462.322 214.499C462.024 215.036 461.878 215.635 461.885 216.298C461.885 216.968 462.031 217.571 462.322 218.108C462.621 218.638 463.025 219.063 463.536 219.381C464.053 219.692 464.643 219.848 465.305 219.848C465.803 219.848 466.263 219.755 466.688 219.57C467.112 219.384 467.48 219.129 467.791 218.804C468.109 218.473 468.358 218.091 468.537 217.661C468.716 217.23 468.805 216.772 468.805 216.288C468.799 215.645 468.646 215.055 468.348 214.519C468.05 213.982 467.639 213.551 467.115 213.226C466.591 212.901 466.001 212.739 465.345 212.739Z" fill="white" style="fill:white;fill-opacity:1;"/>
<path d="M453.108 209.636V230H448.802V213.723H448.683L444.02 216.646V212.828L449.061 209.636H453.108Z" fill="white" style="fill:white;fill-opacity:1;"/>
<path d="M440.679 218.138V221.498H431.392V218.138H440.679Z" fill="white" style="fill:white;fill-opacity:1;"/>
<path d="M421.675 216.766H417.32C417.24 216.202 417.078 215.702 416.832 215.264C416.587 214.82 416.272 214.442 415.888 214.131C415.503 213.819 415.059 213.58 414.555 213.415C414.058 213.249 413.518 213.166 412.935 213.166C411.881 213.166 410.963 213.428 410.18 213.952C409.398 214.469 408.792 215.224 408.361 216.219C407.93 217.206 407.714 218.406 407.714 219.818C407.714 221.27 407.93 222.49 408.361 223.477C408.798 224.465 409.408 225.211 410.19 225.714C410.972 226.218 411.877 226.47 412.905 226.47C413.481 226.47 414.015 226.394 414.506 226.241C415.003 226.089 415.444 225.867 415.828 225.575C416.213 225.277 416.531 224.916 416.783 224.491C417.041 224.067 417.22 223.583 417.32 223.04L421.675 223.06C421.562 223.994 421.28 224.896 420.829 225.764C420.385 226.626 419.785 227.398 419.03 228.081C418.281 228.757 417.386 229.294 416.345 229.692C415.311 230.083 414.141 230.278 412.835 230.278C411.019 230.278 409.395 229.867 407.963 229.045C406.538 228.223 405.411 227.034 404.582 225.476C403.76 223.918 403.349 222.032 403.349 219.818C403.349 217.597 403.767 215.708 404.602 214.151C405.437 212.593 406.571 211.406 408.003 210.591C409.435 209.769 411.045 209.358 412.835 209.358C414.015 209.358 415.109 209.524 416.116 209.855C417.131 210.187 418.029 210.67 418.811 211.307C419.593 211.937 420.23 212.709 420.72 213.624C421.217 214.538 421.535 215.586 421.675 216.766Z" fill="white" style="fill:white;fill-opacity:1;"/>
<path d="M385.158 213.186V209.636H401.883V213.186H395.649V230H391.393V213.186H385.158Z" fill="white" style="fill:white;fill-opacity:1;"/>
<path d="M367.422 230V209.636H375.576C377.074 209.636 378.323 209.859 379.324 210.303C380.325 210.747 381.078 211.363 381.581 212.152C382.085 212.934 382.337 213.836 382.337 214.857C382.337 215.652 382.178 216.351 381.86 216.955C381.542 217.551 381.104 218.042 380.547 218.426C379.997 218.804 379.367 219.073 378.658 219.232V219.431C379.434 219.464 380.16 219.682 380.836 220.087C381.518 220.491 382.072 221.058 382.496 221.787C382.92 222.51 383.133 223.371 383.133 224.372C383.133 225.453 382.864 226.417 382.327 227.266C381.797 228.108 381.011 228.774 379.971 229.264C378.93 229.755 377.647 230 376.123 230H367.422ZM371.728 226.48H375.238C376.438 226.48 377.313 226.252 377.863 225.794C378.413 225.33 378.688 224.714 378.688 223.945C378.688 223.381 378.552 222.884 378.28 222.453C378.009 222.022 377.621 221.684 377.117 221.439C376.62 221.194 376.027 221.071 375.337 221.071H371.728V226.48ZM371.728 218.158H374.92C375.509 218.158 376.033 218.055 376.491 217.85C376.955 217.637 377.319 217.339 377.584 216.955C377.856 216.57 377.992 216.109 377.992 215.573C377.992 214.837 377.73 214.243 377.206 213.793C376.689 213.342 375.954 213.117 374.999 213.117H371.728V218.158Z" fill="white" style="fill:white;fill-opacity:1;"/>
<circle cx="319.29" cy="219" r="12" fill="#0000FF" style="fill:#0000FF;fill:color(display-p3 0.0000 0.0000 1.0000);fill-opacity:1;"/>
<circle cx="319.29" cy="141" r="12" fill="#0000FF" style="fill:#0000FF;fill:color(display-p3 0.0000 0.0000 1.0000);fill-opacity:1;"/>
</svg>
