<svg width="870" height="250" viewBox="0 0 870 250" fill="none" xmlns="http://www.w3.org/2000/svg">
<g clip-path="url(#clip0_21_2)">
<path d="M4 148.671H6.28604L8.59837 145.808L13.2219 147.677L15.5331 148.57L17.8454 149.606L22.4689 150.069L24.7813 149.623L30.5615 156.308L32.8727 159.448L37.4962 156.375L39.8086 155.845L42.1209 156.072L46.7444 158.001L49.0556 153.791L53.6803 149.362L55.9914 148.848L58.3038 150.6L61.7717 151.18L64.084 157.352L66.3952 163.443L69.8631 161.975L72.1755 160.586L74.4867 160.842L77.9546 162.209L80.2669 164.62L82.5792 166.099L87.2028 166.702L89.514 164.443L94.1386 167.023L96.4498 166.814L98.7621 168.228L102.23 171.893L104.541 176.699L106.854 175.406L110.322 173.782L112.634 175.084L114.945 173.886L118.413 173.002L120.725 169.024L123.036 174.16L126.504 175.309L128.817 173.332L134.596 175.968L136.908 176.273L139.221 176.329L142.688 177.238L145 177.776L147.312 170.728L150.78 173.83L153.091 177.599L155.403 180.01L158.871 179.336L161.184 176.779L163.495 176.554L166.963 173.179L169.275 176.554L171.586 165.468L175.054 166.808L177.367 165.982L179.679 165.533L183.147 162.938L185.458 160.174L187.77 160.053L191.238 159.113L193.549 159.225L195.862 159.965L200.485 159.957L202.798 158.913L207.421 156.71L209.733 155.232L212.045 154.413L215.513 157.442L217.825 141.411L220.136 141.878L223.604 138.518L227.072 144.135L231.697 145.373L234.008 141.267L236.32 143.38L239.788 138.454L242.099 134.597L244.412 130.748L247.879 129.559L250.192 125.413L252.503 127.373L255.971 124.272L258.283 128.707L260.594 132.38L264.062 132.661L266.375 137.016L268.687 137.482L272.154 137.257L274.466 134.171L276.778 139.72L280.246 148.048L282.558 147.615L284.87 142.566L288.338 141.354L290.649 138.056L292.961 134.646L296.429 134.772L298.742 134.37L301.053 134.024L304.521 133.757L306.833 134.299L309.144 132.324L313.769 137.229L316.08 137.536L320.705 138.693L323.016 137.315L325.328 137.441L328.796 142.306L331.107 138.866L333.42 132.954L336.888 134.315L339.2 134.394L341.511 133.276L344.979 129.175L347.291 134.071L349.603 134.055L353.071 138.079L355.383 131.898L357.694 133.465L361.162 130.512L363.474 130.134L365.787 127.6L369.255 126.434L371.566 130.938L373.878 130.426L377.346 128.859L379.657 131.457L381.97 122.974L385.437 123.74L387.75 123.136L390.061 119.316L393.529 121.641L395.841 120.884L398.152 120.986L401.62 118.413L403.933 117.578L406.245 116.838L409.712 114.282L412.024 112.528L414.336 110.484L417.804 108.559L420.116 105.646L422.428 105.791L425.896 102.461L428.207 102.682L430.519 101.285L433.987 98.8069L436.3 101.353L438.611 95.8686L442.079 95.2037L445.547 92.0105L450.17 97.8191L453.638 104.93L458.263 103.951L460.574 105.91L462.886 110.893L466.354 112.979L468.665 110.024L470.978 116.744L475.601 122.995L477.914 122.126L482.537 116.846L484.849 108.755L487.161 118.636L490.629 125.204L492.941 121.537L495.252 125.515L498.72 125.294L501.032 117.706L503.345 111.346L507.968 111.453L510.28 110.333L514.904 109.288L517.215 114.835L519.528 113.617L522.995 116.752L525.308 118.636L527.619 115.896L531.087 125.434L533.399 134.073L535.71 136.946L539.178 136.526L541.491 135.505L543.803 133.012L547.27 130.988L549.582 130.329L551.894 133.317L555.362 129.835L557.674 128.388L559.986 157.608L563.454 163.302L565.765 148.992L568.077 149.569L571.545 145.973L573.858 152.761L579.637 153.675L581.949 144.261L584.26 140.41L587.728 139.702L590.04 137.76L592.353 146.802L595.821 152.018L598.132 154.151L600.444 152.309L603.912 142.187L606.223 140.941L608.536 141.806L612.004 143.811L614.315 149.221L616.627 154.735L621.251 150.74L623.563 150.95L628.187 149.536L630.499 148.63L632.81 147.741L636.278 149.738L638.59 151.897L640.903 153.781L644.371 152.188L646.682 153.676L648.994 150.102L652.462 149.698L654.773 149.649L657.085 150.037L660.553 146.73L662.866 140.852L668.645 142.865L670.957 141.903L673.268 141.887L676.736 143.941L679.049 142.695L681.36 141.871L684.828 140.82L687.14 139.469L689.452 139.688L692.92 139.55L695.232 143.593L697.544 153.207L701.012 152.443L703.323 144.645L705.635 131.963L709.103 133.47L711.416 128.62L713.727 129.991L717.195 130.543L719.507 134.392L721.818 133.012L725.286 133.485L727.598 130.859L729.911 129.558L734.534 131.466L736.845 123.533L741.47 125.032L743.781 133.777L746.094 128.036L749.562 125.961L751.873 124.156L754.185 119.022L757.653 110.679L759.965 113.652L762.277 111.168L765.744 111.98L768.057 111.176L770.368 109.149L773.836 110.198L776.148 109.117L778.461 119.204L781.929 117.318L784.24 115.994L786.552 113.667L790.02 105.821L792.331 108.81L794.643 105.364L798.111 100.64L800.424 99.9386L802.735 124.528L806.203 125.446L808.515 124.688L810.826 125.849L814.294 125L816.607 122.186L818.918 122.924L822.386 126.371L824.698 125.605L827.01 123.565L830.478 120.48L832.789 119.345L835.102 118.44L838.57 115.48L840.881 114.749L843.193 118.488L846.661 119.108L848.973 118.488L851.285 118.577L857 118.577" stroke="#A8A8A8" style="stroke:#A8A8A8;stroke:color(display-p3 0.6588 0.6588 0.6588);stroke-opacity:1;" stroke-width="10" stroke-linecap="round" stroke-linejoin="round"/>
<path d="M4 204.461H6.28604L8.59837 205.019L13.2219 201.302L15.5331 198.855L17.8454 195.821L22.4689 195.792L24.7813 197.035L30.5615 199.019L32.8727 200.734L37.4962 198.373L39.8086 195.06L42.1209 194.704L46.7444 194.857L49.0556 193.904L53.6803 191.486L55.9914 188.876L58.3038 185.519L61.7717 184.243L64.084 210.887L66.3952 208.914L69.8631 207.79L72.1755 206.181L74.4867 203.187L77.9546 204.459L80.2669 205.835L82.5792 210.524L87.2028 210.005L89.514 207.435L94.1386 213.076L96.4498 214.106L98.7621 213.449L102.23 216.728L104.541 218.415L106.854 214.945L110.322 212.99L112.634 211.155L114.945 209.953L118.413 204.328L120.725 203.412L123.036 201.655L126.504 202.26L128.817 201.569L134.596 197.572L136.908 198.064L139.221 200.158L142.688 198.125L145 197.009L147.312 195.633L150.78 198.117L153.091 197.589L155.403 198.782L158.871 196.887L161.184 194.422L163.495 199.759L166.963 204.223L169.275 205.985L171.586 203.384L175.054 202.722L177.367 201.737L179.679 202.299L183.147 201.921L185.458 199.328L187.77 196.596L191.238 195.933L193.549 196.349L195.862 197.419L200.485 196.333L202.798 199.636L207.421 198.82L209.733 197.095L212.045 197.827L215.513 197.249L217.825 195.107L220.136 195.878L223.604 195.531L227.072 196.255L231.697 194.005L234.008 190.414L236.32 191.748L239.788 191.099L242.099 188.919L244.412 185.236L247.879 186.446L250.192 184.789L252.503 189.497L255.971 188.372L258.283 192.618L260.594 195.207L264.062 192.117L266.375 207.671L268.687 211.73L272.154 209.906L274.466 208.458L276.778 211.974L280.246 217.316L282.558 217.54L284.87 214.13L288.338 215.125L290.649 216.509L292.961 214.642L296.429 211.968L298.742 212.559L301.053 212.725L304.521 212.335L306.833 214.721L309.144 214.339L313.769 218.679L316.08 218.765L320.705 224.771L323.016 223.003L325.328 218.455L328.796 218.023L331.107 216.76L333.42 214.031L336.888 215.287L339.2 215.547L341.511 213.771L344.979 212.4L347.291 212.392L349.603 211.526L353.071 214.471L355.383 215.28L357.694 214.283L361.162 213.042L363.474 212.898L365.787 214.154L369.255 213.685L371.566 214.616L373.878 212.819L377.346 211.772L379.657 215.705L381.97 217.82L385.437 219.187L387.75 214.337L390.061 213.11L393.529 211.775L395.841 212.756L398.152 217.019L401.62 215.144L403.933 214.691L406.245 222.176L409.712 220.248L412.024 219.194L414.336 219.381L417.804 217.687L420.116 215.764L422.428 215.538L425.896 214.964L428.207 201.584L430.519 205.311L433.987 200.743L436.3 206.259L438.611 204.249L442.079 202.098L445.547 201.45L450.17 204.362L453.638 205.571L458.263 200.602L460.574 202.552L462.886 203.828L466.354 204.516L468.665 201.484L470.978 201.183L475.601 199.813L477.914 199.86L482.537 203.981L484.849 201.577L487.161 195.826L490.629 197.689L492.941 212.399L495.252 216.147L498.72 215.44L501.032 217.23L503.345 216.216L507.968 217.13L510.28 216.635L514.904 219.958L517.215 224.036L519.528 225.57L522.995 227.615L525.308 223.856L527.619 223.33L531.087 228.209L533.399 227.433L535.71 228.447L539.178 229.199L541.491 229.449L543.803 229.387L547.27 227.075L549.582 228.717L551.894 235.437L555.362 235.244L557.674 233.741L559.986 240.906L563.454 240.186L565.765 232.694L568.077 233.678L571.545 232.469L573.858 236.064L579.637 239.609L581.949 234.799L584.26 241.063L587.728 241.822L590.04 242.84L592.353 239.9L595.821 239.799L598.132 247.01L600.444 246.241L603.912 243.031L606.223 239.147L608.536 238.686L612.004 238.489L614.315 237.354L616.627 237.404L621.251 234.914L623.563 235.499L628.187 237.089L630.499 237.64L632.81 234.475L636.278 233L638.59 232.292L640.903 233.8L644.371 232.618L646.682 234.56L648.994 238.319L652.462 239.135L654.773 236.046L657.085 231.627L660.553 232.921L662.866 231.566L668.645 232.607L670.957 232.703L673.268 230.693L676.736 229.922L679.049 229.129L681.36 227.952L684.828 225.115L687.14 229.831L689.452 228.245L692.92 228.568L695.232 226.444L697.544 230.423L701.012 227.245L703.323 226.681L705.635 223.815L709.103 224.041L711.416 223.524L713.727 222.482L717.195 222.696L719.507 224.944L721.818 221.305L725.286 220.014L727.598 220.556L729.911 217.637L734.534 218.476L736.845 207.213L741.47 206.164L743.781 203.404L746.094 202.527L749.562 196.71L751.873 197.829L754.185 195.036L757.653 196.215L759.965 199.115L762.277 199.437L765.744 200.777L768.057 200.321L770.368 200.078L773.836 197.344L776.148 200.471L778.461 204.803L781.929 200.724L784.24 197.022L786.552 195.8L790.02 194.051L792.331 196.667L794.643 192.237L798.111 187.206L800.424 195.283L802.735 191.984L806.203 190.723L808.515 190.429L810.826 193.16L814.294 187.544L816.607 189.233L818.918 194.366L822.386 190.075L824.698 186.193L827.01 182.78L830.478 173.352L832.789 172.668L835.102 172.554L838.57 175.19L840.881 172.828L843.193 172.01L846.661 175.671L848.973 172.435L851.285 176.033L857 176.033" stroke="#0060FF" style="stroke:#0060FF;stroke:color(display-p3 0.0000 0.3764 1.0000);stroke-opacity:1;" stroke-width="10" stroke-linecap="round" stroke-linejoin="round"/>
<path d="M4 123.01C5.3423 123.01 6.51114 122.094 6.83129 120.79L8.59837 113.596L12.0638 100.478C12.4055 99.1846 14.2214 99.1303 14.6397 100.401C14.9954 101.481 16.4485 101.659 17.054 100.696L17.4678 100.038C17.7095 99.6539 18.0943 99.3815 18.5372 99.2812L22.0262 98.4909C22.32 98.4243 22.6036 98.3187 22.8693 98.1767C24.0339 97.5548 25.4544 97.6701 26.5035 98.4717L30.1755 101.277C30.4312 101.473 30.7161 101.627 31.0197 101.734C32.1497 102.133 33.4085 101.84 34.2461 100.983L36.7574 98.4126C37.2481 97.9104 37.6763 97.3506 38.0326 96.7455L39.8086 93.7295L40.6813 92.3264C41.5575 90.9179 43.1781 90.154 44.8222 90.3746C46.0422 90.5383 47.2729 90.1606 48.1911 89.3407L48.4149 89.1409C48.8388 88.7624 49.3256 88.4611 49.8533 88.2505L51.935 87.4199C53.0016 86.9943 54.2177 87.2185 55.0625 87.9965C55.6563 88.5434 56.4464 88.8264 57.2524 88.7808L57.354 88.7751C57.974 88.74 58.5706 88.5267 59.0723 88.1608L61.1942 86.6131C61.5732 86.3367 62.0152 86.1593 62.4802 86.0972C63.4733 85.9644 64.321 85.3139 64.7062 84.389L65.6083 82.2231C66.0983 81.0468 67.1562 80.203 68.4121 79.987C69.3443 79.8267 70.1804 79.3173 70.7504 78.5625L71.5345 77.5241C71.9572 76.9644 72.4921 76.4992 73.1049 76.1583C74.0044 75.6579 75.0357 75.4452 76.0598 75.5489L77.9546 75.7407L78.7222 75.7679C79.7459 75.8041 80.7692 75.6828 81.756 75.4082L81.9337 75.3588C82.3635 75.2392 82.8013 75.1502 83.2437 75.0925L84.1952 74.9683C86.118 74.7173 87.8575 73.6993 89.0179 72.1458C89.3475 71.7045 89.7268 71.3026 90.1483 70.9481L92.9128 68.6227C93.7248 67.9397 94.6404 67.3903 95.6251 66.995L95.9749 66.8546C96.291 66.7278 96.6167 66.6261 96.9488 66.5506C98.1336 66.2813 99.2184 65.6831 100.079 64.8249L102.054 62.8536C102.171 62.7376 102.265 62.602 102.334 62.453C102.934 61.157 104.863 61.4973 104.984 62.9202L106.783 84.2076C106.829 84.7532 107.05 85.2692 107.413 85.6789L108 86.3414C109.033 87.5081 110.942 87.1213 111.44 85.6443L111.824 84.504C112.173 83.4702 113.529 83.2345 114.206 84.09C114.63 84.6261 115.384 84.7691 115.975 84.4258L117.874 83.3232C118.229 83.1166 118.539 82.8394 118.783 82.5085L119.162 81.9964C120.004 80.8566 121.64 80.6788 122.707 81.611C122.925 81.8014 123.175 81.9513 123.446 82.0534L125.602 82.8669C126.193 83.0901 126.833 83.1533 127.456 83.0503C128.332 82.9056 129.23 83.0901 129.978 83.5684L133.821 86.0255C134.326 86.3486 134.724 86.8145 134.964 87.3642L135.856 89.4106C136.341 90.5216 137.823 90.7381 138.606 89.8122C138.986 89.3624 139.578 89.1515 140.157 89.2601L140.82 89.3845C141.948 89.5959 143.09 89.0972 143.701 88.1265L145 86.0642C146.173 84.5538 148.454 84.5511 149.631 86.0586L150.224 86.8181C150.589 87.2854 151.062 87.6579 151.601 87.9038L152.648 88.3807C152.942 88.5148 153.217 88.688 153.465 88.8955C154.628 89.8693 156.277 90.0081 157.586 89.2424L158.152 88.9115C158.628 88.6335 159.048 88.271 159.394 87.8419L161.184 85.6174L161.392 85.4185C162.696 84.1764 164.557 83.7133 166.291 84.2L166.711 84.3179C166.878 84.3648 167.038 84.4342 167.186 84.5242C168.248 85.1687 169.633 84.6453 170.003 83.4596L171.286 79.353C171.484 78.7167 171.802 78.1238 172.221 77.6056L175.054 74.1049L176.67 72.4442C177.127 71.9741 177.461 71.3978 177.64 70.7671L178.843 66.5438C179.199 65.2933 180.808 64.9477 181.646 65.9415C182.374 66.8047 183.739 66.6793 184.298 65.6978L185.458 63.6608L186.674 62.0864C187.337 61.2277 188.454 60.8555 189.499 61.1449C190.55 61.4355 191.672 61.0585 192.333 60.1923L193.549 58.6007L193.803 58.3065C195.143 56.7491 196.93 55.6424 198.921 55.1367L200.485 54.7397L202.003 54.2533C202.53 54.0845 203.079 53.9975 203.632 53.9955L206.304 53.9857C206.974 53.9832 207.572 53.5611 207.798 52.9298C208.342 51.4095 210.543 51.571 210.86 53.1545L211.521 56.4602C211.805 57.8826 213.226 58.7745 214.631 58.4129L215.045 58.3061C215.355 58.2264 215.675 58.1979 215.994 58.2215L216.096 58.2291C217.187 58.3101 218.255 57.8845 218.991 57.0751L220.136 55.8169L221.47 54.2951C222.725 52.8636 224.792 52.4667 226.488 53.3315C226.875 53.529 227.229 53.7858 227.536 54.0928L230.397 56.9475C231.094 57.643 232.238 57.5872 232.864 56.8272C233.481 56.0778 234.606 56.0114 235.307 56.6829L235.969 57.3171C236.201 57.5391 236.473 57.7148 236.771 57.8347L236.888 57.8819C238.497 58.5297 240.328 57.7667 241.001 56.1681L242.099 53.5577L243.613 48.6895C244.037 47.3242 245.561 46.6381 246.865 47.2249L247.27 47.4073C247.656 47.5813 248.1 47.5749 248.481 47.39C249.338 46.9748 250.353 47.496 250.515 48.434L251.992 56.9866C252.243 58.4385 253.846 59.2148 255.14 58.5114C255.67 58.2238 256.295 58.1712 256.865 58.3664L257.582 58.612C258.042 58.7693 258.452 59.0441 258.772 59.4091L259.32 60.0343C260.025 60.8378 261.247 60.9216 262.055 60.222C263.049 59.3614 264.593 59.715 265.113 60.9225L266.375 63.8493L267.83 66.3013C268.375 67.2195 269.288 67.8597 270.336 68.0594L270.417 68.0747C271.511 68.2832 272.64 67.9675 273.467 67.2216L273.809 66.9132C274.233 66.5315 274.781 66.3174 275.351 66.311C276.227 66.3012 277.036 66.7821 277.446 67.5572L278.834 70.1803C279.51 71.4567 281.262 71.6448 282.193 70.5408C282.431 70.2578 282.589 69.915 282.647 69.5494L284.534 57.7596C284.75 56.4101 285.459 55.1885 286.522 54.3306L287.523 53.5232C288.044 53.1033 288.712 52.9116 289.377 52.9915C290.175 53.0876 290.97 52.7908 291.51 52.1952L292.029 51.6222C292.633 50.9566 293.444 50.515 294.331 50.3694L295.097 50.2435C295.954 50.1028 296.727 49.6466 297.264 48.9645L297.989 48.0451C298.442 47.4693 299.204 47.2323 299.904 47.449C300.598 47.6636 301.352 47.4333 301.807 46.868L303.511 44.7526C304.087 44.0375 305.107 43.8653 305.886 44.3515C306.467 44.7142 307.202 44.7189 307.788 44.3638L307.859 44.3208C308.616 43.8615 309.588 43.9705 310.225 44.5862L311.562 45.8781C312.78 47.056 314.723 47.0215 315.899 45.801C316.02 45.676 316.15 45.5614 316.29 45.4585L320.705 42.2118L321.993 41.5061C322.657 41.1425 323.186 40.5744 323.501 39.8862L323.816 39.1986C324.592 37.5049 326.737 36.966 328.221 38.0919L328.332 38.1762C328.637 38.4074 328.881 38.7096 329.042 39.0565L329.08 39.1394C329.896 40.8931 332.379 40.9223 333.236 39.1882C333.358 38.9424 333.522 38.7203 333.721 38.5322L334.784 37.5298C335.923 36.4566 337.732 36.5698 338.727 37.7766C339.037 38.1518 339.239 38.6034 339.314 39.084L341.162 51.0097C341.359 52.2799 342.503 53.1824 343.784 53.0778C344.538 53.0162 345.278 53.3061 345.79 53.8632L346.315 54.4356C346.881 55.0519 347.806 55.1772 348.515 54.7339C349.162 54.33 349.996 54.3946 350.572 54.8933L350.651 54.9612C351.735 55.8992 353.428 55.3252 353.718 53.9212L354.26 51.2998C354.581 49.7431 356.742 49.5845 357.288 51.0775C357.529 51.7363 358.175 52.1572 358.875 52.1107L360.454 52.0058C360.922 51.9748 361.391 52.0331 361.837 52.1777L362.258 52.3142C363.05 52.5713 363.902 52.5818 364.7 52.3445L364.864 52.2957C365.468 52.1163 366.109 52.1034 366.719 52.2582L367.68 52.502C368.614 52.7388 369.591 52.3321 370.081 51.5034L370.246 51.2244C370.904 50.1125 372.447 49.9488 373.324 50.8982C373.678 51.2822 374.173 51.5059 374.695 51.5183L375.4 51.5349C376.614 51.5635 377.731 52.204 378.369 53.2372L378.975 54.2183C379.404 54.9126 380.137 55.3623 380.95 55.4304C381.605 55.4852 382.256 55.2876 382.769 54.878L384.285 53.6692C385.046 53.0628 385.681 52.3133 386.153 51.4631L387.18 49.6157C387.557 48.938 387.814 48.2003 387.94 47.4351L389.426 38.3976C389.692 36.7788 391.676 36.1371 392.839 37.2935L392.935 37.3887C393.31 37.7616 393.835 37.9432 394.36 37.8822C395.212 37.7834 396.009 38.3209 396.236 39.148L396.765 41.0727C397.361 43.2438 400.13 43.8854 401.62 42.1979L402.478 41.1953C403.432 40.0793 404.087 38.7389 404.38 37.3002L405.631 31.1682C405.962 29.5421 407.607 28.5417 409.203 28.995C409.539 29.0905 409.89 29.1233 410.238 29.0919L410.375 29.0796C411.421 28.9853 412.374 28.4374 412.982 27.5804L413.433 26.9455C414.018 26.1209 414.867 25.5208 415.839 25.2447C417.086 24.8906 418.116 24.0088 418.658 22.8311L419.521 20.9544C419.896 20.1397 420.627 19.5447 421.501 19.343C422.103 19.2041 422.734 19.2614 423.301 19.5066L425.104 20.2858C425.585 20.4938 426.144 20.3972 426.527 20.0396C427.272 19.3451 428.489 19.7202 428.714 20.7134L430.111 26.8904C430.331 27.8638 431.335 28.4426 432.287 28.1458C433.215 27.8569 434.197 28.3977 434.448 29.3362L435.961 34.9884C436.185 35.8236 436.555 36.6127 437.053 37.3191L437.747 38.3019C438.31 39.0989 439.101 39.7062 440.016 40.0432L440.982 40.3985C441.678 40.6551 442.452 40.5965 443.103 40.238C444.417 39.5132 446.07 40.0694 446.679 41.4413L449.871 48.631C450.069 49.0772 450.338 49.4886 450.667 49.8494C452.322 51.6667 455.122 51.8404 456.99 50.2416L457.922 49.4435C458.149 49.2495 458.39 49.0732 458.644 48.9161L460.158 47.9793C460.433 47.8089 460.676 47.5915 460.877 47.337C461.931 45.9975 463.934 45.9187 465.09 47.1713L465.879 48.0262C466.187 48.3594 466.598 48.5795 467.045 48.651C467.989 48.8017 468.91 48.2703 469.251 47.3775L470.124 45.0966C470.662 43.6892 471.822 42.6106 473.265 42.1757L474.717 41.7381C475.274 41.5705 475.876 41.6751 476.343 42.0205C477.195 42.6503 478.402 42.4333 478.98 41.546L481.943 37.0053C482.304 36.4517 482.958 36.1632 483.61 36.2695C484.344 36.3892 485.069 36.0093 485.388 35.3375L487.161 31.6041L490.208 24.605C490.488 23.9625 490.699 23.2923 490.839 22.6056L492.649 13.7023C492.828 12.8209 493.487 12.1147 494.354 11.8749C494.931 11.7151 495.428 11.3441 495.745 10.8354L497.848 7.46142C498.415 6.55039 499.25 5.83628 500.238 5.41614L500.617 5.25492C500.892 5.13789 501.146 4.97651 501.369 4.77721C502.47 3.79283 504.153 3.86096 505.171 4.93107L507.136 6.99741C507.685 7.57403 508.106 8.25955 508.372 9.00946L509.128 11.1388C509.812 13.0656 511.68 14.3144 513.722 14.2096L514.392 14.1752C514.728 14.1579 515.063 14.2256 515.366 14.3718C516.379 14.8614 517.598 14.4194 518.061 13.3935L518.543 12.3295C519.125 11.0425 520.494 10.3021 521.89 10.5201L522.724 10.6503C522.904 10.6785 523.087 10.6817 523.269 10.66C524.385 10.5261 525.391 11.3411 525.492 12.4609L527.497 34.6976C527.578 35.5988 527.781 36.4848 528.1 37.3313L530.547 43.8124C530.903 44.7547 531.461 45.6074 532.182 46.3102L532.735 46.8487C533.171 47.274 533.498 47.7992 533.686 48.3788L534.805 51.8255C535.206 53.0598 536.796 53.3926 537.658 52.4228C538.412 51.5753 539.771 51.7028 540.354 52.6758L540.474 52.8763C541.024 53.7947 542.237 54.0564 543.117 53.4467L543.456 53.2116C543.685 53.0527 543.883 52.8524 544.039 52.6208L546.512 48.9421C547.009 48.2039 547.69 47.6085 548.487 47.2151L548.935 46.9944C549.36 46.7847 549.829 46.6784 550.303 46.6841C551.299 46.6961 552.236 46.2154 552.807 45.3998L555.248 41.9132C555.324 41.8048 555.387 41.6877 555.435 41.5644C556.05 39.9857 558.358 40.2382 558.617 41.9126L559.857 49.9217C559.94 50.4542 560.229 50.9327 560.662 51.2533C561.915 52.1808 563.704 51.4217 563.908 49.876L565.572 37.2495C565.675 36.4659 566.433 35.9432 567.202 36.1251C567.731 36.2501 568.283 36.0418 568.598 35.5984L569.458 34.3853C570.46 32.9739 572.568 33.0165 573.512 34.467C573.739 34.8155 574.05 35.1006 574.417 35.2955L576.092 36.1843C577.994 37.1936 580.352 36.3486 581.179 34.361C581.659 33.2096 582.692 32.3822 583.921 32.1664L584.26 32.1068C586.419 31.8429 588.291 30.4897 589.218 28.5228L590.04 26.7785L591.859 23.1256C592.181 22.4789 592.685 21.9401 593.309 21.5755L594.069 21.1306C595.098 20.5293 596.404 20.7076 597.233 21.5625C597.799 22.1456 598.606 22.4292 599.412 22.3283L599.793 22.2807C600.22 22.2272 600.628 22.0679 600.978 21.8173L602.193 20.9489C603.038 20.3448 604.226 20.7478 604.529 21.741C604.986 23.2363 607.131 23.1499 607.466 21.6228L608.332 17.672C608.463 17.0713 608.805 16.5376 609.296 16.167L609.504 16.0101C610.903 14.9535 612.902 15.203 614.022 16.5515C614.215 16.7834 614.377 17.0433 614.5 17.3185L615.657 19.9039C616.171 21.052 617.578 21.4848 618.648 20.8235C619.897 20.0517 621.53 20.7818 621.788 22.2269L621.872 22.6943C622.311 25.1571 625.753 25.3911 626.522 23.0104L627.555 19.8112C627.872 18.8292 629.039 18.4214 629.899 18.9922C630.279 19.2448 630.53 19.6518 630.584 20.1055L632.41 35.4133C632.665 37.5533 633.798 39.4909 635.538 40.7625C636.03 41.1217 636.477 41.5374 636.872 42.0012L638.012 43.3426C638.397 43.7948 638.821 44.2118 639.279 44.5887L639.994 45.176C640.598 45.6725 641.258 46.0965 641.96 46.4392L643.758 47.3161C644.162 47.5132 644.52 47.7923 644.81 48.1358L645.292 48.7065C646.083 49.6426 647.451 49.8329 648.467 49.148C648.813 48.9153 649.091 48.5968 649.276 48.2238L650.444 45.866C651.247 44.2457 653.575 44.2936 654.31 45.9455C654.6 46.5951 655.193 47.0581 655.894 47.1808L656.28 47.2485C656.807 47.3407 657.348 47.2843 657.844 47.0857L659.135 46.5689C660 46.2228 660.986 46.4116 661.662 47.0522C662.386 47.7382 663.46 47.9016 664.354 47.4617L665.542 46.8782C667.352 45.9881 669.539 46.4817 670.792 48.0635L670.957 48.2723L672.193 50.0914C672.764 50.931 673.942 51.0795 674.703 50.4079C675.639 49.5813 677.118 50.0255 677.445 51.2315L678.525 55.2234C678.837 56.3779 679.856 57.201 681.051 57.2639C681.256 57.2747 681.46 57.3084 681.658 57.3644L682.89 57.7127C684.169 58.0744 685.363 58.6874 686.402 59.5159L687.14 60.1039L688.117 60.8016C688.993 61.4277 690.012 61.8252 691.081 61.958L692.443 62.1273C692.755 62.166 693.05 62.2914 693.294 62.4892C694.219 63.2397 695.61 62.8135 695.956 61.6732L696.945 58.4169C697.316 57.1953 698.307 56.2625 699.549 55.9667C700.485 55.7439 701.292 55.1551 701.79 54.3321L703.323 51.7982L705.204 48.8708C705.488 48.4283 705.864 48.0515 706.305 47.7655C707.895 46.7349 710.009 47.0745 711.199 48.5491C711.343 48.7271 711.503 48.8917 711.677 49.0401C712.899 50.0835 714.654 50.2233 716.026 49.3858L716.805 48.9104C717.06 48.7546 717.268 48.5324 717.407 48.2675C718.123 46.903 720.151 47.1735 720.485 48.6779L721.66 53.9862C721.764 54.4579 721.962 54.904 722.24 55.2987L724.207 58.0847C724.771 58.884 725.919 58.9837 726.613 58.2937C727.176 57.733 728.069 57.6784 728.696 58.1661L729.491 58.7832C729.768 58.9987 730.085 59.1584 730.423 59.2537L730.775 59.353C732.943 59.9643 735.234 58.9147 736.187 56.8739L736.531 56.1391C736.739 55.693 737.024 55.2868 737.372 54.9388L739.857 52.4563C740.654 51.6598 741.996 51.8709 742.511 52.8738L742.604 53.0566C743.136 54.0936 744.583 54.1867 745.243 53.2264C745.716 52.538 746.652 52.3527 747.352 52.8088L748.757 53.7248C749.263 54.0546 749.896 54.1263 750.463 53.918C751.29 53.614 752.219 53.9148 752.711 54.6466L753.715 56.1389C754.025 56.6006 754.424 56.996 754.889 57.3024L757.09 58.755C757.449 58.9916 757.89 59.0667 758.307 58.9619C759.192 58.7394 760.074 59.335 760.198 60.2388L761.803 71.9245C762.069 73.861 763.795 75.257 765.745 75.1124L766.593 75.0637C767.564 75.008 768.537 75.0942 769.483 75.3195L770.368 75.5303L772.499 76.2959C773.355 76.6034 774.298 76.5594 775.122 76.1735C775.789 75.8613 776.337 75.3437 776.688 74.6966L777.622 72.9721C778.166 71.9685 779.025 71.1715 780.066 70.704L781.144 70.2199C781.648 69.9936 782.048 69.5851 782.264 69.0764L782.49 68.544C783.153 66.9793 785.365 66.9628 786.051 68.5173C786.357 69.2088 787.036 69.66 787.792 69.6735L789.159 69.6978C789.708 69.7076 790.236 69.4881 790.617 69.092C791.495 68.1785 792.994 68.317 793.69 69.3758L794.056 69.9339C794.431 70.5047 795.023 70.8977 795.695 71.0221L796.22 71.1193C797.408 71.3393 798.417 72.1167 798.934 73.2088L799.85 75.1477C800.198 75.883 800.951 76.3399 801.764 76.3087C802.378 76.2851 802.948 75.9847 803.315 75.4916L806.036 71.834C806.147 71.6847 806.274 71.5485 806.416 71.428C807.535 70.4782 809.231 70.7145 810.047 71.9338L810.432 72.5087C810.691 72.8968 811.036 73.2206 811.44 73.4555L813.815 74.8376C814.132 75.0221 814.478 75.1512 814.839 75.2195L815.372 75.3203C816.139 75.4657 816.928 75.2036 817.456 74.6274C818.273 73.7354 819.648 73.6463 820.574 74.4252L821.664 75.3429C822.137 75.741 822.5 76.2544 822.716 76.8335L823.999 80.2605C824.324 81.1306 825.444 81.3672 826.094 80.7031C826.595 80.1908 827.421 80.1953 827.917 80.713L828.373 81.1895C829.346 82.2061 831.048 81.8541 831.538 80.5346L832.392 78.2374C832.65 77.5425 833.126 76.9494 833.748 76.5465L833.943 76.4203C834.691 75.936 835.587 75.734 836.471 75.8506L837.732 76.0172C838.252 76.0858 838.77 75.8773 839.097 75.4677C839.85 74.5242 841.353 74.8163 841.698 75.9732L842.796 79.6519C843.051 80.5071 843.623 81.2326 844.395 81.6805L845.612 82.3867C846.301 82.7863 846.882 83.3475 847.306 84.022L847.735 84.7051C848.49 85.9084 849.876 86.563 851.285 86.3824L857 86.3821" stroke="#EB0000" style="stroke:#EB0000;stroke:color(display-p3 0.9216 0.0000 0.0000);stroke-opacity:1;" stroke-width="10" stroke-linecap="round" stroke-linejoin="round"/>
<path d="M860 96C865.523 96 870 91.5228 870 86C870 80.4772 865.523 76 860 76C854.477 76 850 80.4772 850 86C850 91.5228 854.477 96 860 96Z" fill="#EB0000" style="fill:#EB0000;fill:color(display-p3 0.9216 0.0000 0.0000);fill-opacity:1;"/>
<path d="M860 186C865.523 186 870 181.523 870 176C870 170.477 865.523 166 860 166C854.477 166 850 170.477 850 176C850 181.523 854.477 186 860 186Z" fill="#0060FF" style="fill:#0060FF;fill:color(display-p3 0.0000 0.3764 1.0000);fill-opacity:1;"/>
<path d="M860 128C865.523 128 870 123.523 870 118C870 112.477 865.523 108 860 108C854.477 108 850 112.477 850 118C850 123.523 854.477 128 860 128Z" fill="#A8A8A8" style="fill:#A8A8A8;fill:color(display-p3 0.6588 0.6588 0.6588);fill-opacity:1;"/>
</g>
<defs>
<clipPath id="clip0_21_2">
<rect width="870" height="250" fill="white" style="fill:white;fill-opacity:1;"/>
</clipPath>
</defs>
</svg>
