<svg width="640" height="360" viewBox="0 0 640 360" fill="none" xmlns="http://www.w3.org/2000/svg">
<path d="M451.878 189.917V179.269L474.222 159.706C475.897 158.191 477.323 156.805 478.499 155.548C479.676 154.272 480.573 152.996 481.191 151.72C481.809 150.423 482.119 149.018 482.119 147.502C482.119 145.807 481.75 144.361 481.012 143.165C480.274 141.948 479.257 141.011 477.961 140.353C476.665 139.695 475.179 139.366 473.504 139.366C471.809 139.366 470.323 139.715 469.047 140.413C467.771 141.091 466.774 142.078 466.056 143.374C465.358 144.67 465.009 146.246 465.009 148.1H450.98C450.98 143.933 451.917 140.333 453.792 137.302C455.666 134.271 458.299 131.938 461.689 130.303C465.099 128.648 469.057 127.82 473.564 127.82C478.21 127.82 482.248 128.598 485.678 130.153C489.108 131.709 491.76 133.882 493.635 136.674C495.529 139.446 496.476 142.666 496.476 146.336C496.476 148.669 496.008 150.982 495.07 153.275C494.133 155.568 492.448 158.101 490.015 160.873C487.602 163.645 484.172 166.965 479.726 170.833L472.397 177.593V177.982H497.224V189.917H451.878Z" fill="#0000FF" style="fill:#0000FF;fill:color(display-p3 0.0000 0.0000 1.0000);fill-opacity:1;"/>
<path d="M393.056 179.747V168.201L418.152 128.658H428.412V144.332H422.459L407.773 167.603V168.082H444.115V179.747H393.056ZM422.639 189.917V176.218L422.938 171.162V128.658H436.787V189.917H422.639Z" fill="#0000FF" style="fill:#0000FF;fill:color(display-p3 0.0000 0.0000 1.0000);fill-opacity:1;"/>
<path d="M376.485 190.785C374.331 190.785 372.486 190.027 370.951 188.511C369.435 186.996 368.687 185.161 368.707 183.007C368.687 180.894 369.435 179.089 370.951 177.593C372.486 176.078 374.331 175.32 376.485 175.32C378.519 175.32 380.313 176.078 381.869 177.593C383.444 179.089 384.242 180.894 384.262 183.007C384.242 184.443 383.863 185.749 383.125 186.926C382.407 188.102 381.46 189.04 380.283 189.738C379.127 190.436 377.86 190.785 376.485 190.785Z" fill="#0000FF" style="fill:#0000FF;fill:color(display-p3 0.0000 0.0000 1.0000);fill-opacity:1;"/>
<path d="M338.407 190.755C335.057 190.755 331.846 190.216 328.775 189.139C325.704 188.043 322.972 186.308 320.579 183.935C318.186 181.542 316.302 178.411 314.926 174.542C313.55 170.654 312.872 165.918 312.892 160.334C312.912 155.289 313.53 150.762 314.747 146.754C315.963 142.726 317.698 139.306 319.951 136.495C322.225 133.683 324.937 131.539 328.087 130.063C331.258 128.568 334.797 127.82 338.706 127.82C342.993 127.82 346.772 128.658 350.043 130.333C353.333 131.988 355.965 134.221 357.939 137.033C359.913 139.825 361.08 142.936 361.439 146.365H346.872C346.433 144.431 345.466 142.965 343.97 141.968C342.495 140.951 340.74 140.443 338.706 140.443C334.957 140.443 332.155 142.068 330.301 145.319C328.466 148.569 327.529 152.916 327.489 158.36H327.878C328.715 156.526 329.922 154.95 331.497 153.634C333.073 152.318 334.877 151.311 336.911 150.613C338.965 149.895 341.139 149.536 343.432 149.536C347.101 149.536 350.342 150.384 353.153 152.079C355.965 153.774 358.169 156.097 359.764 159.048C361.359 161.979 362.147 165.34 362.127 169.128C362.147 173.396 361.15 177.165 359.136 180.435C357.122 183.685 354.33 186.218 350.76 188.033C347.211 189.847 343.093 190.755 338.407 190.755ZM338.317 179.388C340.132 179.388 341.757 178.959 343.193 178.102C344.629 177.244 345.755 176.078 346.573 174.602C347.39 173.127 347.789 171.462 347.769 169.607C347.789 167.732 347.39 166.067 346.573 164.612C345.775 163.156 344.658 161.999 343.223 161.142C341.807 160.284 340.182 159.856 338.347 159.856C337.011 159.856 335.765 160.105 334.608 160.603C333.451 161.102 332.444 161.8 331.587 162.697C330.749 163.575 330.091 164.612 329.613 165.808C329.134 166.985 328.885 168.261 328.865 169.637C328.885 171.452 329.304 173.097 330.121 174.572C330.939 176.048 332.056 177.225 333.471 178.102C334.887 178.959 336.502 179.388 338.317 179.388Z" fill="#0000FF" style="fill:#0000FF;fill:color(display-p3 0.0000 0.0000 1.0000);fill-opacity:1;"/>
<path d="M280.236 127.82C283.586 127.82 286.786 128.369 289.838 129.465C292.889 130.542 295.611 132.267 298.003 134.64C300.396 136.993 302.281 140.094 303.657 143.943C305.033 147.791 305.721 152.487 305.721 158.031C305.741 163.136 305.142 167.713 303.926 171.761C302.71 175.789 300.965 179.219 298.691 182.05C296.438 184.882 293.726 187.046 290.555 188.541C287.385 190.017 283.845 190.755 279.937 190.755C275.629 190.755 271.831 189.927 268.54 188.272C265.27 186.597 262.648 184.344 260.673 181.512C258.719 178.68 257.553 175.51 257.174 172H271.741C272.199 174.034 273.167 175.569 274.642 176.606C276.118 177.623 277.883 178.132 279.937 178.132C283.686 178.132 286.487 176.507 288.342 173.256C290.196 170.006 291.124 165.589 291.124 160.005H290.765C289.907 161.84 288.691 163.415 287.116 164.731C285.56 166.048 283.755 167.055 281.701 167.753C279.648 168.45 277.484 168.799 275.211 168.799C271.541 168.799 268.301 167.962 265.489 166.287C262.697 164.612 260.504 162.309 258.909 159.377C257.333 156.446 256.536 153.096 256.516 149.327C256.496 145.099 257.483 141.37 259.477 138.14C261.471 134.889 264.253 132.357 267.822 130.542C271.392 128.708 275.53 127.8 280.236 127.82ZM280.326 139.187C278.491 139.187 276.856 139.615 275.42 140.473C274.004 141.33 272.887 142.487 272.07 143.943C271.252 145.398 270.853 147.034 270.873 148.848C270.893 150.663 271.302 152.298 272.1 153.754C272.917 155.209 274.024 156.366 275.42 157.224C276.836 158.081 278.451 158.51 280.266 158.51C281.622 158.51 282.878 158.26 284.035 157.762C285.191 157.263 286.198 156.575 287.056 155.698C287.913 154.801 288.581 153.764 289.06 152.587C289.558 151.411 289.798 150.154 289.778 148.818C289.758 147.044 289.339 145.428 288.521 143.973C287.704 142.517 286.577 141.36 285.141 140.503C283.726 139.625 282.12 139.187 280.326 139.187Z" fill="#0000FF" style="fill:#0000FF;fill:color(display-p3 0.0000 0.0000 1.0000);fill-opacity:1;"/>
<path d="M224.181 190.755C219.415 190.755 215.158 189.997 211.409 188.481C207.68 186.946 204.748 184.872 202.615 182.26C200.501 179.627 199.444 176.656 199.444 173.346C199.444 170.813 200.052 168.49 201.268 166.376C202.485 164.263 204.13 162.508 206.204 161.112C208.298 159.696 210.631 158.789 213.203 158.39V157.911C209.833 157.293 207.071 155.728 204.918 153.215C202.784 150.703 201.717 147.761 201.717 144.391C201.717 141.201 202.684 138.359 204.619 135.866C206.573 133.374 209.235 131.409 212.605 129.974C215.995 128.538 219.854 127.82 224.181 127.82C228.508 127.82 232.357 128.538 235.727 129.974C239.117 131.409 241.779 133.374 243.713 135.866C245.668 138.359 246.645 141.201 246.645 144.391C246.645 147.781 245.558 150.733 243.384 153.245C241.231 155.738 238.489 157.293 235.159 157.911V158.39C237.711 158.789 240.024 159.696 242.098 161.112C244.192 162.508 245.847 164.263 247.064 166.376C248.3 168.49 248.918 170.813 248.918 173.346C248.918 176.656 247.851 179.627 245.718 182.26C243.584 184.872 240.652 186.946 236.923 188.481C233.214 189.997 228.967 190.755 224.181 190.755ZM224.181 180.256C225.996 180.256 227.591 179.917 228.967 179.239C230.343 178.541 231.42 177.573 232.197 176.337C232.995 175.101 233.394 173.705 233.394 172.149C233.394 170.554 232.995 169.138 232.197 167.902C231.4 166.666 230.303 165.698 228.907 165.001C227.531 164.283 225.956 163.924 224.181 163.924C222.426 163.924 220.851 164.283 219.455 165.001C218.059 165.698 216.962 166.666 216.165 167.902C215.367 169.138 214.968 170.554 214.968 172.149C214.968 173.705 215.357 175.101 216.135 176.337C216.932 177.554 218.019 178.511 219.395 179.209C220.791 179.907 222.386 180.256 224.181 180.256ZM224.181 153.484C225.736 153.484 227.112 153.165 228.309 152.527C229.525 151.889 230.472 151.002 231.15 149.865C231.848 148.728 232.197 147.442 232.197 146.006C232.197 144.571 231.848 143.304 231.15 142.208C230.472 141.111 229.535 140.253 228.339 139.635C227.142 138.997 225.756 138.678 224.181 138.678C222.626 138.678 221.24 138.997 220.023 139.635C218.807 140.253 217.86 141.111 217.182 142.208C216.504 143.304 216.165 144.571 216.165 146.006C216.165 147.442 216.504 148.728 217.182 149.865C217.88 150.982 218.837 151.869 220.053 152.527C221.27 153.165 222.645 153.484 224.181 153.484Z" fill="#0000FF" style="fill:#0000FF;fill:color(display-p3 0.0000 0.0000 1.0000);fill-opacity:1;"/>
<path d="M166.062 197.574V121H170.968V197.574H166.062ZM177.877 147.023C177.678 144.83 176.79 143.125 175.215 141.908C173.66 140.672 171.436 140.054 168.545 140.054C166.63 140.054 165.035 140.303 163.759 140.802C162.483 141.3 161.525 141.988 160.887 142.866C160.249 143.723 159.92 144.71 159.9 145.827C159.86 146.744 160.04 147.552 160.439 148.25C160.857 148.948 161.456 149.566 162.233 150.104C163.031 150.623 163.988 151.081 165.105 151.48C166.222 151.879 167.478 152.228 168.874 152.527L174.138 153.724C177.169 154.382 179.841 155.259 182.155 156.356C184.488 157.453 186.442 158.759 188.017 160.274C189.613 161.79 190.819 163.535 191.637 165.509C192.454 167.483 192.873 169.697 192.893 172.149C192.873 176.018 191.896 179.338 189.962 182.11C188.027 184.882 185.246 187.006 181.616 188.481C178.007 189.957 173.65 190.695 168.545 190.695C163.42 190.695 158.953 189.927 155.144 188.391C151.335 186.856 148.374 184.523 146.26 181.392C144.147 178.261 143.06 174.303 143 169.517H157.178C157.298 171.491 157.826 173.136 158.764 174.453C159.701 175.769 160.987 176.766 162.622 177.444C164.277 178.122 166.192 178.461 168.365 178.461C170.359 178.461 172.054 178.192 173.45 177.653C174.866 177.115 175.953 176.367 176.711 175.41C177.468 174.453 177.857 173.356 177.877 172.119C177.857 170.963 177.498 169.976 176.8 169.158C176.102 168.321 175.026 167.603 173.57 167.004C172.134 166.386 170.3 165.818 168.066 165.299L161.665 163.804C156.361 162.587 152.183 160.623 149.132 157.911C146.081 155.179 144.565 151.49 144.585 146.844C144.565 143.055 145.582 139.735 147.636 136.883C149.69 134.032 152.532 131.808 156.161 130.213C159.791 128.618 163.928 127.82 168.575 127.82C173.321 127.82 177.439 128.628 180.928 130.243C184.438 131.838 187.16 134.081 189.094 136.973C191.029 139.864 192.016 143.215 192.055 147.023H177.877Z" fill="#0000FF" style="fill:#0000FF;fill:color(display-p3 0.0000 0.0000 1.0000);fill-opacity:1;"/>
<path d="M495.382 223.1C495.382 226.379 494.939 229.401 494.052 232.166C493.166 234.923 491.784 237.484 489.905 239.85H483.603C484.321 238.973 484.981 237.905 485.584 236.646C486.196 235.388 486.723 234.01 487.166 232.512C487.618 231.014 487.968 229.463 488.216 227.859C488.473 226.255 488.602 224.668 488.602 223.1C488.602 220.999 488.385 218.885 487.95 216.758C487.516 214.622 486.922 212.646 486.169 210.829C485.416 209.003 484.56 207.506 483.603 206.336H489.905C491.784 208.702 493.166 211.268 494.052 214.033C494.939 216.789 495.382 219.812 495.382 223.1Z" fill="#0000FF" style="fill:#0000FF;fill:color(display-p3 0.0000 0.0000 1.0000);fill-opacity:1;"/>
<path d="M467.331 231.608V230.172C467.331 229.055 467.571 228.023 468.049 227.074C468.537 226.126 469.241 225.364 470.163 224.788C471.085 224.212 472.21 223.924 473.54 223.924C474.896 223.924 476.035 224.212 476.956 224.788C477.887 225.355 478.587 226.113 479.057 227.061C479.535 228 479.775 229.037 479.775 230.172V231.608C479.775 232.724 479.535 233.757 479.057 234.705C478.578 235.653 477.874 236.416 476.943 236.992C476.012 237.568 474.878 237.856 473.54 237.856C472.193 237.856 471.058 237.568 470.136 236.992C469.215 236.416 468.514 235.653 468.036 234.705C467.566 233.757 467.331 232.724 467.331 231.608ZM471.572 230.172V231.608C471.572 232.175 471.71 232.72 471.984 233.243C472.268 233.766 472.786 234.027 473.54 234.027C474.311 234.027 474.829 233.775 475.095 233.269C475.361 232.755 475.494 232.201 475.494 231.608V230.172C475.494 229.578 475.365 229.02 475.108 228.497C474.86 227.965 474.337 227.699 473.54 227.699C472.795 227.699 472.281 227.965 471.998 228.497C471.714 229.02 471.572 229.578 471.572 230.172ZM453.213 216.027V214.591C453.213 213.457 453.457 212.42 453.944 211.48C454.44 210.532 455.149 209.774 456.071 209.207C456.993 208.631 458.11 208.343 459.421 208.343C460.777 208.343 461.916 208.631 462.838 209.207C463.768 209.774 464.473 210.532 464.952 211.48C465.43 212.42 465.67 213.457 465.67 214.591V216.027C465.67 217.161 465.426 218.198 464.938 219.138C464.46 220.077 463.755 220.826 462.825 221.384C461.894 221.943 460.76 222.222 459.421 222.222C458.083 222.222 456.949 221.938 456.018 221.371C455.096 220.804 454.396 220.051 453.917 219.111C453.448 218.172 453.213 217.144 453.213 216.027ZM457.494 214.591V216.027C457.494 216.621 457.631 217.175 457.906 217.689C458.189 218.194 458.695 218.446 459.421 218.446C460.201 218.446 460.72 218.194 460.977 217.689C461.243 217.175 461.376 216.621 461.376 216.027V214.591C461.376 213.997 461.251 213.439 461.003 212.916C460.755 212.384 460.228 212.118 459.421 212.118C458.677 212.118 458.167 212.389 457.892 212.929C457.627 213.47 457.494 214.024 457.494 214.591ZM455.22 236.713L473.939 209.486H477.568L458.85 236.713H455.22Z" fill="#0000FF" style="fill:#0000FF;fill:color(display-p3 0.0000 0.0000 1.0000);fill-opacity:1;"/>
<path d="M437.143 209.114C438.632 209.114 440.055 209.357 441.411 209.845C442.767 210.323 443.977 211.09 445.04 212.145C446.104 213.191 446.941 214.569 447.553 216.279C448.164 217.99 448.47 220.077 448.47 222.541C448.479 224.81 448.213 226.844 447.672 228.643C447.132 230.433 446.356 231.957 445.346 233.216C444.344 234.475 443.139 235.436 441.73 236.101C440.321 236.757 438.748 237.085 437.011 237.085C435.096 237.085 433.408 236.717 431.945 235.981C430.492 235.237 429.327 234.235 428.449 232.977C427.581 231.718 427.062 230.309 426.894 228.749H433.368C433.572 229.653 434.002 230.336 434.657 230.796C435.313 231.248 436.098 231.474 437.011 231.474C438.677 231.474 439.922 230.752 440.746 229.308C441.57 227.863 441.983 225.9 441.983 223.418H441.823C441.442 224.234 440.901 224.934 440.201 225.519C439.51 226.104 438.708 226.551 437.795 226.861C436.882 227.172 435.92 227.327 434.91 227.327C433.279 227.327 431.839 226.954 430.589 226.21C429.349 225.465 428.374 224.442 427.665 223.139C426.965 221.836 426.61 220.347 426.601 218.672C426.592 216.793 427.031 215.136 427.917 213.7C428.804 212.256 430.04 211.13 431.626 210.323C433.213 209.508 435.052 209.105 437.143 209.114ZM437.183 214.165C436.368 214.165 435.641 214.356 435.003 214.737C434.374 215.118 433.878 215.632 433.514 216.279C433.151 216.926 432.974 217.653 432.982 218.459C432.991 219.266 433.173 219.993 433.527 220.64C433.891 221.287 434.383 221.801 435.003 222.182C435.632 222.563 436.35 222.753 437.157 222.753C437.759 222.753 438.318 222.643 438.832 222.421C439.346 222.2 439.793 221.894 440.175 221.504C440.556 221.105 440.853 220.644 441.065 220.121C441.287 219.598 441.393 219.04 441.384 218.446C441.375 217.657 441.189 216.94 440.826 216.293C440.463 215.646 439.962 215.131 439.324 214.75C438.694 214.36 437.981 214.165 437.183 214.165Z" fill="#0000FF" style="fill:#0000FF;fill:color(display-p3 0.0000 0.0000 1.0000);fill-opacity:1;"/>
<path d="M412.712 237.085C410.727 237.085 408.963 236.726 407.421 236.008C405.879 235.29 404.66 234.302 403.765 233.043C402.879 231.785 402.418 230.34 402.382 228.709H408.764C408.817 229.711 409.224 230.517 409.987 231.129C410.749 231.732 411.657 232.033 412.712 232.033C413.536 232.033 414.267 231.851 414.905 231.488C415.544 231.125 416.044 230.615 416.408 229.959C416.771 229.294 416.948 228.532 416.939 227.673C416.948 226.795 416.767 226.028 416.394 225.373C416.031 224.717 415.526 224.207 414.879 223.844C414.241 223.472 413.505 223.285 412.672 223.285C411.883 223.277 411.134 223.449 410.425 223.804C409.725 224.158 409.193 224.641 408.83 225.253L403.02 224.163L404.204 209.486H421.672V214.79H409.614L408.99 221.212H409.149C409.601 220.458 410.328 219.838 411.329 219.35C412.34 218.854 413.487 218.606 414.772 218.606C416.403 218.606 417.857 218.987 419.133 219.749C420.418 220.503 421.428 221.548 422.164 222.887C422.909 224.225 423.281 225.758 423.281 227.486C423.281 229.356 422.838 231.014 421.951 232.458C421.074 233.903 419.842 235.037 418.256 235.862C416.678 236.677 414.83 237.085 412.712 237.085Z" fill="#0000FF" style="fill:#0000FF;fill:color(display-p3 0.0000 0.0000 1.0000);fill-opacity:1;"/>
<path d="M394.702 237.098C393.745 237.098 392.925 236.761 392.243 236.088C391.569 235.414 391.237 234.599 391.246 233.642C391.237 232.702 391.569 231.9 392.243 231.235C392.925 230.562 393.745 230.225 394.702 230.225C395.606 230.225 396.404 230.562 397.095 231.235C397.795 231.9 398.15 232.702 398.159 233.642C398.15 234.28 397.981 234.86 397.653 235.383C397.334 235.906 396.913 236.323 396.39 236.633C395.876 236.943 395.314 237.098 394.702 237.098Z" fill="#0000FF" style="fill:#0000FF;fill:color(display-p3 0.0000 0.0000 1.0000);fill-opacity:1;"/>
<path d="M376.881 237.377C374.506 237.377 372.458 236.815 370.739 235.689C369.02 234.555 367.695 232.928 366.764 230.81C365.833 228.683 365.373 226.126 365.381 223.139C365.39 220.153 365.856 217.618 366.777 215.535C367.708 213.443 369.029 211.853 370.739 210.762C372.458 209.664 374.506 209.114 376.881 209.114C379.256 209.114 381.303 209.664 383.023 210.762C384.751 211.853 386.08 213.443 387.011 215.535C387.942 217.627 388.403 220.161 388.394 223.139C388.394 226.135 387.928 228.696 386.998 230.823C386.067 232.95 384.742 234.577 383.023 235.702C381.312 236.819 379.265 237.377 376.881 237.377ZM376.881 231.993C378.299 231.993 379.447 231.271 380.324 229.826C381.202 228.373 381.636 226.144 381.627 223.139C381.627 221.172 381.428 219.55 381.029 218.274C380.63 216.989 380.076 216.031 379.367 215.402C378.658 214.773 377.829 214.458 376.881 214.458C375.472 214.458 374.333 215.172 373.464 216.599C372.596 218.017 372.157 220.197 372.148 223.139C372.139 225.133 372.33 226.786 372.72 228.098C373.119 229.41 373.677 230.389 374.395 231.036C375.113 231.674 375.941 231.993 376.881 231.993Z" fill="#0000FF" style="fill:#0000FF;fill:color(display-p3 0.0000 0.0000 1.0000);fill-opacity:1;"/>
<path d="M351.007 237.085C348.933 237.085 347.094 236.73 345.49 236.021C343.895 235.304 342.636 234.315 341.714 233.057C340.793 231.798 340.323 230.349 340.305 228.71H346.926C346.952 229.303 347.143 229.831 347.497 230.292C347.852 230.744 348.335 231.098 348.946 231.355C349.558 231.612 350.254 231.741 351.034 231.741C351.813 231.741 352.5 231.603 353.094 231.329C353.697 231.045 354.167 230.659 354.503 230.172C354.84 229.676 355.004 229.108 354.995 228.47C355.004 227.832 354.822 227.265 354.45 226.769C354.078 226.272 353.551 225.887 352.868 225.612C352.195 225.337 351.397 225.2 350.475 225.2H347.83V220.52H350.475C351.282 220.52 351.991 220.387 352.602 220.122C353.223 219.856 353.706 219.483 354.051 219.005C354.397 218.517 354.565 217.959 354.557 217.33C354.565 216.718 354.419 216.182 354.118 215.721C353.825 215.251 353.413 214.888 352.881 214.631C352.359 214.374 351.751 214.246 351.06 214.246C350.333 214.246 349.673 214.374 349.079 214.631C348.494 214.888 348.029 215.251 347.683 215.721C347.338 216.191 347.156 216.736 347.138 217.356H340.85C340.868 215.735 341.32 214.308 342.206 213.076C343.093 211.835 344.298 210.864 345.822 210.164C347.356 209.464 349.101 209.114 351.06 209.114C353.01 209.114 354.725 209.455 356.205 210.138C357.685 210.82 358.837 211.751 359.661 212.929C360.486 214.099 360.898 215.424 360.898 216.904C360.907 218.438 360.406 219.701 359.396 220.693C358.394 221.686 357.105 222.297 355.527 222.528V222.741C357.636 222.989 359.227 223.671 360.3 224.788C361.381 225.905 361.917 227.3 361.908 228.976C361.908 230.553 361.443 231.953 360.512 233.176C359.591 234.391 358.305 235.348 356.657 236.048C355.017 236.739 353.134 237.085 351.007 237.085Z" fill="#0000FF" style="fill:#0000FF;fill:color(display-p3 0.0000 0.0000 1.0000);fill-opacity:1;"/>
<path d="M323.222 232.778V213.528H328.58V232.778H323.222ZM316.27 225.838V220.467H335.519V225.838H316.27Z" fill="#0000FF" style="fill:#0000FF;fill:color(display-p3 0.0000 0.0000 1.0000);fill-opacity:1;"/>
<path d="M300.5 223.1C300.5 219.812 300.943 216.789 301.829 214.033C302.715 211.268 304.098 208.702 305.977 206.336H312.278C311.569 207.213 310.909 208.281 310.297 209.54C309.686 210.798 309.154 212.176 308.702 213.674C308.259 215.172 307.909 216.723 307.652 218.327C307.404 219.931 307.28 221.522 307.28 223.1C307.28 225.191 307.497 227.305 307.931 229.441C308.365 231.568 308.959 233.544 309.712 235.37C310.466 237.187 311.321 238.68 312.278 239.85H305.977C304.098 237.484 302.715 234.923 301.829 232.166C300.943 229.401 300.5 226.379 300.5 223.1Z" fill="#0000FF" style="fill:#0000FF;fill:color(display-p3 0.0000 0.0000 1.0000);fill-opacity:1;"/>
</svg>
