<svg width="870" height="250" viewBox="0 0 870 250" fill="none" xmlns="http://www.w3.org/2000/svg">
<path d="M860 107C865.523 107 870 102.523 870 97C870 91.4772 865.523 87 860 87C854.477 87 850 91.4772 850 97C850 102.523 854.477 107 860 107Z" fill="#AAAAAA" style="fill:#AAAAAA;fill:color(display-p3 0.6667 0.6667 0.6667);fill-opacity:1;"/>
<path d="M860 24C865.523 24 870 19.5228 870 14C870 8.47715 865.523 4 860 4C854.477 4 850 8.47715 850 14C850 19.5228 854.477 24 860 24Z" fill="#00BB54" style="fill:#00BB54;fill:color(display-p3 0.0000 0.7343 0.3304);fill-opacity:1;"/>
<path d="M5 244H7.33409H14.3376H16.6717H19.0058H21.3399H23.674H30.6762H33.0116H37.6797H40.0138H47.0161H49.3502H54.0196V231.75H56.3537H63.356H65.6901H68.0242H72.6936H79.6959H82.0299H84.364H86.6981H89.0335H98.3698H100.704H103.038H105.372H112.376H114.71H117.044H119.378H121.712H128.715V219.499H131.05H133.384H135.718H138.052H145.055H147.389H149.724H152.058H154.392H163.729H166.063H168.397H170.732H177.734H180.069H182.403H184.737H187.071H194.074V207.249H196.408H198.743H201.077H203.411H210.414H212.748H215.082H217.417H219.751H226.753H229.088H231.422H233.756H236.091H243.093H245.427H247.762H250.096H252.43H259.433H261.767V195H264.101H266.435H268.77H275.773H278.107H280.441H282.775H285.109H292.113H294.447H296.781H299.115H308.452H310.787H313.121H315.455H317.789H324.791H327.126H329.461H331.795V182.75H334.129H341.131H343.465H345.801H348.135H350.469H357.471H359.805H362.139H364.475H366.809H373.811H376.145H378.479H380.813H383.149H392.485H394.819H397.153H399.487H406.491V170.5H408.825H411.159H413.493H415.827H422.831H425.165H427.499H429.833H432.167H439.171H441.505H443.839H448.507H455.509H457.845H460.179H462.513H464.847H471.849H474.183V158.25H476.518H478.853H488.189H490.523H492.857H495.192H497.527H504.529H506.863H509.197H511.531H513.866H520.869H523.203H525.537H527.871H530.206H537.209H539.543H541.877H544.211H546.545V146H553.548H555.883H558.217H560.551H562.885H569.888H572.222H574.556H576.891H579.225H586.228H588.562H590.896H593.23H595.565H602.567H604.902H607.236H609.57H611.904H621.241V133.751H623.576H625.91H628.244H635.247H637.581H639.915H642.25H644.584H651.586H653.921H656.255H658.589H660.924H667.926H670.26H672.594H674.929H677.263H684.266H686.6H688.934V121.5H691.268H693.603H700.606H702.94H705.274H707.608H709.942H716.946H719.28H721.614H723.948H726.282H733.286H735.62H737.954H740.288H742.622H749.624H751.96H754.294H756.628H758.962H765.964V109.25H768.298H770.634H772.968H775.302H782.304H784.638H786.972H789.308H791.642H798.644H800.978H803.312H805.646H807.982H814.984H817.318H819.652H824.32H831.324V97H833.658H835.992H838.326H840.66H847.664H849.998H852.332H854.666H857" stroke="#AAAAAA" style="stroke:#AAAAAA;stroke:color(display-p3 0.6667 0.6667 0.6667);stroke-opacity:1;" stroke-width="10" stroke-linecap="round" stroke-linejoin="round"/>
<path d="M5 243.543C5.77761 243.627 6.55648 243.713 7.33409 243.713C9.66818 243.713 12.0023 243.68 14.3376 243.68C15.1152 243.68 15.8928 243.697 16.6717 243.733C17.4493 243.769 18.2269 244 19.0058 244C19.7834 244 20.5623 243.994 21.3399 243.981C22.1175 243.969 22.8964 243.838 23.674 243.838C26.0081 243.838 28.3421 243.903 30.6762 243.903C31.4551 243.903 32.2327 243.888 33.0116 243.877C34.5668 243.853 36.1233 243.783 37.6797 243.783C38.4574 243.783 39.2362 243.869 40.0138 243.878C42.3479 243.908 44.682 243.922 47.0161 243.922C47.795 243.922 48.5726 243.894 49.3502 243.836C50.9067 243.722 52.4631 229.51 54.0196 229.51C54.7972 229.51 55.5748 229.724 56.3537 229.732C58.6878 229.754 61.0219 229.767 63.356 229.767C64.1348 229.767 64.9125 229.66 65.6901 229.609C66.4689 229.557 67.2465 229.507 68.0242 229.459C69.5806 229.364 71.1371 229.19 72.6936 229.19C75.0277 229.19 77.3618 229.473 79.6959 229.473C80.4735 229.473 81.2523 229.386 82.0299 229.325C82.8088 229.265 83.5864 229.181 84.364 229.112C85.1429 229.045 85.9205 228.916 86.6981 228.916C87.477 228.916 88.2546 229.069 89.0335 229.069C92.1452 229.069 95.2581 228.814 98.3698 228.625C99.1474 228.578 99.9263 228.475 100.704 228.475C101.483 228.475 102.26 228.517 103.038 228.517C103.817 228.517 104.594 228.336 105.372 228.336C107.707 228.336 110.042 228.641 112.376 228.641C113.153 228.641 113.932 228.389 114.71 228.389C115.487 228.389 116.266 228.502 117.044 228.502C117.821 228.502 118.6 228.099 119.378 228.06C120.157 228.021 120.934 228.041 121.712 228.002C124.046 227.885 126.381 214.571 128.715 213.705C129.493 213.416 130.271 213.389 131.05 213.272C131.827 213.154 132.606 212.996 133.384 212.996C134.161 212.996 134.94 213.115 135.718 213.115C136.495 213.115 137.274 213.076 138.052 213.035C140.386 212.912 142.72 212.279 145.055 212.279C145.833 212.279 146.611 212.445 147.389 212.445C148.167 212.445 148.945 212.429 149.724 212.398C150.501 212.365 151.28 211.95 152.058 211.95C152.835 211.95 153.614 212.631 154.392 212.631C157.505 212.631 160.616 211.953 163.729 211.884C164.507 211.867 165.285 211.867 166.063 211.859C166.841 211.851 167.619 211.836 168.397 211.836C169.175 211.836 169.954 211.878 170.732 211.878C173.066 211.878 175.4 211.63 177.734 211.63C178.513 211.63 179.29 212.237 180.069 212.237C180.847 212.237 181.624 212.167 182.403 212.167C183.181 212.167 183.958 212.698 184.737 212.86C185.515 213.022 186.294 213.141 187.071 213.141C189.406 213.141 191.74 199.446 194.074 198.416C194.853 198.072 195.63 197.983 196.408 197.901C197.187 197.818 197.964 197.776 198.743 197.776C199.521 197.776 200.298 198.08 201.077 198.08C201.855 198.08 202.632 198.049 203.411 198.049C205.745 198.049 208.08 198.572 210.414 198.572C211.192 198.572 211.97 198.038 212.748 197.879C213.527 197.719 214.304 197.791 215.082 197.618C215.861 197.445 216.638 196.569 217.417 196.552C218.195 196.536 218.972 196.542 219.751 196.528C222.085 196.481 224.419 196.417 226.753 196.197C227.531 196.122 228.31 195.641 229.088 195.479C229.866 195.316 230.644 195.223 231.422 195.223C232.201 195.223 232.978 195.249 233.756 195.304C234.535 195.357 235.312 195.744 236.091 195.805C238.425 195.989 240.759 196.082 243.093 196.082C243.871 196.082 244.65 195.81 245.427 195.81C246.205 195.81 246.984 195.861 247.762 195.861C248.54 195.861 249.318 195.248 250.096 195.032C250.874 194.817 251.652 194.709 252.43 194.569C254.765 194.144 257.099 194.266 259.433 193.661C260.211 193.46 260.99 179.756 261.767 179.65C262.545 179.544 263.324 179.489 264.101 179.489C264.879 179.489 265.658 179.647 266.435 179.962C267.214 180.276 267.992 181.417 268.77 181.779C271.104 182.866 273.439 183.411 275.773 183.411C276.551 183.411 277.328 183.275 278.107 183.007C278.885 182.737 279.664 181.019 280.441 180.245C281.219 179.469 281.998 178.921 282.775 178.352C283.553 177.785 284.332 176.839 285.109 176.839C287.444 176.839 289.778 177.3 292.113 177.3C292.891 177.3 293.668 177.159 294.447 176.88C295.225 176.599 296.002 174.25 296.781 174.25C297.559 174.25 298.338 174.616 299.115 174.616C302.227 174.616 305.34 172.046 308.452 172.046C309.23 172.046 310.008 172.722 310.787 173.262C311.565 173.802 312.342 175.286 313.121 175.286C313.899 175.286 314.676 174.087 315.455 174.087C316.233 174.087 317.012 174.994 317.789 174.994C320.123 174.994 322.457 173.816 324.791 173.816C325.57 173.816 326.348 174.393 327.126 174.633C327.904 174.872 328.682 175.254 329.461 175.254C330.239 175.254 331.016 162.938 331.795 162.827C332.573 162.717 333.35 162.773 334.129 162.662C336.463 162.329 338.797 161.716 341.131 159.823C341.91 159.193 342.688 157.082 343.465 157.082C344.244 157.082 345.022 158.014 345.801 158.59C346.578 159.166 347.356 160.542 348.135 160.542C348.912 160.542 349.69 159.836 350.469 159.836C352.803 159.836 355.137 162.595 357.471 162.595C358.25 162.595 359.028 162.19 359.805 162.19C360.584 162.19 361.362 164.198 362.139 164.198C362.918 164.198 363.696 162.706 364.475 162.706C365.252 162.706 366.03 163.855 366.809 163.855C369.143 163.855 371.477 163.452 373.811 162.646C374.589 162.378 375.368 161.29 376.145 160.876C376.924 160.462 377.702 160.162 378.479 160.162C379.258 160.162 380.036 161.026 380.813 161.026C381.592 161.026 382.37 158.908 383.149 158.908C386.26 158.908 389.373 160.237 392.485 160.582C393.263 160.67 394.042 160.802 394.819 160.802C395.598 160.802 396.376 160.229 397.153 160.229C397.932 160.229 398.71 160.87 399.487 160.87C401.823 160.87 404.157 144.158 406.491 144.158C407.268 144.158 408.047 145.164 408.825 145.164C409.603 145.164 410.381 144.439 411.159 144.439C411.937 144.439 412.715 144.662 413.493 145.011C414.272 145.357 415.05 146.522 415.827 146.522C418.161 146.522 420.497 146.063 422.831 145.997C423.608 145.976 424.386 145.987 425.165 145.965C425.942 145.943 426.721 145.693 427.499 145.36C428.277 145.026 429.055 144.445 429.833 143.965C430.611 143.484 431.389 142.475 432.167 142.475C434.501 142.475 436.835 144.118 439.171 144.118C439.948 144.118 440.726 144.06 441.505 144.06C442.282 144.06 443.06 144.656 443.839 144.672C445.395 144.703 446.95 144.719 448.507 144.719C450.841 144.719 453.175 144.374 455.509 144.374C456.288 144.374 457.066 146.154 457.845 146.154C458.622 146.154 459.4 145.815 460.179 145.815C460.956 145.815 461.734 145.857 462.513 145.94C463.29 146.022 464.069 147.965 464.847 147.965C467.181 147.965 469.515 147.526 471.849 146.65C472.628 146.357 473.406 131.986 474.183 131.52C474.962 131.055 475.74 130.822 476.518 130.822C477.296 130.822 478.074 131.689 478.853 131.689C481.964 131.689 485.077 131.594 488.189 131.594C488.968 131.594 489.745 132.912 490.523 132.912C491.302 132.912 492.079 132.493 492.857 132.353C493.636 132.214 494.414 132.261 495.192 132.075C495.97 131.887 496.748 130.868 497.527 130.868C499.861 130.868 502.195 131.022 504.529 131.331C505.306 131.435 506.085 131.856 506.863 131.856C507.642 131.856 508.419 131.228 509.197 131.228C509.976 131.228 510.753 131.503 511.531 131.503C512.31 131.503 513.088 131.311 513.866 131.175C516.201 130.768 518.535 130.307 520.869 129.231C521.646 128.872 522.425 128.014 523.203 128.014C523.982 128.014 524.759 129.222 525.537 129.62C526.316 130.02 527.093 130.078 527.871 130.404C528.65 130.732 529.427 131.4 530.206 131.581C532.54 132.126 534.874 132.398 537.209 132.398C537.986 132.398 538.765 132.053 539.543 132.053C540.32 132.053 541.099 134.223 541.877 134.223C542.656 134.223 543.433 133.95 544.211 133.403C544.99 132.855 545.767 116.925 546.545 116.742C548.88 116.194 551.214 116.075 553.548 115.921C554.326 115.869 555.105 115.807 555.883 115.807C556.66 115.807 557.439 116.108 558.217 116.108C558.994 116.108 559.773 114.914 560.551 114.914C561.33 114.914 562.107 114.925 562.885 114.945C565.219 115.009 567.554 116.742 569.888 116.997C570.666 117.082 571.444 117.125 572.222 117.125C573 117.125 573.779 116.697 574.556 116.697C575.334 116.697 576.113 117.59 576.891 117.59C577.668 117.59 578.447 117.507 579.225 117.507C581.559 117.507 583.893 117.581 586.228 117.727C587.006 117.776 587.783 118.492 588.562 118.492C589.34 118.492 590.117 117.084 590.896 117.084C591.674 117.084 592.453 117.571 593.23 117.571C594.008 117.571 594.787 116.072 595.565 116.072C597.899 116.072 600.233 116.414 602.567 116.414C603.346 116.414 604.123 115.579 604.902 115.388C605.68 115.196 606.457 115.292 607.236 115.101C608.014 114.909 608.791 114.45 609.57 114.042C610.348 113.635 611.127 113.32 611.904 112.656C615.016 110.006 618.129 97.6184 621.241 95.089C622.02 94.4566 622.797 93.8164 623.576 93.8164C624.354 93.8164 625.131 94.5409 625.91 94.5409C626.688 94.5409 627.465 92.7812 628.244 92.3628C630.578 91.1075 632.912 90.4798 635.247 90.4798C636.025 90.4798 636.803 90.8592 637.581 90.8592C638.36 90.8592 639.137 90.2612 639.915 90.2612C640.694 90.2612 641.471 90.5095 642.25 90.5095C643.028 90.5095 643.805 90.3112 644.584 90.18C646.918 89.7881 649.252 88.8372 651.586 88.4375C652.364 88.3048 653.143 88.0987 653.921 88.0987C654.699 88.0987 655.477 89.0761 656.255 89.4071C657.033 89.7366 657.811 90.0801 658.589 90.0801C659.368 90.0801 660.145 88.8294 660.924 88.3032C663.258 86.7247 665.592 86.1439 667.926 85.371C668.704 85.1149 669.483 84.6668 670.26 84.6668C671.038 84.6668 671.817 86.236 672.594 86.236C673.373 86.236 674.151 85.8066 674.929 85.5209C675.707 85.2367 676.485 84.8557 677.263 84.5278C679.598 83.5442 681.932 83.0367 684.266 81.6705C685.044 81.2162 685.823 81.1709 686.6 80.1685C687.378 79.1661 688.157 65.7508 688.934 65.7508C689.713 65.7508 690.491 66.4191 691.268 66.4191C692.047 66.4191 692.825 65.3667 693.603 64.8827C695.938 63.4275 698.272 62.3111 700.606 61.2494C701.384 60.8949 702.163 60.9105 702.94 60.236C703.718 59.56 704.497 56.979 705.274 56.979C706.052 56.979 706.831 60.6826 707.608 60.6826C708.387 60.6826 709.165 59.3258 709.942 58.6934C712.276 56.7979 714.612 55.3521 716.946 53.8578C717.724 53.3598 718.501 53.238 719.28 52.4026C720.058 51.5673 720.836 50.2511 721.614 48.8443C722.392 47.4375 723.171 43.9603 723.948 43.9603C724.726 43.9603 725.505 47.9824 726.282 47.9824C728.616 47.9824 730.95 40.3489 733.286 40.3489C734.063 40.3489 734.841 54.3169 735.62 54.3169C736.397 54.3169 737.175 54.3091 737.954 54.295C738.732 54.281 739.51 53.48 740.288 53.48C741.066 53.48 741.845 53.836 742.622 54.1654C744.956 55.1507 747.29 58.2953 749.624 59.8316C750.403 60.3422 751.181 60.8887 751.96 61.2494C752.737 61.6085 753.515 61.9926 754.294 61.9926C755.071 61.9926 755.849 58.1485 756.628 58.1485C757.406 58.1485 758.184 59.2321 758.962 59.2321C761.296 59.2321 763.63 44.7379 765.964 44.7379C766.743 44.7379 767.521 48.468 768.298 48.468C769.077 48.468 769.855 46.0494 770.634 46.0494C771.411 46.0494 772.189 46.3039 772.968 46.3039C773.745 46.3039 774.523 45.4951 775.302 45.0095C777.636 43.5559 779.97 40.3254 782.304 39.195C783.083 38.8187 783.861 38.9077 784.638 38.3347C785.417 37.7617 786.195 34.8013 786.972 34.8013C787.751 34.8013 788.529 35.6366 789.308 36.6031C790.085 37.5681 790.863 40.0397 791.642 40.5924C793.976 42.2522 796.31 43.0813 798.644 43.0813C799.422 43.0813 800.201 41.7572 800.978 41.5214C801.757 41.2872 802.535 41.1701 803.312 41.1701C804.091 41.1701 804.869 41.1904 805.646 41.2342C806.425 41.2763 807.203 41.5683 807.982 41.5683C810.316 41.5683 812.65 38.1442 814.984 38.1442C815.762 38.1442 816.54 38.2129 817.318 38.2129C818.096 38.2129 818.875 37.0013 819.652 36.4579C821.209 35.3728 822.765 35.5414 824.32 33.7099C826.656 30.9603 828.99 18.4912 831.324 18.4912C832.101 18.4912 832.88 19.884 833.658 20.0323C834.436 20.1791 835.214 20.2525 835.992 20.2525C836.77 20.2525 837.548 20.0994 838.326 20.0994C839.105 20.0994 839.883 20.3992 840.66 20.5226C842.994 20.8926 845.33 21.1487 847.664 21.1487C848.441 21.1487 849.219 20.3055 849.998 19.9339C850.775 19.5623 851.554 19.5186 852.332 18.9206C853.109 18.3242 853.888 17.0032 854.666 16.349C855.444 15.6964 856.222 15.3482 857 15" stroke="#00BB54" style="stroke:#00BB54;stroke:color(display-p3 0.0000 0.7343 0.3304);stroke-opacity:1;" stroke-width="10" stroke-linecap="round" stroke-linejoin="round"/>
</svg>
