<svg width="640" height="360" viewBox="0 0 640 360" fill="none" xmlns="http://www.w3.org/2000/svg">
<path d="M252.597 120C260.501 120 267.746 121.173 274.333 123.52C280.993 125.793 286.994 128.8 292.336 132.54C297.752 136.207 302.509 140.093 306.607 144.2C309.242 146.62 311.657 149.113 313.852 151.68C316.121 154.247 318.244 156.74 320.22 159.16C321.976 156.74 323.842 154.357 325.818 152.01C327.794 149.663 330.319 147.06 333.393 144.2C339.54 138.04 347.115 132.467 356.117 127.48C365.192 122.493 375.767 120 387.842 120C398.966 120 409.066 122.713 418.141 128.14C427.289 133.493 434.534 140.753 439.877 149.92C445.292 159.013 448 169.133 448 180.28C448 188.713 446.427 196.633 443.28 204.04C440.206 211.373 435.925 217.827 430.436 223.4C424.947 228.9 418.543 233.227 411.225 236.38C403.979 239.46 396.185 241 387.842 241C379.792 241 372.4 239.863 365.667 237.59C359.007 235.243 352.97 232.273 347.554 228.68C342.212 225.013 337.491 221.2 333.393 217.24C330.758 214.6 328.343 211.997 326.148 209.43C323.952 206.79 321.976 204.26 320.22 201.84C318.244 204.26 316.121 206.79 313.852 209.43C311.657 211.997 309.242 214.6 306.607 217.24C302.509 221.2 297.752 225.013 292.336 228.68C286.994 232.273 280.993 235.243 274.333 237.59C267.746 239.863 260.501 241 252.597 241C241.326 241 231.117 238.287 221.969 232.86C212.821 227.433 205.539 220.137 200.123 210.97C194.708 201.803 192 191.573 192 180.28C192 171.92 193.537 164.11 196.611 156.85C199.758 149.517 204.075 143.1 209.564 137.6C215.126 132.1 221.567 127.81 228.885 124.73C236.277 121.577 244.181 120 252.597 120ZM217.029 180.28C217.029 186.88 218.603 192.893 221.75 198.32C224.97 203.673 229.251 207.963 234.593 211.19C240.009 214.343 246.01 215.92 252.597 215.92C259.842 215.92 266.465 214.27 272.467 210.97C278.468 207.67 283.993 203.6 289.043 198.76C292.336 195.46 295.227 192.27 297.715 189.19C300.204 186.11 302.436 183.14 304.412 180.28C302.436 177.64 300.24 174.817 297.825 171.81C295.483 168.73 292.556 165.54 289.043 162.24C284.213 157.4 278.724 153.33 272.576 150.03C266.502 146.73 259.842 145.08 252.597 145.08C246.01 145.08 240.009 146.693 234.593 149.92C229.251 153.073 224.97 157.327 221.75 162.68C218.603 167.96 217.029 173.827 217.029 180.28ZM422.971 180.28C422.971 173.827 421.361 167.96 418.141 162.68C414.994 157.327 410.749 153.073 405.407 149.92C400.137 146.693 394.282 145.08 387.842 145.08C382.866 145.08 378.182 145.85 373.791 147.39C369.4 148.857 365.301 150.91 361.496 153.55C357.69 156.117 354.177 159.013 350.957 162.24C347.005 165.98 343.712 169.61 341.077 173.13C338.516 176.577 336.686 178.96 335.588 180.28C337.564 183.14 339.796 186.11 342.285 189.19C344.773 192.27 347.664 195.46 350.957 198.76C356.007 203.6 361.532 207.67 367.533 210.97C373.608 214.27 380.377 215.92 387.842 215.92C394.282 215.92 400.137 214.343 405.407 211.19C410.749 207.963 414.994 203.673 418.141 198.32C421.361 192.893 422.971 186.88 422.971 180.28Z" fill="#0000FF" style="fill:#0000FF;fill:color(display-p3 0.0000 0.0000 1.0000);fill-opacity:1;"/>
</svg>
