<svg xmlns="http://www.w3.org/2000/svg" viewBox="0 0 1400 1400">
  <path fill="#333" d="M245.39 485.75H527.3v49.02H245.39zM677.39 908.29c82.23 0 149.12-66.19 149.12-147.54s-66.9-147.54-149.12-147.54-149.12 66.19-149.12 147.54 66.9 147.54 149.12 147.54zm0-242.54c52.63 0 95.45 42.62 95.45 95s-42.82 95-95.45 95-95.45-42.62-95.45-95 42.82-95 95.45-95zM246.34 616.19l139.94 294.25 140-294.25h-59.27l-80.73 173.59-80.62-173.59zM878.01 485.75h54.43v419.71h-54.43z"></path>
  <path class="logo-ring" fill="#333" d="M700 1360.71c364.57 0 661.18-296.39 661.18-660.71 0-364.32-296.61-660.71-661.18-660.71C335.42 39.29 38.82 335.68 38.82 700c0 364.32 296.6 660.71 661.18 660.71zm0-1272.26c337.47 0 612.02 274.34 612.02 611.55S1037.47 1311.55 700 1311.55 87.98 1037.21 87.98 700 362.53 88.45 700 88.45z"></path>
  <path fill="#333" d="M1030.21 538.28v77.88h-47.27v49.02h47.27v240.27h54.43V665.19h23.62c12.47 0 23.68-7.26 29.25-18.95l14.32-30.07h-67.19v-77.88h-54.43z"></path>
</svg>