<svg viewBox="0 0 1400 1400" xmlns="http://www.w3.org/2000/svg"><g fill="#333"><path d="m245.39 485.75h281.91v49.02h-281.91zm432 422.54c82.23 0 149.12-66.19 149.12-147.54s-66.9-147.54-149.12-147.54-149.12 66.19-149.12 147.54 66.9 147.54 149.12 147.54zm0-242.54c52.63 0 95.45 42.62 95.45 95s-42.82 95-95.45 95-95.45-42.62-95.45-95 42.82-95 95.45-95zm-431.05-49.56 139.94 294.25 140-294.25h-59.27l-80.73 173.59-80.62-173.59zm631.67-130.44h54.43v419.71h-54.43z"/><path d="m700 1360.71c364.57 0 661.18-296.39 661.18-660.71s-296.61-660.71-661.18-660.71c-364.58 0-661.18 296.39-661.18 660.71s296.6 660.71 661.18 660.71zm0-1272.26c337.47 0 612.02 274.34 612.02 611.55s-274.55 611.55-612.02 611.55-612.02-274.34-612.02-611.55 274.55-611.55 612.02-611.55z"/><path d="m1030.21 538.28v77.88h-47.27v49.02h47.27v240.27h54.43v-240.26h23.62c12.47 0 23.68-7.26 29.25-18.95l14.32-30.07h-67.19v-77.88h-54.43z"/></g></svg>