<svg viewBox="0 0 640 360" fill="none" xmlns="http://www.w3.org/2000/svg">
<path d="M316.094 255C314.661 246.536 310.885 237.422 304.766 227.656C298.646 217.76 289.922 208.581 278.594 200.117C267.396 191.654 256.198 186.25 245 183.906V175.703C256.068 173.099 266.68 168.281 276.836 161.25C287.122 154.089 295.716 145.495 302.617 135.469C309.648 125.182 314.141 115.026 316.094 105H324.297C325.469 111.51 327.813 118.216 331.328 125.117C334.844 131.888 339.336 138.398 344.805 144.648C350.404 150.768 356.654 156.302 363.555 161.25C373.841 168.542 384.323 173.359 395 175.703V183.906C387.839 185.339 380.417 188.268 372.734 192.695C365.182 197.122 358.151 202.396 351.641 208.516C345.13 214.505 339.792 220.82 335.625 227.461C329.505 237.227 325.729 246.406 324.297 255H316.094Z" fill="#0000FF"/>
</svg>
