<svg width="870" height="250" viewBox="0 0 870 250" fill="none" xmlns="http://www.w3.org/2000/svg">
<path d="M8.04663 238.497H10.3504L13.5619 237.71L16.0846 240.779L18.6084 241.697L21.5907 240.368L24.1134 242L26.6372 240.682L29.6183 238.752L32.1421 237.621L34.6648 237.423L37.6471 237.713L40.1709 236.549L42.6936 237.2L45.6759 237.065L48.1985 236.267L50.7223 235.902L53.7035 236.551L56.2273 236.065L58.75 234.882L61.7322 234.467L64.2561 234.129L66.7787 234.17L69.761 234.073L72.2837 235.277L74.8075 234.98L77.7898 234.443L80.3124 235.067L82.8363 234.79L85.8174 235.054L88.3412 233.776L90.8639 233.21L93.8462 231.95L96.3688 231.765L98.8926 231.882L102.104 231.629L105.086 231.303L107.609 230.376L110.133 229.203L113.114 228.895L115.638 228.828L118.161 229.238L121.143 229.214L123.667 229.385L126.189 228.399L129.172 228.056L131.694 227.691L134.218 227.333L137.199 226.712L139.723 227.396L142.246 227.307L145.228 226.188L147.752 226.04L150.274 226.251L153.257 226.713L155.779 226.264L158.303 225.125L161.285 224.565L163.808 223.933L166.332 223.543L169.313 222.977L171.837 223.21L174.36 222.026L177.342 221.171L179.866 220.561L182.388 220.228L185.6 218.281L188.582 216.423L191.105 221.979L193.629 219.614L196.61 219.408L199.134 218.673L201.656 221.988L204.639 221.915L207.162 220.483L209.685 220.896L212.667 218.962L215.19 219.15L217.714 218.401L220.695 217.78L223.219 218.981L225.741 217.219L228.724 216.866L231.247 216.017L233.77 215.978L236.752 214.547L239.275 215.082L241.799 214.253L244.781 213.734L247.304 217.589L249.828 218.209L252.809 218.222L255.333 218.153L257.855 219.467L260.838 220.539L263.361 225.931L266.113 223.561L268.866 221.792L271.389 219.714L273.913 217.894L277.124 216.734L280.105 216.353L282.629 215.545L285.152 215.631L288.134 213.698L291.346 213.33L293.868 212.399L296.392 215.039L299.604 215.825L302.586 213.657L305.109 212.032L307.633 211.429L310.614 210.357L313.137 210.031L315.66 213.596L318.642 212.446L321.165 212.414L323.689 210.984L326.671 210.612L329.194 211.584L331.718 210.456L334.699 209.327L337.223 207.923L339.745 207.195L342.728 207.241L345.251 205.84L347.774 204.436L350.756 203.835L353.279 201.724L355.803 202.987L358.785 201.05L361.308 201.331L363.832 209.674L366.813 225.137L369.337 221.204L371.859 218.231L374.841 214.047L377.364 213.783L379.888 212.795L383.099 209.594L386.082 203.503L388.604 206.861L391.128 206.879L394.109 205.294L396.633 203.727L399.156 201.393L402.138 199.387L404.661 196.166L407.185 200.587L410.167 201.827L412.69 200.073L415.213 195.926L418.195 198.662L420.718 195.898L423.241 193.233L426.223 192.872L428.747 191.785L431.27 191.127L434.252 190.711L436.775 188.942L439.299 186.869L442.281 185.12L444.803 185.253L447.327 186.158L450.308 183.616L452.832 183.383L455.355 180.794L458.337 178.42L460.86 177.908L463.384 178.666L466.366 177.417L468.889 176.527L471.412 176.037L474.394 174.897L476.917 172.823L479.44 173.995L482.422 172.272L484.946 170.129L487.469 169.593L490.68 168.706L493.663 172.807H496.185L498.709 172.908L501.69 167.274L504.214 163.904L506.737 163.706L509.719 164.881L512.243 163.3L514.765 164.878L517.748 161.043L520.27 164.443L522.794 172.298L525.777 168.989L528.299 172.347L530.823 173.463L533.804 176.859L536.328 167.189L538.851 167.604L541.833 171.03L544.356 177.811L546.879 181.177L549.862 181.752L552.384 178.168L554.908 187.772L557.889 183.501L560.413 183.472L562.936 182.525L565.918 177.669L568.442 173.388L570.965 177.273L574.176 182.915L577.158 183.101L579.681 191.322L582.205 191.218L585.186 185.657L587.71 186.306L590.232 180.468L593.215 181.118L595.739 181.813L598.261 184.725L601.473 184.634L604.684 180.124L607.666 179.393L610.189 177.434L612.713 179.801L615.694 178.381L618.218 181.789L620.741 180.311L623.723 176.603L626.247 175.959L628.769 176.271L631.752 175.708L634.274 173.857L636.798 171.708L640.01 168.799L642.991 166.984L645.515 165.62L648.037 163.94L651.02 165.239L653.543 169.005L656.066 165.656L659.048 165.819L661.571 170.203L664.095 172.549L667.077 168.713L669.6 175.48L672.122 168.489L675.105 163.807L677.629 162.517L680.151 161.117L683.363 157.557L686.345 157.839L688.868 155.747L691.391 153.445L694.374 150.73L696.896 148.882L699.42 149.066L702.401 147.08L705.613 144.548L708.137 147.626L710.659 149.013L713.642 146.116L716.164 142.607L718.688 142.481L721.67 140.929L724.193 138.182L726.717 136.851L729.698 133.443L732.222 138.086L734.744 144.086L737.727 133.961L740.249 132.875L742.773 136.919L745.756 130.778L748.278 129.86L750.802 127.992L753.783 127.713L756.307 122.983L758.83 125.122L761.812 121.49L764.336 121.312L766.858 121.614L769.841 123.168L772.363 122.609L774.887 120.717L777.869 120.627L780.392 121.931L782.916 128.237L785.897 130.914L788.421 133.531L790.944 149.592L793.926 144.949L796.449 130.586L798.972 125.022L802.184 123.863L805.166 121.512L807.689 122.561L810.213 116.083L813.194 114.122L815.718 110.775L818.24 113.229L821.222 109.053L823.745 108.54L826.269 107.089L829.251 102.079L831.774 101.393L834.298 103.351L837.279 97L839.803 100.918L842.325 103.874L845.308 98.3387L847.831 97.9356L853.591 97.9353" stroke="#5294FF" style="stroke:#5294FF;stroke:color(display-p3 0.3216 0.5804 1.0000);stroke-opacity:1;" stroke-width="10" stroke-linecap="round" stroke-linejoin="round"/>
<path d="M8.02344 238.869H10.3272L13.5388 238.362L16.0614 241.845L18.5852 243.051L21.5675 241.681L24.0902 244.293L26.614 242.838L29.5951 241.432L32.119 240.341L34.6416 239.743L37.6239 239.837L40.1477 239.681L42.6704 241.014L45.6527 240.566L48.1753 239.21L50.6992 239.19L53.6803 240.311L56.2041 239.933L58.7268 238.531L61.709 237.639L64.2329 236.356L66.7555 236.246L69.7378 236.291L72.2605 237.383L74.7843 236.145L77.7666 235.507L80.2892 236.087L82.8131 235.243L85.7942 236.413L88.318 236.013L90.8407 235.346L93.823 235.337L96.3456 234.68L98.8694 234.953L102.081 233.61L105.063 232.77L107.586 231.712L110.11 230.443L113.091 230.328L115.615 229.818L118.137 229.839L121.12 229.682L123.643 229.457L126.166 227.441L129.148 226.773L131.671 225.871L134.195 225.191L137.176 226.027L139.7 227.199L142.222 226.613L145.205 224.237L147.729 224.702L150.251 224.545L153.234 225.217L155.756 224.469L158.28 223.676L161.262 223.768L163.785 222.619L166.309 222.765L169.29 220.351L171.814 220.285L174.336 219.186L177.319 219.473L179.842 218.724L182.365 218.256L185.577 215.95L188.559 213.415L191.082 219.254L193.605 215.42L196.587 214.361L199.11 213.03L201.633 217.903L204.615 218.467L207.139 216.558L209.662 216.358L212.644 213.445L215.167 213.458L217.691 211.319L220.672 210.468L223.196 212.498L225.718 210.125L228.7 209.187L231.224 208.969L233.747 208.395L236.729 207.186L239.252 208.538L241.776 207.814L244.758 206.28L247.281 211.249L249.805 211.689L252.786 213.498L255.309 214.11L257.832 215.812L260.814 215.968L263.338 222.468L266.09 219.217L268.843 217.37L271.366 214.897L273.89 212.424L277.101 211.899L280.082 210.999L282.606 209.346L285.129 208.914L288.111 206.352L291.323 205.177L293.845 203.832L296.369 208.286L299.581 209.571L302.563 207.186L305.085 204.902L307.609 204.118L310.59 202.371L313.114 201.889L315.637 206.969L318.619 204.786L321.142 205.191L323.666 203.852L326.648 203.75L329.171 204.464L331.694 202.471L334.676 200.757L337.199 199.209L339.722 198.304L342.704 198.46L345.228 196.687L347.751 194.491L350.733 192.948L353.256 189.632L355.78 190.45L358.762 185.989L361.285 186.71L363.808 195.526L366.789 212.565L369.313 205.613L371.836 200.896L374.818 193.951H377.341L379.865 189.965L383.076 187.024L386.059 181.708L388.581 180.565L391.105 178.953L394.086 174.296L396.61 175.565L399.133 169.256L402.115 167.153L404.638 159.826L407.161 169.439L410.144 170.312L412.666 167.413L415.19 158.796L418.171 164.787L420.695 158.759L423.218 159.756L426.2 156.622L428.724 155.672L431.247 152.06L434.229 152.252L436.752 151.163L439.275 144.017L442.258 141.886L444.78 142.98L447.304 148.37L450.285 148.186L452.809 149.224L455.332 142.887L458.314 139.44L460.837 139.821L463.36 145.243L466.343 142.164L468.865 140.843L471.389 137.995L474.37 132.923L476.894 129.798L479.417 130.748L482.399 128.261L484.923 126.453L487.446 124.077L490.657 120.763L493.639 127.616L496.162 129.982L498.686 131.284L501.667 122.374L504.191 113.514L506.714 114.02L509.696 113.047L512.22 113.768L514.742 117.326L517.725 111.974L520.247 121.275L522.771 136.252L525.753 131.952L528.276 137.797L530.8 137.805L533.781 147.813L536.305 129.951L538.827 129.198L541.81 138.828L544.332 149.759L546.856 155.126L549.838 158.254L552.361 152.789L554.885 165.804L557.866 158.46L560.39 157.212L562.913 155.942L565.895 148.637L568.419 142.127L570.941 149.14L574.153 158.202L577.135 158.838L579.658 169.098L582.182 171.043L585.163 164.272L587.687 170.21L590.209 159.554L593.192 162.435L595.715 162.724L598.238 167.836L601.449 170.024L604.661 162.649L607.643 158.875L610.166 154.798L612.69 157.249L615.671 154.66L618.195 152.351L620.717 151.385L623.7 146.73L626.223 147.276L628.746 146.076L631.728 142.868L634.251 133.512L636.775 130.723L639.986 125.283L642.968 123.813L645.491 120.006L648.014 120.133L650.996 121.688L653.52 129.085L656.043 121.871L659.025 120.917L661.548 128.956L664.072 130.255L667.054 123.963L669.577 134.427L672.099 122.534L675.081 114.701L677.605 115.049L680.128 111.258L683.339 105.601L686.322 108.088L688.844 101.023L691.368 99.2296L694.351 94.8585L696.873 94.232L699.397 94.5505L702.378 93.6757L705.59 90.4194L708.113 93.331L710.636 99.085L713.618 92.4687L716.141 87.4512L718.665 83.999L721.647 81.7548L724.17 75.0641L726.694 71.7627L729.675 67.7594L732.199 82.2451L734.721 92.4781L737.704 74.2552L740.226 76.4387L742.75 84.1268L745.732 73.1865L748.255 71.3153L750.779 69.772L753.76 67.7835L756.284 59.5903L758.806 64.26L761.789 59.0874L764.313 52.425L766.835 52.3014L769.817 54.6745L772.34 55.9003L774.864 55.8699L777.846 52.6115L780.369 53.9997L782.893 67.3686L785.874 72.9644L788.398 78.7143L790.92 101.903L793.903 94.4269L796.425 69.9921L798.949 58.2566L802.161 55.7882L805.143 51.6309L807.666 53.3271L810.189 44.2172L813.171 40.1699L815.694 35.7087L818.217 38.3867L821.199 30.994L823.722 33.9402L826.246 29.501L829.228 19.6724L831.751 19.2418L834.275 21.5185L837.256 8.29315L839.779 16.3585L842.302 22.2613L845.284 13.0927L847.808 14.6528H853.567" stroke="#1D41FF" style="stroke:#1D41FF;stroke:color(display-p3 0.1137 0.2549 1.0000);stroke-opacity:1;" stroke-width="10" stroke-linecap="round" stroke-linejoin="round"/>
<path d="M853.544 17.3632C855.452 17.3632 857 16.02 857 14.3632C857 12.7063 855.452 11.3632 853.544 11.3632C851.636 11.3632 850.088 12.7063 850.088 14.3632C850.088 16.02 851.636 17.3632 853.544 17.3632Z" fill="#1D41FF" style="fill:#1D41FF;fill:color(display-p3 0.1137 0.2549 1.0000);fill-opacity:1;"/>
<path d="M860 107C865.523 107 870 102.523 870 97C870 91.4772 865.523 87 860 87C854.477 87 850 91.4772 850 97C850 102.523 854.477 107 860 107Z" fill="#5294FF" style="fill:#5294FF;fill:color(display-p3 0.3216 0.5804 1.0000);fill-opacity:1;"/>
<path d="M860 24C865.523 24 870 19.5228 870 14C870 8.47715 865.523 4 860 4C854.477 4 850 8.47715 850 14C850 19.5228 854.477 24 860 24Z" fill="#1D41FF" style="fill:#1D41FF;fill:color(display-p3 0.1137 0.2549 1.0000);fill-opacity:1;"/>
</svg>
