<svg width="1280" height="800" viewBox="0 0 1280 800" fill="none" xmlns="http://www.w3.org/2000/svg">
<rect width="1280" height="800" rx="8" fill="#001933" style="fill:#001933;fill:color(display-p3 0.0000 0.0980 0.2000);fill-opacity:1;"/>
<g clip-path="url(#clip0_1_753)">
<path fill-rule="evenodd" clip-rule="evenodd" d="M611.913 228.557C612.753 228.051 613.846 228.319 614.354 229.155C614.862 229.991 614.593 231.078 613.753 231.584C611.618 232.869 611.056 233.97 611.056 234.654C611.056 234.917 611.137 235.242 611.368 235.623C611.379 235.642 611.39 235.661 611.401 235.68C611.654 236.078 612.072 236.534 612.733 237.037C614.039 238.031 616.043 239.003 618.677 239.851C623.926 241.541 631.288 242.616 639.5 242.616C647.712 242.616 655.074 241.541 660.323 239.851C662.957 239.003 664.961 238.031 666.267 237.037C666.925 236.536 667.34 236.082 667.594 235.686C667.61 235.657 667.628 235.628 667.644 235.599C667.864 235.228 667.944 234.911 667.944 234.654C667.944 233.97 667.382 232.869 665.247 231.584C664.407 231.078 664.138 229.991 664.646 229.155C665.154 228.319 666.247 228.051 667.087 228.557C669.489 230.003 671.5 232.024 671.5 234.654C671.5 235.545 671.263 236.365 670.866 237.114L670.87 237.116C670.86 237.134 670.848 237.15 670.839 237.168C670.768 237.298 670.694 237.426 670.615 237.551C664.32 248.423 652.929 255 639.491 255C625.986 255 614.574 248.38 608.299 237.408C608.257 237.339 608.214 237.27 608.175 237.199C608.171 237.191 608.166 237.182 608.161 237.173C607.746 236.408 607.5 235.567 607.5 234.654C607.5 232.024 609.511 230.003 611.913 228.557ZM617.312 243.125C623.05 248.426 630.747 251.462 639.491 251.462C648.22 251.461 655.919 248.423 661.663 243.132C661.581 243.159 661.501 243.19 661.418 243.217C655.729 245.049 647.979 246.154 639.5 246.154C631.021 246.154 623.271 245.049 617.582 243.217C617.491 243.188 617.402 243.155 617.312 243.125Z" fill="#DDEEFF" style="fill:#DDEEFF;fill:color(display-p3 0.8667 0.9333 1.0000);fill-opacity:1;"/>
<path d="M630.075 209C632.41 209.015 633.726 210.801 634.601 211.671C635.073 212.134 635.359 212.866 635.09 213.465C634.799 214.114 634.122 214.298 633.566 214.298C633.128 214.298 631.5 214.308 631.5 214.308C631.5 214.308 633.52 215.249 634.257 216.708C634.257 216.708 636.271 221.233 637.076 222.415C637.882 223.596 637.042 224.903 635.833 224.903C634.273 224.902 632.937 222.954 632.403 222.269C632.403 225.808 632.376 232.236 632.389 233.908C632.396 234.806 631.549 235.546 630.688 235.539C629.826 235.532 629.215 234.854 629.069 234.308C628.896 233.528 628.621 232.475 628.368 231.599C628.153 230.853 627.694 230.355 626.882 230.245C626.07 230.134 625.41 230.687 625.181 231.185C624.783 232.139 623.783 234.743 623.201 236.271C622.931 236.983 622.236 237.28 621.549 237.301C620.861 237.322 619.972 236.637 619.951 235.718C619.931 234.799 619.936 234.492 619.944 228.444C618.896 228.461 618.16 227.749 618.167 226.675C618.175 225.41 618.167 224.039 618.167 223.154C618.167 216.962 621.625 213.082 624.389 211.654C625.586 210.481 627.056 208.981 630.075 209Z" fill="#DDEEFF" style="fill:#DDEEFF;fill:color(display-p3 0.8667 0.9333 1.0000);fill-opacity:1;"/>
<path d="M639.5 228.462C641.464 228.462 643.055 230.046 643.056 232C643.056 233.954 641.464 235.539 639.5 235.539C637.536 235.539 635.944 233.954 635.944 232C635.945 230.046 637.536 228.462 639.5 228.462Z" fill="#DDEEFF" style="fill:#DDEEFF;fill:color(display-p3 0.8667 0.9333 1.0000);fill-opacity:1;"/>
<path d="M648.389 221.385C650.353 221.385 651.944 222.967 651.944 224.918C651.944 226.226 651.229 227.367 650.167 227.978V233.744C650.166 234.72 649.37 235.513 648.389 235.513C647.407 235.513 646.612 234.72 646.611 233.744V227.978C645.549 227.367 644.833 226.226 644.833 224.918C644.833 222.967 646.425 221.385 648.389 221.385Z" fill="#DDEEFF" style="fill:#DDEEFF;fill:color(display-p3 0.8667 0.9333 1.0000);fill-opacity:1;"/>
<path d="M657.278 214.308C659.241 214.308 660.833 215.89 660.833 217.841C660.833 219.149 660.118 220.29 659.056 220.901V233.744C659.055 234.72 658.259 235.513 657.278 235.513C656.296 235.513 655.5 234.72 655.5 233.744V220.901C654.437 220.29 653.722 219.149 653.722 217.841C653.722 215.89 655.314 214.308 657.278 214.308Z" fill="#DDEEFF" style="fill:#DDEEFF;fill:color(display-p3 0.8667 0.9333 1.0000);fill-opacity:1;"/>
</g>
<path d="M563.52 290L558.94 276H562.3L566.28 288.4H564.6L568.76 276H571.76L575.76 288.4H574.14L578.22 276H581.32L576.74 290H573.26L569.72 279.12H570.64L567 290H563.52ZM587.448 290.16C586.221 290.16 585.141 289.92 584.208 289.44C583.288 288.96 582.575 288.307 582.068 287.48C581.561 286.64 581.308 285.687 581.308 284.62C581.308 283.54 581.555 282.587 582.048 281.76C582.555 280.92 583.241 280.267 584.108 279.8C584.975 279.32 585.955 279.08 587.048 279.08C588.101 279.08 589.048 279.307 589.888 279.76C590.741 280.2 591.415 280.84 591.908 281.68C592.401 282.507 592.648 283.5 592.648 284.66C592.648 284.78 592.641 284.92 592.628 285.08C592.615 285.227 592.601 285.367 592.588 285.5H583.848V283.68H590.948L589.748 284.22C589.748 283.66 589.635 283.173 589.408 282.76C589.181 282.347 588.868 282.027 588.468 281.8C588.068 281.56 587.601 281.44 587.068 281.44C586.535 281.44 586.061 281.56 585.648 281.8C585.248 282.027 584.935 282.353 584.708 282.78C584.481 283.193 584.368 283.687 584.368 284.26V284.74C584.368 285.327 584.495 285.847 584.748 286.3C585.015 286.74 585.381 287.08 585.848 287.32C586.328 287.547 586.888 287.66 587.528 287.66C588.101 287.66 588.601 287.573 589.028 287.4C589.468 287.227 589.868 286.967 590.228 286.62L591.888 288.42C591.395 288.98 590.775 289.413 590.028 289.72C589.281 290.013 588.421 290.16 587.448 290.16ZM594.725 290V275.16H597.845V290H594.725ZM605.941 290.16C604.781 290.16 603.747 289.927 602.841 289.46C601.934 288.98 601.221 288.32 600.701 287.48C600.194 286.64 599.941 285.687 599.941 284.62C599.941 283.54 600.194 282.587 600.701 281.76C601.221 280.92 601.934 280.267 602.841 279.8C603.747 279.32 604.781 279.08 605.941 279.08C607.074 279.08 608.061 279.32 608.901 279.8C609.741 280.267 610.361 280.94 610.761 281.82L608.341 283.12C608.061 282.613 607.707 282.24 607.281 282C606.867 281.76 606.414 281.64 605.921 281.64C605.387 281.64 604.907 281.76 604.481 282C604.054 282.24 603.714 282.58 603.461 283.02C603.221 283.46 603.101 283.993 603.101 284.62C603.101 285.247 603.221 285.78 603.461 286.22C603.714 286.66 604.054 287 604.481 287.24C604.907 287.48 605.387 287.6 605.921 287.6C606.414 287.6 606.867 287.487 607.281 287.26C607.707 287.02 608.061 286.64 608.341 286.12L610.761 287.44C610.361 288.307 609.741 288.98 608.901 289.46C608.061 289.927 607.074 290.16 605.941 290.16ZM617.54 290.16C616.394 290.16 615.374 289.92 614.48 289.44C613.6 288.96 612.9 288.307 612.38 287.48C611.874 286.64 611.62 285.687 611.62 284.62C611.62 283.54 611.874 282.587 612.38 281.76C612.9 280.92 613.6 280.267 614.48 279.8C615.374 279.32 616.394 279.08 617.54 279.08C618.674 279.08 619.687 279.32 620.58 279.8C621.474 280.267 622.174 280.913 622.68 281.74C623.187 282.567 623.44 283.527 623.44 284.62C623.44 285.687 623.187 286.64 622.68 287.48C622.174 288.307 621.474 288.96 620.58 289.44C619.687 289.92 618.674 290.16 617.54 290.16ZM617.54 287.6C618.06 287.6 618.527 287.48 618.94 287.24C619.354 287 619.68 286.66 619.92 286.22C620.16 285.767 620.28 285.233 620.28 284.62C620.28 283.993 620.16 283.46 619.92 283.02C619.68 282.58 619.354 282.24 618.94 282C618.527 281.76 618.06 281.64 617.54 281.64C617.02 281.64 616.554 281.76 616.14 282C615.727 282.24 615.394 282.58 615.14 283.02C614.9 283.46 614.78 283.993 614.78 284.62C614.78 285.233 614.9 285.767 615.14 286.22C615.394 286.66 615.727 287 616.14 287.24C616.554 287.48 617.02 287.6 617.54 287.6ZM639.306 279.08C640.159 279.08 640.913 279.253 641.566 279.6C642.233 279.933 642.753 280.453 643.126 281.16C643.513 281.853 643.706 282.747 643.706 283.84V290H640.586V284.32C640.586 283.453 640.406 282.813 640.046 282.4C639.686 281.987 639.179 281.78 638.526 281.78C638.073 281.78 637.666 281.887 637.306 282.1C636.946 282.3 636.666 282.607 636.466 283.02C636.266 283.433 636.166 283.96 636.166 284.6V290H633.046V284.32C633.046 283.453 632.866 282.813 632.506 282.4C632.159 281.987 631.659 281.78 631.006 281.78C630.553 281.78 630.146 281.887 629.786 282.1C629.426 282.3 629.146 282.607 628.946 283.02C628.746 283.433 628.646 283.96 628.646 284.6V290H625.526V279.24H628.506V282.18L627.946 281.32C628.319 280.587 628.846 280.033 629.526 279.66C630.219 279.273 631.006 279.08 631.886 279.08C632.873 279.08 633.733 279.333 634.466 279.84C635.213 280.333 635.706 281.093 635.946 282.12L634.846 281.82C635.206 280.98 635.779 280.313 636.566 279.82C637.366 279.327 638.279 279.08 639.306 279.08ZM651.921 290.16C650.694 290.16 649.614 289.92 648.681 289.44C647.761 288.96 647.047 288.307 646.541 287.48C646.034 286.64 645.781 285.687 645.781 284.62C645.781 283.54 646.027 282.587 646.521 281.76C647.027 280.92 647.714 280.267 648.581 279.8C649.447 279.32 650.427 279.08 651.521 279.08C652.574 279.08 653.521 279.307 654.361 279.76C655.214 280.2 655.887 280.84 656.381 281.68C656.874 282.507 657.121 283.5 657.121 284.66C657.121 284.78 657.114 284.92 657.101 285.08C657.087 285.227 657.074 285.367 657.061 285.5H648.321V283.68H655.421L654.221 284.22C654.221 283.66 654.107 283.173 653.881 282.76C653.654 282.347 653.341 282.027 652.941 281.8C652.541 281.56 652.074 281.44 651.541 281.44C651.007 281.44 650.534 281.56 650.121 281.8C649.721 282.027 649.407 282.353 649.181 282.78C648.954 283.193 648.841 283.687 648.841 284.26V284.74C648.841 285.327 648.967 285.847 649.221 286.3C649.487 286.74 649.854 287.08 650.321 287.32C650.801 287.547 651.361 287.66 652.001 287.66C652.574 287.66 653.074 287.573 653.501 287.4C653.941 287.227 654.341 286.967 654.701 286.62L656.361 288.42C655.867 288.98 655.247 289.413 654.501 289.72C653.754 290.013 652.894 290.16 651.921 290.16ZM671.222 290.16C670.275 290.16 669.462 289.96 668.782 289.56C668.102 289.16 667.582 288.553 667.222 287.74C666.862 286.913 666.682 285.873 666.682 284.62C666.682 283.353 666.869 282.313 667.242 281.5C667.629 280.687 668.162 280.08 668.842 279.68C669.522 279.28 670.315 279.08 671.222 279.08C672.235 279.08 673.142 279.307 673.942 279.76C674.755 280.213 675.395 280.853 675.862 281.68C676.342 282.507 676.582 283.487 676.582 284.62C676.582 285.74 676.342 286.713 675.862 287.54C675.395 288.367 674.755 289.013 673.942 289.48C673.142 289.933 672.235 290.16 671.222 290.16ZM664.862 290V275.16H667.982V281.42L667.782 284.6L667.842 287.8V290H664.862ZM670.682 287.6C671.202 287.6 671.662 287.48 672.062 287.24C672.475 287 672.802 286.66 673.042 286.22C673.295 285.767 673.422 285.233 673.422 284.62C673.422 283.993 673.295 283.46 673.042 283.02C672.802 282.58 672.475 282.24 672.062 282C671.662 281.76 671.202 281.64 670.682 281.64C670.162 281.64 669.695 281.76 669.282 282C668.869 282.24 668.542 282.58 668.302 283.02C668.062 283.46 667.942 283.993 667.942 284.62C667.942 285.233 668.062 285.767 668.302 286.22C668.542 286.66 668.869 287 669.282 287.24C669.695 287.48 670.162 287.6 670.682 287.6ZM685.095 290V287.9L684.895 287.44V283.68C684.895 283.013 684.688 282.493 684.275 282.12C683.875 281.747 683.255 281.56 682.415 281.56C681.841 281.56 681.275 281.653 680.715 281.84C680.168 282.013 679.701 282.253 679.315 282.56L678.195 280.38C678.781 279.967 679.488 279.647 680.315 279.42C681.141 279.193 681.981 279.08 682.835 279.08C684.475 279.08 685.748 279.467 686.655 280.24C687.561 281.013 688.015 282.22 688.015 283.86V290H685.095ZM681.815 290.16C680.975 290.16 680.255 290.02 679.655 289.74C679.055 289.447 678.595 289.053 678.275 288.56C677.955 288.067 677.795 287.513 677.795 286.9C677.795 286.26 677.948 285.7 678.255 285.22C678.575 284.74 679.075 284.367 679.755 284.1C680.435 283.82 681.321 283.68 682.415 283.68H685.275V285.5H682.755C682.021 285.5 681.515 285.62 681.235 285.86C680.968 286.1 680.835 286.4 680.835 286.76C680.835 287.16 680.988 287.48 681.295 287.72C681.615 287.947 682.048 288.06 682.595 288.06C683.115 288.06 683.581 287.94 683.995 287.7C684.408 287.447 684.708 287.08 684.895 286.6L685.375 288.04C685.148 288.733 684.735 289.26 684.135 289.62C683.535 289.98 682.761 290.16 681.815 290.16ZM696.117 290.16C694.957 290.16 693.923 289.927 693.017 289.46C692.11 288.98 691.397 288.32 690.877 287.48C690.37 286.64 690.117 285.687 690.117 284.62C690.117 283.54 690.37 282.587 690.877 281.76C691.397 280.92 692.11 280.267 693.017 279.8C693.923 279.32 694.957 279.08 696.117 279.08C697.25 279.08 698.237 279.32 699.077 279.8C699.917 280.267 700.537 280.94 700.937 281.82L698.517 283.12C698.237 282.613 697.883 282.24 697.457 282C697.043 281.76 696.59 281.64 696.097 281.64C695.563 281.64 695.083 281.76 694.657 282C694.23 282.24 693.89 282.58 693.637 283.02C693.397 283.46 693.277 283.993 693.277 284.62C693.277 285.247 693.397 285.78 693.637 286.22C693.89 286.66 694.23 287 694.657 287.24C695.083 287.48 695.563 287.6 696.097 287.6C696.59 287.6 697.043 287.487 697.457 287.26C697.883 287.02 698.237 286.64 698.517 286.12L700.937 287.44C700.537 288.307 699.917 288.98 699.077 289.46C698.237 289.927 697.25 290.16 696.117 290.16ZM705.254 287.8L705.334 284L710.354 279.24H714.074L709.254 284.14L707.634 285.46L705.254 287.8ZM702.674 290V275.16H705.794V290H702.674ZM710.694 290L707.054 285.48L709.014 283.06L714.474 290H710.694ZM716.098 285.14L715.478 276H719.198L718.578 285.14H716.098ZM717.338 290.16C716.778 290.16 716.318 289.98 715.958 289.62C715.598 289.26 715.418 288.833 715.418 288.34C715.418 287.833 715.598 287.413 715.958 287.08C716.318 286.733 716.778 286.56 717.338 286.56C717.911 286.56 718.371 286.733 718.718 287.08C719.078 287.413 719.258 287.833 719.258 288.34C719.258 288.833 719.078 289.26 718.718 289.62C718.371 289.98 717.911 290.16 717.338 290.16Z" fill="#DDEEFF" style="fill:#DDEEFF;fill:color(display-p3 0.8667 0.9333 1.0000);fill-opacity:1;"/>
<rect x="472" y="312" width="335" height="46" rx="7" fill="#0D223F" style="fill:#0D223F;fill:color(display-p3 0.0510 0.1333 0.2471);fill-opacity:1;"/>
<rect x="472" y="312" width="335" height="46" rx="7" stroke="#DDEEFF" style="stroke:#DDEEFF;stroke:color(display-p3 0.8667 0.9333 1.0000);stroke-opacity:1;" stroke-width="2"/>
<rect width="46" height="4" transform="translate(485 309)" fill="#0D223F" style="fill:#0D223F;fill:color(display-p3 0.0510 0.1333 0.2471);fill-opacity:1;"/>
<path d="M490.248 310.148H494.966V311.912H490.248V310.148ZM490.416 314.18H495.75V316H488.162V306.2H495.568V308.02H490.416V314.18ZM507.047 308.356C507.644 308.356 508.171 308.477 508.629 308.72C509.095 308.953 509.459 309.317 509.721 309.812C509.991 310.297 510.127 310.923 510.127 311.688V316H507.943V312.024C507.943 311.417 507.817 310.969 507.565 310.68C507.313 310.391 506.958 310.246 506.501 310.246C506.183 310.246 505.899 310.321 505.647 310.47C505.395 310.61 505.199 310.825 505.059 311.114C504.919 311.403 504.849 311.772 504.849 312.22V316H502.665V312.024C502.665 311.417 502.539 310.969 502.287 310.68C502.044 310.391 501.694 310.246 501.237 310.246C500.919 310.246 500.635 310.321 500.383 310.47C500.131 310.61 499.935 310.825 499.795 311.114C499.655 311.403 499.585 311.772 499.585 312.22V316H497.401V308.468H499.487V310.526L499.095 309.924C499.356 309.411 499.725 309.023 500.201 308.762C500.686 308.491 501.237 308.356 501.853 308.356C502.543 308.356 503.145 308.533 503.659 308.888C504.181 309.233 504.527 309.765 504.695 310.484L503.925 310.274C504.177 309.686 504.578 309.219 505.129 308.874C505.689 308.529 506.328 308.356 507.047 308.356ZM516.704 316V314.53L516.564 314.208V311.576C516.564 311.109 516.42 310.745 516.13 310.484C515.85 310.223 515.416 310.092 514.828 310.092C514.427 310.092 514.03 310.157 513.638 310.288C513.256 310.409 512.929 310.577 512.658 310.792L511.874 309.266C512.285 308.977 512.78 308.753 513.358 308.594C513.937 308.435 514.525 308.356 515.122 308.356C516.27 308.356 517.162 308.627 517.796 309.168C518.431 309.709 518.748 310.554 518.748 311.702V316H516.704ZM514.408 316.112C513.82 316.112 513.316 316.014 512.896 315.818C512.476 315.613 512.154 315.337 511.93 314.992C511.706 314.647 511.594 314.259 511.594 313.83C511.594 313.382 511.702 312.99 511.916 312.654C512.14 312.318 512.49 312.057 512.966 311.87C513.442 311.674 514.063 311.576 514.828 311.576H516.83V312.85H515.066C514.553 312.85 514.198 312.934 514.002 313.102C513.816 313.27 513.722 313.48 513.722 313.732C513.722 314.012 513.83 314.236 514.044 314.404C514.268 314.563 514.572 314.642 514.954 314.642C515.318 314.642 515.645 314.558 515.934 314.39C516.224 314.213 516.434 313.956 516.564 313.62L516.9 314.628C516.742 315.113 516.452 315.482 516.032 315.734C515.612 315.986 515.071 316.112 514.408 316.112ZM520.725 316V308.468H522.909V316H520.725ZM521.817 307.418C521.415 307.418 521.089 307.301 520.837 307.068C520.585 306.835 520.459 306.545 520.459 306.2C520.459 305.855 520.585 305.565 520.837 305.332C521.089 305.099 521.415 304.982 521.817 304.982C522.218 304.982 522.545 305.094 522.797 305.318C523.049 305.533 523.175 305.813 523.175 306.158C523.175 306.522 523.049 306.825 522.797 307.068C522.554 307.301 522.227 307.418 521.817 307.418ZM524.936 316V305.612H527.12V316H524.936Z" fill="#DDEEFF" style="fill:#DDEEFF;fill:color(display-p3 0.8667 0.9333 1.0000);fill-opacity:1;"/>
<rect x="471.5" y="375.5" width="336" height="47" rx="7.5" fill="#0D223F" style="fill:#0D223F;fill:color(display-p3 0.0510 0.1333 0.2471);fill-opacity:1;"/>
<rect x="471.5" y="375.5" width="336" height="47" rx="7.5" stroke="#4B5E7E" style="stroke:#4B5E7E;stroke:color(display-p3 0.2941 0.3686 0.4941);stroke-opacity:1;"/>
<rect width="76" height="4" transform="translate(485 373)" fill="#0D223F" style="fill:#0D223F;fill:color(display-p3 0.0510 0.1333 0.2471);fill-opacity:1;"/>
<path d="M488.162 380V370.2H492.404C493.281 370.2 494.037 370.345 494.672 370.634C495.307 370.914 495.797 371.32 496.142 371.852C496.487 372.384 496.66 373.019 496.66 373.756C496.66 374.484 496.487 375.114 496.142 375.646C495.797 376.178 495.307 376.589 494.672 376.878C494.037 377.158 493.281 377.298 492.404 377.298H489.422L490.43 376.276V380H488.162ZM490.43 376.528L489.422 375.45H492.278C492.978 375.45 493.501 375.301 493.846 375.002C494.191 374.703 494.364 374.288 494.364 373.756C494.364 373.215 494.191 372.795 493.846 372.496C493.501 372.197 492.978 372.048 492.278 372.048H489.422L490.43 370.97V376.528ZM502.677 380V378.53L502.537 378.208V375.576C502.537 375.109 502.392 374.745 502.103 374.484C501.823 374.223 501.389 374.092 500.801 374.092C500.399 374.092 500.003 374.157 499.611 374.288C499.228 374.409 498.901 374.577 498.631 374.792L497.847 373.266C498.257 372.977 498.752 372.753 499.331 372.594C499.909 372.435 500.497 372.356 501.095 372.356C502.243 372.356 503.134 372.627 503.769 373.168C504.403 373.709 504.721 374.554 504.721 375.702V380H502.677ZM500.381 380.112C499.793 380.112 499.289 380.014 498.869 379.818C498.449 379.613 498.127 379.337 497.903 378.992C497.679 378.647 497.567 378.259 497.567 377.83C497.567 377.382 497.674 376.99 497.889 376.654C498.113 376.318 498.463 376.057 498.939 375.87C499.415 375.674 500.035 375.576 500.801 375.576H502.803V376.85H501.039C500.525 376.85 500.171 376.934 499.975 377.102C499.788 377.27 499.695 377.48 499.695 377.732C499.695 378.012 499.802 378.236 500.017 378.404C500.241 378.563 500.544 378.642 500.927 378.642C501.291 378.642 501.617 378.558 501.907 378.39C502.196 378.213 502.406 377.956 502.537 377.62L502.873 378.628C502.714 379.113 502.425 379.482 502.005 379.734C501.585 379.986 501.043 380.112 500.381 380.112ZM509.231 380.112C508.587 380.112 507.967 380.037 507.369 379.888C506.781 379.729 506.315 379.533 505.969 379.3L506.697 377.732C507.043 377.947 507.449 378.124 507.915 378.264C508.391 378.395 508.858 378.46 509.315 378.46C509.819 378.46 510.174 378.399 510.379 378.278C510.594 378.157 510.701 377.989 510.701 377.774C510.701 377.597 510.617 377.466 510.449 377.382C510.291 377.289 510.076 377.219 509.805 377.172C509.535 377.125 509.236 377.079 508.909 377.032C508.592 376.985 508.27 376.925 507.943 376.85C507.617 376.766 507.318 376.645 507.047 376.486C506.777 376.327 506.557 376.113 506.389 375.842C506.231 375.571 506.151 375.221 506.151 374.792C506.151 374.316 506.287 373.896 506.557 373.532C506.837 373.168 507.239 372.883 507.761 372.678C508.284 372.463 508.909 372.356 509.637 372.356C510.151 372.356 510.673 372.412 511.205 372.524C511.737 372.636 512.181 372.799 512.535 373.014L511.807 374.568C511.443 374.353 511.075 374.209 510.701 374.134C510.337 374.05 509.983 374.008 509.637 374.008C509.152 374.008 508.797 374.073 508.573 374.204C508.349 374.335 508.237 374.503 508.237 374.708C508.237 374.895 508.317 375.035 508.475 375.128C508.643 375.221 508.863 375.296 509.133 375.352C509.404 375.408 509.698 375.459 510.015 375.506C510.342 375.543 510.669 375.604 510.995 375.688C511.322 375.772 511.616 375.893 511.877 376.052C512.148 376.201 512.367 376.411 512.535 376.682C512.703 376.943 512.787 377.289 512.787 377.718C512.787 378.185 512.647 378.6 512.367 378.964C512.087 379.319 511.681 379.599 511.149 379.804C510.627 380.009 509.987 380.112 509.231 380.112ZM516.669 380.112C516.025 380.112 515.404 380.037 514.807 379.888C514.219 379.729 513.752 379.533 513.407 379.3L514.135 377.732C514.48 377.947 514.886 378.124 515.353 378.264C515.829 378.395 516.296 378.46 516.753 378.46C517.257 378.46 517.612 378.399 517.817 378.278C518.032 378.157 518.139 377.989 518.139 377.774C518.139 377.597 518.055 377.466 517.887 377.382C517.728 377.289 517.514 377.219 517.243 377.172C516.972 377.125 516.674 377.079 516.347 377.032C516.03 376.985 515.708 376.925 515.381 376.85C515.054 376.766 514.756 376.645 514.485 376.486C514.214 376.327 513.995 376.113 513.827 375.842C513.668 375.571 513.589 375.221 513.589 374.792C513.589 374.316 513.724 373.896 513.995 373.532C514.275 373.168 514.676 372.883 515.199 372.678C515.722 372.463 516.347 372.356 517.075 372.356C517.588 372.356 518.111 372.412 518.643 372.524C519.175 372.636 519.618 372.799 519.973 373.014L519.245 374.568C518.881 374.353 518.512 374.209 518.139 374.134C517.775 374.05 517.42 374.008 517.075 374.008C516.59 374.008 516.235 374.073 516.011 374.204C515.787 374.335 515.675 374.503 515.675 374.708C515.675 374.895 515.754 375.035 515.913 375.128C516.081 375.221 516.3 375.296 516.571 375.352C516.842 375.408 517.136 375.459 517.453 375.506C517.78 375.543 518.106 375.604 518.433 375.688C518.76 375.772 519.054 375.893 519.315 376.052C519.586 376.201 519.805 376.411 519.973 376.682C520.141 376.943 520.225 377.289 520.225 377.718C520.225 378.185 520.085 378.6 519.805 378.964C519.525 379.319 519.119 379.599 518.587 379.804C518.064 380.009 517.425 380.112 516.669 380.112ZM523.158 380L520.442 372.468H522.5L524.754 378.95H523.774L526.126 372.468H527.974L530.256 378.95H529.276L531.6 372.468H533.532L530.802 380H528.688L526.686 374.442H527.33L525.258 380H523.158ZM537.926 380.112C537.123 380.112 536.409 379.944 535.784 379.608C535.168 379.272 534.678 378.815 534.314 378.236C533.959 377.648 533.782 376.981 533.782 376.234C533.782 375.478 533.959 374.811 534.314 374.232C534.678 373.644 535.168 373.187 535.784 372.86C536.409 372.524 537.123 372.356 537.926 372.356C538.719 372.356 539.429 372.524 540.054 372.86C540.679 373.187 541.169 373.639 541.524 374.218C541.879 374.797 542.056 375.469 542.056 376.234C542.056 376.981 541.879 377.648 541.524 378.236C541.169 378.815 540.679 379.272 540.054 379.608C539.429 379.944 538.719 380.112 537.926 380.112ZM537.926 378.32C538.29 378.32 538.617 378.236 538.906 378.068C539.195 377.9 539.424 377.662 539.592 377.354C539.76 377.037 539.844 376.663 539.844 376.234C539.844 375.795 539.76 375.422 539.592 375.114C539.424 374.806 539.195 374.568 538.906 374.4C538.617 374.232 538.29 374.148 537.926 374.148C537.562 374.148 537.235 374.232 536.946 374.4C536.657 374.568 536.423 374.806 536.246 375.114C536.078 375.422 535.994 375.795 535.994 376.234C535.994 376.663 536.078 377.037 536.246 377.354C536.423 377.662 536.657 377.9 536.946 378.068C537.235 378.236 537.562 378.32 537.926 378.32ZM543.516 380V372.468H545.602V374.596L545.308 373.98C545.532 373.448 545.891 373.047 546.386 372.776C546.88 372.496 547.482 372.356 548.192 372.356V374.372C548.098 374.363 548.014 374.358 547.94 374.358C547.865 374.349 547.786 374.344 547.702 374.344C547.104 374.344 546.619 374.517 546.246 374.862C545.882 375.198 545.7 375.725 545.7 376.444V380H543.516ZM552.67 380.112C551.96 380.112 551.321 379.953 550.752 379.636C550.182 379.309 549.73 378.857 549.394 378.278C549.067 377.699 548.904 377.018 548.904 376.234C548.904 375.441 549.067 374.755 549.394 374.176C549.73 373.597 550.182 373.149 550.752 372.832C551.321 372.515 551.96 372.356 552.67 372.356C553.304 372.356 553.86 372.496 554.336 372.776C554.812 373.056 555.18 373.481 555.442 374.05C555.703 374.619 555.834 375.347 555.834 376.234C555.834 377.111 555.708 377.839 555.456 378.418C555.204 378.987 554.84 379.412 554.364 379.692C553.897 379.972 553.332 380.112 552.67 380.112ZM553.048 378.32C553.402 378.32 553.724 378.236 554.014 378.068C554.303 377.9 554.532 377.662 554.7 377.354C554.877 377.037 554.966 376.663 554.966 376.234C554.966 375.795 554.877 375.422 554.7 375.114C554.532 374.806 554.303 374.568 554.014 374.4C553.724 374.232 553.402 374.148 553.048 374.148C552.684 374.148 552.357 374.232 552.068 374.4C551.778 374.568 551.545 374.806 551.368 375.114C551.2 375.422 551.116 375.795 551.116 376.234C551.116 376.663 551.2 377.037 551.368 377.354C551.545 377.662 551.778 377.9 552.068 378.068C552.357 378.236 552.684 378.32 553.048 378.32ZM555.022 380V378.46L555.064 376.22L554.924 373.994V369.612H557.108V380H555.022Z" fill="#4F6991" style="fill:#4F6991;fill:color(display-p3 0.3098 0.4118 0.5686);fill-opacity:1;"/>
<path d="M679.52 434.61H684.224V436.43H679.52V434.61ZM679.688 440H677.42V430.2H684.826V432.02H679.688V440ZM689.613 440.112C688.811 440.112 688.097 439.944 687.471 439.608C686.855 439.272 686.365 438.815 686.001 438.236C685.647 437.648 685.469 436.981 685.469 436.234C685.469 435.478 685.647 434.811 686.001 434.232C686.365 433.644 686.855 433.187 687.471 432.86C688.097 432.524 688.811 432.356 689.613 432.356C690.407 432.356 691.116 432.524 691.741 432.86C692.367 433.187 692.857 433.639 693.211 434.218C693.566 434.797 693.743 435.469 693.743 436.234C693.743 436.981 693.566 437.648 693.211 438.236C692.857 438.815 692.367 439.272 691.741 439.608C691.116 439.944 690.407 440.112 689.613 440.112ZM689.613 438.32C689.977 438.32 690.304 438.236 690.593 438.068C690.883 437.9 691.111 437.662 691.279 437.354C691.447 437.037 691.531 436.663 691.531 436.234C691.531 435.795 691.447 435.422 691.279 435.114C691.111 434.806 690.883 434.568 690.593 434.4C690.304 434.232 689.977 434.148 689.613 434.148C689.249 434.148 688.923 434.232 688.633 434.4C688.344 434.568 688.111 434.806 687.933 435.114C687.765 435.422 687.681 435.795 687.681 436.234C687.681 436.663 687.765 437.037 687.933 437.354C688.111 437.662 688.344 437.9 688.633 438.068C688.923 438.236 689.249 438.32 689.613 438.32ZM695.203 440V432.468H697.289V434.596L696.995 433.98C697.219 433.448 697.579 433.047 698.073 432.776C698.568 432.496 699.17 432.356 699.879 432.356V434.372C699.786 434.363 699.702 434.358 699.627 434.358C699.553 434.349 699.473 434.344 699.389 434.344C698.792 434.344 698.307 434.517 697.933 434.862C697.569 435.198 697.387 435.725 697.387 436.444V440H695.203ZM704.665 442.828C703.956 442.828 703.27 442.739 702.607 442.562C701.954 442.394 701.408 442.137 700.969 441.792L701.837 440.224C702.155 440.485 702.556 440.691 703.041 440.84C703.536 440.999 704.021 441.078 704.497 441.078C705.272 441.078 705.832 440.905 706.177 440.56C706.532 440.215 706.709 439.701 706.709 439.02V437.886L706.849 435.996L706.821 434.092V432.468H708.893V438.74C708.893 440.14 708.529 441.171 707.801 441.834C707.073 442.497 706.028 442.828 704.665 442.828ZM704.329 439.636C703.629 439.636 702.995 439.487 702.425 439.188C701.865 438.88 701.413 438.455 701.067 437.914C700.731 437.363 700.563 436.724 700.563 435.996C700.563 435.259 700.731 434.619 701.067 434.078C701.413 433.527 701.865 433.103 702.425 432.804C702.995 432.505 703.629 432.356 704.329 432.356C704.964 432.356 705.524 432.487 706.009 432.748C706.495 433 706.873 433.397 707.143 433.938C707.414 434.47 707.549 435.156 707.549 435.996C707.549 436.827 707.414 437.513 707.143 438.054C706.873 438.586 706.495 438.983 706.009 439.244C705.524 439.505 704.964 439.636 704.329 439.636ZM704.763 437.844C705.146 437.844 705.487 437.769 705.785 437.62C706.084 437.461 706.317 437.242 706.485 436.962C706.653 436.682 706.737 436.36 706.737 435.996C706.737 435.623 706.653 435.301 706.485 435.03C706.317 434.75 706.084 434.535 705.785 434.386C705.487 434.227 705.146 434.148 704.763 434.148C704.381 434.148 704.04 434.227 703.741 434.386C703.443 434.535 703.205 434.75 703.027 435.03C702.859 435.301 702.775 435.623 702.775 435.996C702.775 436.36 702.859 436.682 703.027 436.962C703.205 437.242 703.443 437.461 703.741 437.62C704.04 437.769 704.381 437.844 704.763 437.844ZM714.51 440.112C713.707 440.112 712.993 439.944 712.368 439.608C711.752 439.272 711.262 438.815 710.898 438.236C710.543 437.648 710.366 436.981 710.366 436.234C710.366 435.478 710.543 434.811 710.898 434.232C711.262 433.644 711.752 433.187 712.368 432.86C712.993 432.524 713.707 432.356 714.51 432.356C715.303 432.356 716.013 432.524 716.638 432.86C717.263 433.187 717.753 433.639 718.108 434.218C718.463 434.797 718.64 435.469 718.64 436.234C718.64 436.981 718.463 437.648 718.108 438.236C717.753 438.815 717.263 439.272 716.638 439.608C716.013 439.944 715.303 440.112 714.51 440.112ZM714.51 438.32C714.874 438.32 715.201 438.236 715.49 438.068C715.779 437.9 716.008 437.662 716.176 437.354C716.344 437.037 716.428 436.663 716.428 436.234C716.428 435.795 716.344 435.422 716.176 435.114C716.008 434.806 715.779 434.568 715.49 434.4C715.201 434.232 714.874 434.148 714.51 434.148C714.146 434.148 713.819 434.232 713.53 434.4C713.241 434.568 713.007 434.806 712.83 435.114C712.662 435.422 712.578 435.795 712.578 436.234C712.578 436.663 712.662 437.037 712.83 437.354C713.007 437.662 713.241 437.9 713.53 438.068C713.819 438.236 714.146 438.32 714.51 438.32ZM723.18 440.112C722.293 440.112 721.602 439.888 721.108 439.44C720.613 438.983 720.366 438.306 720.366 437.41V430.802H722.55V437.382C722.55 437.699 722.634 437.947 722.802 438.124C722.97 438.292 723.198 438.376 723.488 438.376C723.833 438.376 724.127 438.283 724.37 438.096L724.958 439.636C724.734 439.795 724.463 439.916 724.146 440C723.838 440.075 723.516 440.112 723.18 440.112ZM719.204 434.316V432.636H724.426V434.316H719.204ZM734.601 440.112C733.966 440.112 733.411 439.972 732.935 439.692C732.459 439.412 732.085 438.987 731.815 438.418C731.553 437.839 731.423 437.111 731.423 436.234C731.423 435.347 731.549 434.619 731.801 434.05C732.053 433.481 732.417 433.056 732.893 432.776C733.369 432.496 733.938 432.356 734.601 432.356C735.31 432.356 735.945 432.519 736.505 432.846C737.074 433.163 737.522 433.611 737.849 434.19C738.185 434.769 738.353 435.45 738.353 436.234C738.353 437.027 738.185 437.713 737.849 438.292C737.522 438.871 737.074 439.319 736.505 439.636C735.945 439.953 735.31 440.112 734.601 440.112ZM730.149 442.716V432.468H732.235V434.008L732.193 436.248L732.333 438.474V442.716H730.149ZM734.223 438.32C734.587 438.32 734.909 438.236 735.189 438.068C735.478 437.9 735.707 437.662 735.875 437.354C736.052 437.037 736.141 436.663 736.141 436.234C736.141 435.795 736.052 435.422 735.875 435.114C735.707 434.806 735.478 434.568 735.189 434.4C734.909 434.232 734.587 434.148 734.223 434.148C733.859 434.148 733.532 434.232 733.243 434.4C732.953 434.568 732.725 434.806 732.557 435.114C732.389 435.422 732.305 435.795 732.305 436.234C732.305 436.663 732.389 437.037 732.557 437.354C732.725 437.662 732.953 437.9 733.243 438.068C733.532 438.236 733.859 438.32 734.223 438.32ZM744.312 440V438.53L744.172 438.208V435.576C744.172 435.109 744.027 434.745 743.738 434.484C743.458 434.223 743.024 434.092 742.436 434.092C742.034 434.092 741.638 434.157 741.246 434.288C740.863 434.409 740.536 434.577 740.266 434.792L739.482 433.266C739.892 432.977 740.387 432.753 740.966 432.594C741.544 432.435 742.132 432.356 742.73 432.356C743.878 432.356 744.769 432.627 745.404 433.168C746.038 433.709 746.356 434.554 746.356 435.702V440H744.312ZM742.016 440.112C741.428 440.112 740.924 440.014 740.504 439.818C740.084 439.613 739.762 439.337 739.538 438.992C739.314 438.647 739.202 438.259 739.202 437.83C739.202 437.382 739.309 436.99 739.524 436.654C739.748 436.318 740.098 436.057 740.574 435.87C741.05 435.674 741.67 435.576 742.436 435.576H744.438V436.85H742.674C742.16 436.85 741.806 436.934 741.61 437.102C741.423 437.27 741.33 437.48 741.33 437.732C741.33 438.012 741.437 438.236 741.652 438.404C741.876 438.563 742.179 438.642 742.562 438.642C742.926 438.642 743.252 438.558 743.542 438.39C743.831 438.213 744.041 437.956 744.172 437.62L744.508 438.628C744.349 439.113 744.06 439.482 743.64 439.734C743.22 439.986 742.678 440.112 742.016 440.112ZM750.866 440.112C750.222 440.112 749.602 440.037 749.004 439.888C748.416 439.729 747.95 439.533 747.604 439.3L748.332 437.732C748.678 437.947 749.084 438.124 749.55 438.264C750.026 438.395 750.493 438.46 750.95 438.46C751.454 438.46 751.809 438.399 752.014 438.278C752.229 438.157 752.336 437.989 752.336 437.774C752.336 437.597 752.252 437.466 752.084 437.382C751.926 437.289 751.711 437.219 751.44 437.172C751.17 437.125 750.871 437.079 750.544 437.032C750.227 436.985 749.905 436.925 749.578 436.85C749.252 436.766 748.953 436.645 748.682 436.486C748.412 436.327 748.192 436.113 748.024 435.842C747.866 435.571 747.786 435.221 747.786 434.792C747.786 434.316 747.922 433.896 748.192 433.532C748.472 433.168 748.874 432.883 749.396 432.678C749.919 432.463 750.544 432.356 751.272 432.356C751.786 432.356 752.308 432.412 752.84 432.524C753.372 432.636 753.816 432.799 754.17 433.014L753.442 434.568C753.078 434.353 752.71 434.209 752.336 434.134C751.972 434.05 751.618 434.008 751.272 434.008C750.787 434.008 750.432 434.073 750.208 434.204C749.984 434.335 749.872 434.503 749.872 434.708C749.872 434.895 749.952 435.035 750.11 435.128C750.278 435.221 750.498 435.296 750.768 435.352C751.039 435.408 751.333 435.459 751.65 435.506C751.977 435.543 752.304 435.604 752.63 435.688C752.957 435.772 753.251 435.893 753.512 436.052C753.783 436.201 754.002 436.411 754.17 436.682C754.338 436.943 754.422 437.289 754.422 437.718C754.422 438.185 754.282 438.6 754.002 438.964C753.722 439.319 753.316 439.599 752.784 439.804C752.262 440.009 751.622 440.112 750.866 440.112ZM758.304 440.112C757.66 440.112 757.039 440.037 756.442 439.888C755.854 439.729 755.387 439.533 755.042 439.3L755.77 437.732C756.115 437.947 756.521 438.124 756.988 438.264C757.464 438.395 757.93 438.46 758.388 438.46C758.892 438.46 759.246 438.399 759.452 438.278C759.666 438.157 759.774 437.989 759.774 437.774C759.774 437.597 759.69 437.466 759.522 437.382C759.363 437.289 759.148 437.219 758.878 437.172C758.607 437.125 758.308 437.079 757.982 437.032C757.664 436.985 757.342 436.925 757.016 436.85C756.689 436.766 756.39 436.645 756.12 436.486C755.849 436.327 755.63 436.113 755.462 435.842C755.303 435.571 755.224 435.221 755.224 434.792C755.224 434.316 755.359 433.896 755.63 433.532C755.91 433.168 756.311 432.883 756.834 432.678C757.356 432.463 757.982 432.356 758.71 432.356C759.223 432.356 759.746 432.412 760.278 432.524C760.81 432.636 761.253 432.799 761.608 433.014L760.88 434.568C760.516 434.353 760.147 434.209 759.774 434.134C759.41 434.05 759.055 434.008 758.71 434.008C758.224 434.008 757.87 434.073 757.646 434.204C757.422 434.335 757.31 434.503 757.31 434.708C757.31 434.895 757.389 435.035 757.548 435.128C757.716 435.221 757.935 435.296 758.206 435.352C758.476 435.408 758.77 435.459 759.088 435.506C759.414 435.543 759.741 435.604 760.068 435.688C760.394 435.772 760.688 435.893 760.95 436.052C761.22 436.201 761.44 436.411 761.608 436.682C761.776 436.943 761.86 437.289 761.86 437.718C761.86 438.185 761.72 438.6 761.44 438.964C761.16 439.319 760.754 439.599 760.222 439.804C759.699 440.009 759.06 440.112 758.304 440.112ZM764.793 440L762.077 432.468H764.135L766.389 438.95H765.409L767.761 432.468H769.609L771.891 438.95H770.911L773.235 432.468H775.167L772.437 440H770.323L768.321 434.442H768.965L766.893 440H764.793ZM779.561 440.112C778.758 440.112 778.044 439.944 777.419 439.608C776.803 439.272 776.313 438.815 775.949 438.236C775.594 437.648 775.417 436.981 775.417 436.234C775.417 435.478 775.594 434.811 775.949 434.232C776.313 433.644 776.803 433.187 777.419 432.86C778.044 432.524 778.758 432.356 779.561 432.356C780.354 432.356 781.063 432.524 781.689 432.86C782.314 433.187 782.804 433.639 783.159 434.218C783.513 434.797 783.691 435.469 783.691 436.234C783.691 436.981 783.513 437.648 783.159 438.236C782.804 438.815 782.314 439.272 781.689 439.608C781.063 439.944 780.354 440.112 779.561 440.112ZM779.561 438.32C779.925 438.32 780.251 438.236 780.541 438.068C780.83 437.9 781.059 437.662 781.227 437.354C781.395 437.037 781.479 436.663 781.479 436.234C781.479 435.795 781.395 435.422 781.227 435.114C781.059 434.806 780.83 434.568 780.541 434.4C780.251 434.232 779.925 434.148 779.561 434.148C779.197 434.148 778.87 434.232 778.581 434.4C778.291 434.568 778.058 434.806 777.881 435.114C777.713 435.422 777.629 435.795 777.629 436.234C777.629 436.663 777.713 437.037 777.881 437.354C778.058 437.662 778.291 437.9 778.581 438.068C778.87 438.236 779.197 438.32 779.561 438.32ZM785.151 440V432.468H787.237V434.596L786.943 433.98C787.167 433.448 787.526 433.047 788.021 432.776C788.515 432.496 789.117 432.356 789.827 432.356V434.372C789.733 434.363 789.649 434.358 789.575 434.358C789.5 434.349 789.421 434.344 789.337 434.344C788.739 434.344 788.254 434.517 787.881 434.862C787.517 435.198 787.335 435.725 787.335 436.444V440H785.151ZM794.305 440.112C793.595 440.112 792.956 439.953 792.387 439.636C791.817 439.309 791.365 438.857 791.029 438.278C790.702 437.699 790.539 437.018 790.539 436.234C790.539 435.441 790.702 434.755 791.029 434.176C791.365 433.597 791.817 433.149 792.387 432.832C792.956 432.515 793.595 432.356 794.305 432.356C794.939 432.356 795.495 432.496 795.971 432.776C796.447 433.056 796.815 433.481 797.077 434.05C797.338 434.619 797.469 435.347 797.469 436.234C797.469 437.111 797.343 437.839 797.091 438.418C796.839 438.987 796.475 439.412 795.999 439.692C795.532 439.972 794.967 440.112 794.305 440.112ZM794.683 438.32C795.037 438.32 795.359 438.236 795.649 438.068C795.938 437.9 796.167 437.662 796.335 437.354C796.512 437.037 796.601 436.663 796.601 436.234C796.601 435.795 796.512 435.422 796.335 435.114C796.167 434.806 795.938 434.568 795.649 434.4C795.359 434.232 795.037 434.148 794.683 434.148C794.319 434.148 793.992 434.232 793.703 434.4C793.413 434.568 793.18 434.806 793.003 435.114C792.835 435.422 792.751 435.795 792.751 436.234C792.751 436.663 792.835 437.037 793.003 437.354C793.18 437.662 793.413 437.9 793.703 438.068C793.992 438.236 794.319 438.32 794.683 438.32ZM796.657 440V438.46L796.699 436.22L796.559 433.994V429.612H798.743V440H796.657ZM802.794 436.598C802.794 436.271 802.845 435.982 802.948 435.73C803.06 435.478 803.195 435.254 803.354 435.058C803.522 434.862 803.699 434.68 803.886 434.512C804.073 434.344 804.245 434.185 804.404 434.036C804.572 433.877 804.707 433.714 804.81 433.546C804.922 433.378 804.978 433.191 804.978 432.986C804.978 432.65 804.838 432.379 804.558 432.174C804.287 431.969 803.923 431.866 803.466 431.866C803.027 431.866 802.635 431.959 802.29 432.146C801.945 432.323 801.66 432.575 801.436 432.902L799.742 431.908C800.115 431.339 800.633 430.886 801.296 430.55C801.959 430.205 802.761 430.032 803.704 430.032C804.404 430.032 805.02 430.135 805.552 430.34C806.084 430.536 806.499 430.825 806.798 431.208C807.106 431.591 807.26 432.062 807.26 432.622C807.26 432.986 807.204 433.308 807.092 433.588C806.98 433.868 806.835 434.111 806.658 434.316C806.481 434.521 806.289 434.713 806.084 434.89C805.888 435.067 805.701 435.24 805.524 435.408C805.347 435.576 805.197 435.753 805.076 435.94C804.964 436.127 804.908 436.346 804.908 436.598H802.794ZM803.858 440.112C803.466 440.112 803.144 439.986 802.892 439.734C802.64 439.482 802.514 439.183 802.514 438.838C802.514 438.483 802.64 438.189 802.892 437.956C803.144 437.713 803.466 437.592 803.858 437.592C804.259 437.592 804.581 437.713 804.824 437.956C805.076 438.189 805.202 438.483 805.202 438.838C805.202 439.183 805.076 439.482 804.824 439.734C804.581 439.986 804.259 440.112 803.858 440.112Z" fill="#DDEEFF" style="fill:#DDEEFF;fill:color(display-p3 0.8667 0.9333 1.0000);fill-opacity:1;"/>
<g filter="url(#filter0_i_1_753)">
<rect x="471" y="463" width="40" height="24" rx="12" fill="#4B5E7E" style="fill:#4B5E7E;fill:color(display-p3 0.2941 0.3686 0.4941);fill-opacity:1;"/>
<g filter="url(#filter1_d_1_753)">
<rect x="473" y="465" width="20" height="20" rx="10" fill="white" style="fill:white;fill-opacity:1;"/>
</g>
</g>
<path d="M524.504 481V469.8H529.112C530.104 469.8 530.952 469.96 531.656 470.28C532.371 470.6 532.92 471.059 533.304 471.656C533.688 472.253 533.88 472.963 533.88 473.784C533.88 474.605 533.688 475.315 533.304 475.912C532.92 476.499 532.371 476.952 531.656 477.272C530.952 477.581 530.104 477.736 529.112 477.736H525.656L526.584 476.792V481H524.504ZM531.832 481L529 476.936H531.224L534.072 481H531.832ZM526.584 477.016L525.656 476.024H529.016C529.933 476.024 530.621 475.827 531.08 475.432C531.549 475.037 531.784 474.488 531.784 473.784C531.784 473.069 531.549 472.52 531.08 472.136C530.621 471.752 529.933 471.56 529.016 471.56H525.656L526.584 470.536V477.016ZM540.031 481.112C539.082 481.112 538.25 480.925 537.535 480.552C536.831 480.168 536.282 479.645 535.887 478.984C535.503 478.323 535.311 477.571 535.311 476.728C535.311 475.875 535.498 475.123 535.871 474.472C536.255 473.811 536.778 473.293 537.439 472.92C538.111 472.547 538.874 472.36 539.727 472.36C540.559 472.36 541.3 472.541 541.951 472.904C542.602 473.267 543.114 473.779 543.487 474.44C543.86 475.101 544.047 475.88 544.047 476.776C544.047 476.861 544.042 476.957 544.031 477.064C544.031 477.171 544.026 477.272 544.015 477.368H536.895V476.04H542.959L542.175 476.456C542.186 475.965 542.084 475.533 541.871 475.16C541.658 474.787 541.364 474.493 540.991 474.28C540.628 474.067 540.207 473.96 539.727 473.96C539.236 473.96 538.804 474.067 538.431 474.28C538.068 474.493 537.78 474.792 537.567 475.176C537.364 475.549 537.263 475.992 537.263 476.504V476.824C537.263 477.336 537.38 477.789 537.615 478.184C537.85 478.579 538.18 478.883 538.607 479.096C539.034 479.309 539.524 479.416 540.079 479.416C540.559 479.416 540.991 479.341 541.375 479.192C541.759 479.043 542.1 478.808 542.399 478.488L543.471 479.72C543.087 480.168 542.602 480.515 542.015 480.76C541.439 480.995 540.778 481.112 540.031 481.112ZM556.752 472.36C557.435 472.36 558.038 472.493 558.56 472.76C559.094 473.027 559.51 473.437 559.808 473.992C560.107 474.536 560.256 475.24 560.256 476.104V481H558.256V476.36C558.256 475.603 558.091 475.037 557.76 474.664C557.43 474.291 556.955 474.104 556.336 474.104C555.899 474.104 555.51 474.2 555.168 474.392C554.838 474.584 554.576 474.867 554.384 475.24C554.203 475.613 554.112 476.088 554.112 476.664V481H552.112V476.36C552.112 475.603 551.947 475.037 551.616 474.664C551.286 474.291 550.811 474.104 550.192 474.104C549.755 474.104 549.366 474.2 549.024 474.392C548.694 474.584 548.432 474.867 548.24 475.24C548.059 475.613 547.968 476.088 547.968 476.664V481H545.968V472.456H547.872V474.728L547.536 474.056C547.824 473.501 548.24 473.08 548.784 472.792C549.339 472.504 549.968 472.36 550.672 472.36C551.472 472.36 552.166 472.557 552.752 472.952C553.35 473.347 553.744 473.944 553.936 474.744L553.152 474.472C553.43 473.832 553.888 473.32 554.528 472.936C555.168 472.552 555.91 472.36 556.752 472.36ZM566.844 481.112C565.894 481.112 565.062 480.925 564.348 480.552C563.644 480.168 563.094 479.645 562.7 478.984C562.316 478.323 562.124 477.571 562.124 476.728C562.124 475.875 562.31 475.123 562.684 474.472C563.068 473.811 563.59 473.293 564.252 472.92C564.924 472.547 565.686 472.36 566.54 472.36C567.372 472.36 568.113 472.541 568.764 472.904C569.414 473.267 569.926 473.779 570.3 474.44C570.673 475.101 570.86 475.88 570.86 476.776C570.86 476.861 570.854 476.957 570.844 477.064C570.844 477.171 570.838 477.272 570.828 477.368H563.708V476.04H569.772L568.988 476.456C568.998 475.965 568.897 475.533 568.684 475.16C568.47 474.787 568.177 474.493 567.804 474.28C567.441 474.067 567.02 473.96 566.54 473.96C566.049 473.96 565.617 474.067 565.244 474.28C564.881 474.493 564.593 474.792 564.38 475.176C564.177 475.549 564.076 475.992 564.076 476.504V476.824C564.076 477.336 564.193 477.789 564.428 478.184C564.662 478.579 564.993 478.883 565.42 479.096C565.846 479.309 566.337 479.416 566.892 479.416C567.372 479.416 567.804 479.341 568.188 479.192C568.572 479.043 568.913 478.808 569.212 478.488L570.284 479.72C569.9 480.168 569.414 480.515 568.828 480.76C568.252 480.995 567.59 481.112 566.844 481.112ZM583.565 472.36C584.247 472.36 584.85 472.493 585.373 472.76C585.906 473.027 586.322 473.437 586.621 473.992C586.919 474.536 587.069 475.24 587.069 476.104V481H585.069V476.36C585.069 475.603 584.903 475.037 584.573 474.664C584.242 474.291 583.767 474.104 583.149 474.104C582.711 474.104 582.322 474.2 581.981 474.392C581.65 474.584 581.389 474.867 581.197 475.24C581.015 475.613 580.925 476.088 580.925 476.664V481H578.925V476.36C578.925 475.603 578.759 475.037 578.429 474.664C578.098 474.291 577.623 474.104 577.005 474.104C576.567 474.104 576.178 474.2 575.837 474.392C575.506 474.584 575.245 474.867 575.053 475.24C574.871 475.613 574.781 476.088 574.781 476.664V481H572.781V472.456H574.685V474.728L574.349 474.056C574.637 473.501 575.053 473.08 575.597 472.792C576.151 472.504 576.781 472.36 577.485 472.36C578.285 472.36 578.978 472.557 579.565 472.952C580.162 473.347 580.557 473.944 580.749 474.744L579.965 474.472C580.242 473.832 580.701 473.32 581.341 472.936C581.981 472.552 582.722 472.36 583.565 472.36ZM594.361 481.112C593.635 481.112 592.99 480.952 592.424 480.632C591.859 480.312 591.411 479.832 591.081 479.192C590.761 478.541 590.601 477.72 590.601 476.728C590.601 475.725 590.766 474.904 591.097 474.264C591.438 473.624 591.891 473.149 592.457 472.84C593.033 472.52 593.667 472.36 594.361 472.36C595.203 472.36 595.945 472.541 596.585 472.904C597.235 473.267 597.747 473.773 598.121 474.424C598.505 475.075 598.697 475.843 598.697 476.728C598.697 477.613 598.505 478.381 598.121 479.032C597.747 479.683 597.235 480.195 596.585 480.568C595.945 480.931 595.203 481.112 594.361 481.112ZM589.625 481V469.128H591.625V474.44L591.465 476.712L591.529 478.984V481H589.625ZM594.137 479.4C594.617 479.4 595.043 479.293 595.417 479.08C595.801 478.867 596.105 478.557 596.329 478.152C596.553 477.747 596.665 477.272 596.665 476.728C596.665 476.173 596.553 475.699 596.329 475.304C596.105 474.899 595.801 474.589 595.417 474.376C595.043 474.163 594.617 474.056 594.137 474.056C593.657 474.056 593.225 474.163 592.841 474.376C592.457 474.589 592.153 474.899 591.929 475.304C591.705 475.699 591.593 476.173 591.593 476.728C591.593 477.272 591.705 477.747 591.929 478.152C592.153 478.557 592.457 478.867 592.841 479.08C593.225 479.293 593.657 479.4 594.137 479.4ZM604.609 481.112C603.66 481.112 602.828 480.925 602.113 480.552C601.409 480.168 600.86 479.645 600.465 478.984C600.081 478.323 599.889 477.571 599.889 476.728C599.889 475.875 600.076 475.123 600.449 474.472C600.833 473.811 601.356 473.293 602.017 472.92C602.689 472.547 603.452 472.36 604.305 472.36C605.137 472.36 605.879 472.541 606.529 472.904C607.18 473.267 607.692 473.779 608.065 474.44C608.439 475.101 608.625 475.88 608.625 476.776C608.625 476.861 608.62 476.957 608.609 477.064C608.609 477.171 608.604 477.272 608.593 477.368H601.473V476.04H607.537L606.753 476.456C606.764 475.965 606.663 475.533 606.449 475.16C606.236 474.787 605.943 474.493 605.569 474.28C605.207 474.067 604.785 473.96 604.305 473.96C603.815 473.96 603.383 474.067 603.009 474.28C602.647 474.493 602.359 474.792 602.145 475.176C601.943 475.549 601.841 475.992 601.841 476.504V476.824C601.841 477.336 601.959 477.789 602.193 478.184C602.428 478.579 602.759 478.883 603.185 479.096C603.612 479.309 604.103 479.416 604.657 479.416C605.137 479.416 605.569 479.341 605.953 479.192C606.337 479.043 606.679 478.808 606.977 478.488L608.049 479.72C607.665 480.168 607.18 480.515 606.593 480.76C606.017 480.995 605.356 481.112 604.609 481.112ZM610.546 481V472.456H612.45V474.808L612.226 474.12C612.482 473.544 612.882 473.107 613.426 472.808C613.981 472.509 614.669 472.36 615.49 472.36V474.264C615.405 474.243 615.325 474.232 615.25 474.232C615.176 474.221 615.101 474.216 615.026 474.216C614.269 474.216 613.666 474.44 613.218 474.888C612.77 475.325 612.546 475.981 612.546 476.856V481H610.546ZM632.471 472.36C633.154 472.36 633.756 472.493 634.279 472.76C634.812 473.027 635.228 473.437 635.527 473.992C635.826 474.536 635.975 475.24 635.975 476.104V481H633.975V476.36C633.975 475.603 633.81 475.037 633.479 474.664C633.148 474.291 632.674 474.104 632.055 474.104C631.618 474.104 631.228 474.2 630.887 474.392C630.556 474.584 630.295 474.867 630.103 475.24C629.922 475.613 629.831 476.088 629.831 476.664V481H627.831V476.36C627.831 475.603 627.666 475.037 627.335 474.664C627.004 474.291 626.53 474.104 625.911 474.104C625.474 474.104 625.084 474.2 624.743 474.392C624.412 474.584 624.151 474.867 623.959 475.24C623.778 475.613 623.687 476.088 623.687 476.664V481H621.687V472.456H623.591V474.728L623.255 474.056C623.543 473.501 623.959 473.08 624.503 472.792C625.058 472.504 625.687 472.36 626.391 472.36C627.191 472.36 627.884 472.557 628.471 472.952C629.068 473.347 629.463 473.944 629.655 474.744L628.871 474.472C629.148 473.832 629.607 473.32 630.247 472.936C630.887 472.552 631.628 472.36 632.471 472.36ZM642.562 481.112C641.613 481.112 640.781 480.925 640.066 480.552C639.362 480.168 638.813 479.645 638.418 478.984C638.034 478.323 637.842 477.571 637.842 476.728C637.842 475.875 638.029 475.123 638.402 474.472C638.786 473.811 639.309 473.293 639.97 472.92C640.642 472.547 641.405 472.36 642.258 472.36C643.09 472.36 643.832 472.541 644.482 472.904C645.133 473.267 645.645 473.779 646.018 474.44C646.392 475.101 646.578 475.88 646.578 476.776C646.578 476.861 646.573 476.957 646.562 477.064C646.562 477.171 646.557 477.272 646.546 477.368H639.426V476.04H645.49L644.706 476.456C644.717 475.965 644.616 475.533 644.402 475.16C644.189 474.787 643.896 474.493 643.522 474.28C643.16 474.067 642.738 473.96 642.258 473.96C641.768 473.96 641.336 474.067 640.962 474.28C640.6 474.493 640.312 474.792 640.098 475.176C639.896 475.549 639.794 475.992 639.794 476.504V476.824C639.794 477.336 639.912 477.789 640.146 478.184C640.381 478.579 640.712 478.883 641.138 479.096C641.565 479.309 642.056 479.416 642.61 479.416C643.09 479.416 643.522 479.341 643.906 479.192C644.29 479.043 644.632 478.808 644.93 478.488L646.002 479.72C645.618 480.168 645.133 480.515 644.546 480.76C643.97 480.995 643.309 481.112 642.562 481.112Z" fill="#4F6991" style="fill:#4F6991;fill:color(display-p3 0.3098 0.4118 0.5686);fill-opacity:1;"/>
<g filter="url(#filter2_dd_1_753)">
<rect x="471" y="503" width="337" height="48" rx="8" fill="#0000FF" style="fill:#0000FF;fill:color(display-p3 0.0000 0.0000 1.0000);fill-opacity:1;" shape-rendering="crispEdges"/>
<path d="M617.234 532V520.8H619.826V529.888H625.442V532H617.234ZM630.779 532.128C629.862 532.128 629.046 531.936 628.331 531.552C627.627 531.168 627.067 530.645 626.651 529.984C626.246 529.312 626.043 528.549 626.043 527.696C626.043 526.832 626.246 526.069 626.651 525.408C627.067 524.736 627.627 524.213 628.331 523.84C629.046 523.456 629.862 523.264 630.779 523.264C631.686 523.264 632.497 523.456 633.211 523.84C633.926 524.213 634.486 524.731 634.891 525.392C635.297 526.053 635.499 526.821 635.499 527.696C635.499 528.549 635.297 529.312 634.891 529.984C634.486 530.645 633.926 531.168 633.211 531.552C632.497 531.936 631.686 532.128 630.779 532.128ZM630.779 530.08C631.195 530.08 631.569 529.984 631.899 529.792C632.23 529.6 632.491 529.328 632.683 528.976C632.875 528.613 632.971 528.187 632.971 527.696C632.971 527.195 632.875 526.768 632.683 526.416C632.491 526.064 632.23 525.792 631.899 525.6C631.569 525.408 631.195 525.312 630.779 525.312C630.363 525.312 629.99 525.408 629.659 525.6C629.329 525.792 629.062 526.064 628.859 526.416C628.667 526.768 628.571 527.195 628.571 527.696C628.571 528.187 628.667 528.613 628.859 528.976C629.062 529.328 629.329 529.6 629.659 529.792C629.99 529.984 630.363 530.08 630.779 530.08ZM641.216 535.232C640.405 535.232 639.621 535.131 638.864 534.928C638.117 534.736 637.493 534.443 636.992 534.048L637.984 532.256C638.346 532.555 638.805 532.789 639.36 532.96C639.925 533.141 640.48 533.232 641.024 533.232C641.909 533.232 642.549 533.035 642.944 532.64C643.349 532.245 643.552 531.659 643.552 530.88V529.584L643.712 527.424L643.68 525.248V523.392H646.048V530.56C646.048 532.16 645.632 533.339 644.8 534.096C643.968 534.853 642.773 535.232 641.216 535.232ZM640.832 531.584C640.032 531.584 639.306 531.413 638.656 531.072C638.016 530.72 637.498 530.235 637.104 529.616C636.72 528.987 636.528 528.256 636.528 527.424C636.528 526.581 636.72 525.851 637.104 525.232C637.498 524.603 638.016 524.117 638.656 523.776C639.306 523.435 640.032 523.264 640.832 523.264C641.557 523.264 642.197 523.413 642.752 523.712C643.306 524 643.738 524.453 644.048 525.072C644.357 525.68 644.512 526.464 644.512 527.424C644.512 528.373 644.357 529.157 644.048 529.776C643.738 530.384 643.306 530.837 642.752 531.136C642.197 531.435 641.557 531.584 640.832 531.584ZM641.328 529.536C641.765 529.536 642.154 529.451 642.496 529.28C642.837 529.099 643.104 528.848 643.296 528.528C643.488 528.208 643.584 527.84 643.584 527.424C643.584 526.997 643.488 526.629 643.296 526.32C643.104 526 642.837 525.755 642.496 525.584C642.154 525.403 641.765 525.312 641.328 525.312C640.89 525.312 640.501 525.403 640.16 525.584C639.818 525.755 639.546 526 639.344 526.32C639.152 526.629 639.056 526.997 639.056 527.424C639.056 527.84 639.152 528.208 639.344 528.528C639.546 528.848 639.818 529.099 640.16 529.28C640.501 529.451 640.89 529.536 641.328 529.536ZM648.371 532V523.392H650.867V532H648.371ZM649.619 522.192C649.16 522.192 648.787 522.059 648.499 521.792C648.211 521.525 648.067 521.195 648.067 520.8C648.067 520.405 648.211 520.075 648.499 519.808C648.787 519.541 649.16 519.408 649.619 519.408C650.077 519.408 650.451 519.536 650.739 519.792C651.027 520.037 651.171 520.357 651.171 520.752C651.171 521.168 651.027 521.515 650.739 521.792C650.461 522.059 650.088 522.192 649.619 522.192ZM658.415 523.264C659.098 523.264 659.706 523.403 660.239 523.68C660.783 523.947 661.21 524.363 661.519 524.928C661.829 525.483 661.983 526.197 661.983 527.072V532H659.487V527.456C659.487 526.763 659.333 526.251 659.023 525.92C658.725 525.589 658.298 525.424 657.743 525.424C657.349 525.424 656.991 525.509 656.671 525.68C656.362 525.84 656.117 526.091 655.935 526.432C655.765 526.773 655.679 527.211 655.679 527.744V532H653.183V523.392H655.567V525.776L655.119 525.056C655.429 524.48 655.871 524.037 656.447 523.728C657.023 523.419 657.679 523.264 658.415 523.264Z" fill="white" style="fill:white;fill-opacity:1;"/>
</g>
<path d="M538.476 585.16C537.601 585.16 536.764 585.037 535.964 584.792C535.164 584.536 534.529 584.211 534.06 583.816L534.78 582.2C535.228 582.552 535.783 582.845 536.444 583.08C537.105 583.315 537.783 583.432 538.476 583.432C539.063 583.432 539.537 583.368 539.9 583.24C540.263 583.112 540.529 582.941 540.7 582.728C540.871 582.504 540.956 582.253 540.956 581.976C540.956 581.635 540.833 581.363 540.588 581.16C540.343 580.947 540.023 580.781 539.628 580.664C539.244 580.536 538.812 580.419 538.332 580.312C537.863 580.205 537.388 580.083 536.908 579.944C536.439 579.795 536.007 579.608 535.612 579.384C535.228 579.149 534.913 578.84 534.668 578.456C534.423 578.072 534.3 577.581 534.3 576.984C534.3 576.376 534.46 575.821 534.78 575.32C535.111 574.808 535.607 574.403 536.268 574.104C536.94 573.795 537.788 573.64 538.812 573.64C539.484 573.64 540.151 573.725 540.812 573.896C541.473 574.067 542.049 574.312 542.54 574.632L541.884 576.248C541.383 575.949 540.865 575.731 540.332 575.592C539.799 575.443 539.287 575.368 538.796 575.368C538.22 575.368 537.751 575.437 537.388 575.576C537.036 575.715 536.775 575.896 536.604 576.12C536.444 576.344 536.364 576.6 536.364 576.888C536.364 577.229 536.481 577.507 536.716 577.72C536.961 577.923 537.276 578.083 537.66 578.2C538.055 578.317 538.492 578.435 538.972 578.552C539.452 578.659 539.927 578.781 540.396 578.92C540.876 579.059 541.308 579.24 541.692 579.464C542.087 579.688 542.401 579.992 542.636 580.376C542.881 580.76 543.004 581.245 543.004 581.832C543.004 582.429 542.839 582.984 542.508 583.496C542.188 583.997 541.692 584.403 541.02 584.712C540.348 585.011 539.5 585.16 538.476 585.16ZM544.875 585V576.456H546.875V585H544.875ZM545.883 575.048C545.509 575.048 545.2 574.931 544.955 574.696C544.72 574.461 544.603 574.179 544.603 573.848C544.603 573.507 544.72 573.224 544.955 573C545.2 572.765 545.509 572.648 545.883 572.648C546.256 572.648 546.56 572.76 546.795 572.984C547.04 573.197 547.163 573.469 547.163 573.8C547.163 574.152 547.045 574.451 546.811 574.696C546.576 574.931 546.267 575.048 545.883 575.048ZM553.372 588.216C552.582 588.216 551.809 588.109 551.052 587.896C550.305 587.693 549.692 587.395 549.212 587L550.108 585.496C550.481 585.805 550.95 586.051 551.516 586.232C552.092 586.424 552.673 586.52 553.26 586.52C554.198 586.52 554.886 586.301 555.324 585.864C555.761 585.437 555.98 584.792 555.98 583.928V582.408L556.14 580.472L556.076 578.536V576.456H557.98V583.704C557.98 585.251 557.585 586.387 556.796 587.112C556.006 587.848 554.865 588.216 553.372 588.216ZM553.116 584.616C552.305 584.616 551.569 584.445 550.908 584.104C550.257 583.752 549.74 583.267 549.356 582.648C548.982 582.029 548.796 581.304 548.796 580.472C548.796 579.651 548.982 578.931 549.356 578.312C549.74 577.693 550.257 577.213 550.908 576.872C551.569 576.531 552.305 576.36 553.116 576.36C553.841 576.36 554.492 576.504 555.068 576.792C555.644 577.08 556.102 577.528 556.444 578.136C556.796 578.744 556.972 579.523 556.972 580.472C556.972 581.421 556.796 582.205 556.444 582.824C556.102 583.432 555.644 583.885 555.068 584.184C554.492 584.472 553.841 584.616 553.116 584.616ZM553.42 582.92C553.921 582.92 554.369 582.819 554.764 582.616C555.158 582.403 555.462 582.115 555.676 581.752C555.9 581.379 556.012 580.952 556.012 580.472C556.012 579.992 555.9 579.571 555.676 579.208C555.462 578.835 555.158 578.552 554.764 578.36C554.369 578.157 553.921 578.056 553.42 578.056C552.918 578.056 552.465 578.157 552.06 578.36C551.665 578.552 551.356 578.835 551.132 579.208C550.918 579.571 550.812 579.992 550.812 580.472C550.812 580.952 550.918 581.379 551.132 581.752C551.356 582.115 551.665 582.403 552.06 582.616C552.465 582.819 552.918 582.92 553.42 582.92ZM565.457 576.36C566.14 576.36 566.748 576.493 567.281 576.76C567.825 577.027 568.252 577.437 568.561 577.992C568.87 578.536 569.025 579.24 569.025 580.104V585H567.025V580.36C567.025 579.603 566.844 579.037 566.481 578.664C566.129 578.291 565.633 578.104 564.993 578.104C564.524 578.104 564.108 578.2 563.745 578.392C563.382 578.584 563.1 578.872 562.897 579.256C562.705 579.629 562.609 580.104 562.609 580.68V585H560.609V576.456H562.513V578.76L562.177 578.056C562.476 577.512 562.908 577.096 563.473 576.808C564.049 576.509 564.71 576.36 565.457 576.36ZM579.6 585.112C578.875 585.112 578.235 584.979 577.68 584.712C577.125 584.435 576.693 584.019 576.384 583.464C576.075 582.899 575.92 582.189 575.92 581.336V576.456H577.92V581.064C577.92 581.832 578.091 582.408 578.432 582.792C578.784 583.165 579.28 583.352 579.92 583.352C580.389 583.352 580.795 583.256 581.136 583.064C581.488 582.872 581.76 582.584 581.952 582.2C582.155 581.816 582.256 581.341 582.256 580.776V576.456H584.256V585H582.352V582.696L582.688 583.4C582.4 583.955 581.979 584.381 581.424 584.68C580.869 584.968 580.261 585.112 579.6 585.112ZM591.611 585.112C590.917 585.112 590.283 584.952 589.707 584.632C589.141 584.312 588.688 583.832 588.347 583.192C588.016 582.541 587.851 581.72 587.851 580.728C587.851 579.725 588.011 578.904 588.331 578.264C588.661 577.624 589.109 577.149 589.674 576.84C590.24 576.52 590.885 576.36 591.611 576.36C592.453 576.36 593.195 576.541 593.835 576.904C594.485 577.267 594.997 577.773 595.371 578.424C595.755 579.075 595.947 579.843 595.947 580.728C595.947 581.613 595.755 582.387 595.371 583.048C594.997 583.699 594.485 584.205 593.835 584.568C593.195 584.931 592.453 585.112 591.611 585.112ZM586.875 588.104V576.456H588.779V578.472L588.715 580.744L588.875 583.016V588.104H586.875ZM591.387 583.4C591.867 583.4 592.293 583.293 592.667 583.08C593.051 582.867 593.355 582.557 593.579 582.152C593.803 581.747 593.915 581.272 593.915 580.728C593.915 580.173 593.803 579.699 593.579 579.304C593.355 578.899 593.051 578.589 592.667 578.376C592.293 578.163 591.867 578.056 591.387 578.056C590.907 578.056 590.475 578.163 590.091 578.376C589.707 578.589 589.403 578.899 589.179 579.304C588.955 579.699 588.843 580.173 588.843 580.728C588.843 581.272 588.955 581.747 589.179 582.152C589.403 582.557 589.707 582.867 590.091 583.08C590.475 583.293 590.907 583.4 591.387 583.4ZM603.625 582.296C603.326 582.296 603.044 582.221 602.777 582.072C602.51 581.923 602.297 581.72 602.137 581.464C601.988 581.197 601.913 580.893 601.913 580.552C601.913 580.221 601.988 579.928 602.137 579.672C602.297 579.405 602.51 579.197 602.777 579.048C603.044 578.899 603.326 578.824 603.625 578.824C603.945 578.824 604.233 578.899 604.489 579.048C604.756 579.197 604.964 579.405 605.113 579.672C605.273 579.928 605.353 580.221 605.353 580.552C605.353 580.893 605.273 581.197 605.113 581.464C604.964 581.72 604.756 581.923 604.489 582.072C604.233 582.221 603.945 582.296 603.625 582.296ZM612.238 585V573.8H616.846C617.838 573.8 618.686 573.96 619.39 574.28C620.105 574.6 620.654 575.059 621.038 575.656C621.422 576.253 621.614 576.963 621.614 577.784C621.614 578.605 621.422 579.315 621.038 579.912C620.654 580.499 620.105 580.952 619.39 581.272C618.686 581.581 617.838 581.736 616.846 581.736H613.39L614.318 580.792V585H612.238ZM619.566 585L616.734 580.936H618.958L621.806 585H619.566ZM614.318 581.016L613.39 580.024H616.75C617.668 580.024 618.356 579.827 618.814 579.432C619.284 579.037 619.518 578.488 619.518 577.784C619.518 577.069 619.284 576.52 618.814 576.136C618.356 575.752 617.668 575.56 616.75 575.56H613.39L614.318 574.536V581.016ZM627.766 585.112C626.816 585.112 625.984 584.925 625.27 584.552C624.566 584.168 624.016 583.645 623.622 582.984C623.238 582.323 623.046 581.571 623.046 580.728C623.046 579.875 623.232 579.123 623.606 578.472C623.99 577.811 624.512 577.293 625.174 576.92C625.846 576.547 626.608 576.36 627.462 576.36C628.294 576.36 629.035 576.541 629.686 576.904C630.336 577.267 630.848 577.779 631.222 578.44C631.595 579.101 631.782 579.88 631.782 580.776C631.782 580.861 631.776 580.957 631.766 581.064C631.766 581.171 631.76 581.272 631.75 581.368H624.63V580.04H630.694L629.91 580.456C629.92 579.965 629.819 579.533 629.606 579.16C629.392 578.787 629.099 578.493 628.726 578.28C628.363 578.067 627.942 577.96 627.462 577.96C626.971 577.96 626.539 578.067 626.166 578.28C625.803 578.493 625.515 578.792 625.302 579.176C625.099 579.549 624.998 579.992 624.998 580.504V580.824C624.998 581.336 625.115 581.789 625.35 582.184C625.584 582.579 625.915 582.883 626.342 583.096C626.768 583.309 627.259 583.416 627.814 583.416C628.294 583.416 628.726 583.341 629.11 583.192C629.494 583.043 629.835 582.808 630.134 582.488L631.206 583.72C630.822 584.168 630.336 584.515 629.75 584.76C629.174 584.995 628.512 585.112 627.766 585.112ZM636.343 585.112C635.628 585.112 634.94 585.021 634.279 584.84C633.628 584.648 633.111 584.419 632.727 584.152L633.495 582.632C633.879 582.877 634.337 583.08 634.871 583.24C635.404 583.4 635.937 583.48 636.471 583.48C637.1 583.48 637.553 583.395 637.831 583.224C638.119 583.053 638.263 582.824 638.263 582.536C638.263 582.301 638.167 582.125 637.975 582.008C637.783 581.88 637.532 581.784 637.223 581.72C636.913 581.656 636.567 581.597 636.183 581.544C635.809 581.491 635.431 581.421 635.047 581.336C634.673 581.24 634.332 581.107 634.023 580.936C633.713 580.755 633.463 580.515 633.271 580.216C633.079 579.917 632.983 579.523 632.983 579.032C632.983 578.488 633.137 578.019 633.447 577.624C633.756 577.219 634.188 576.909 634.743 576.696C635.308 576.472 635.975 576.36 636.743 576.36C637.319 576.36 637.9 576.424 638.487 576.552C639.073 576.68 639.559 576.861 639.943 577.096L639.175 578.616C638.769 578.371 638.359 578.205 637.943 578.12C637.537 578.024 637.132 577.976 636.727 577.976C636.119 577.976 635.665 578.067 635.367 578.248C635.079 578.429 634.935 578.659 634.935 578.936C634.935 579.192 635.031 579.384 635.223 579.512C635.415 579.64 635.665 579.741 635.975 579.816C636.284 579.891 636.625 579.955 636.999 580.008C637.383 580.051 637.761 580.12 638.135 580.216C638.508 580.312 638.849 580.445 639.159 580.616C639.479 580.776 639.735 581.005 639.927 581.304C640.119 581.603 640.215 581.992 640.215 582.472C640.215 583.005 640.055 583.469 639.735 583.864C639.425 584.259 638.983 584.568 638.407 584.792C637.831 585.005 637.143 585.112 636.343 585.112ZM645.953 585.112C645.004 585.112 644.172 584.925 643.457 584.552C642.753 584.168 642.204 583.645 641.809 582.984C641.425 582.323 641.233 581.571 641.233 580.728C641.233 579.875 641.42 579.123 641.793 578.472C642.177 577.811 642.7 577.293 643.361 576.92C644.033 576.547 644.796 576.36 645.649 576.36C646.481 576.36 647.222 576.541 647.873 576.904C648.524 577.267 649.036 577.779 649.409 578.44C649.782 579.101 649.969 579.88 649.969 580.776C649.969 580.861 649.964 580.957 649.953 581.064C649.953 581.171 649.948 581.272 649.937 581.368H642.817V580.04H648.881L648.097 580.456C648.108 579.965 648.006 579.533 647.793 579.16C647.58 578.787 647.286 578.493 646.913 578.28C646.55 578.067 646.129 577.96 645.649 577.96C645.158 577.96 644.726 578.067 644.353 578.28C643.99 578.493 643.702 578.792 643.489 579.176C643.286 579.549 643.185 579.992 643.185 580.504V580.824C643.185 581.336 643.302 581.789 643.537 582.184C643.772 582.579 644.102 582.883 644.529 583.096C644.956 583.309 645.446 583.416 646.001 583.416C646.481 583.416 646.913 583.341 647.297 583.192C647.681 583.043 648.022 582.808 648.321 582.488L649.393 583.72C649.009 584.168 648.524 584.515 647.937 584.76C647.361 584.995 646.7 585.112 645.953 585.112ZM656.738 576.36C657.421 576.36 658.029 576.493 658.562 576.76C659.106 577.027 659.533 577.437 659.842 577.992C660.151 578.536 660.306 579.24 660.306 580.104V585H658.306V580.36C658.306 579.603 658.125 579.037 657.762 578.664C657.41 578.291 656.914 578.104 656.274 578.104C655.805 578.104 655.389 578.2 655.026 578.392C654.663 578.584 654.381 578.872 654.178 579.256C653.986 579.629 653.89 580.104 653.89 580.68V585H651.89V576.456H653.794V578.76L653.458 578.056C653.757 577.512 654.189 577.096 654.754 576.808C655.33 576.509 655.991 576.36 656.738 576.36ZM666.475 585.112C665.654 585.112 664.912 584.931 664.251 584.568C663.6 584.195 663.088 583.683 662.715 583.032C662.342 582.381 662.155 581.613 662.155 580.728C662.155 579.843 662.342 579.075 662.715 578.424C663.088 577.773 663.6 577.267 664.251 576.904C664.912 576.541 665.654 576.36 666.475 576.36C667.19 576.36 667.83 576.52 668.395 576.84C668.96 577.149 669.408 577.624 669.739 578.264C670.07 578.904 670.235 579.725 670.235 580.728C670.235 581.72 670.075 582.541 669.755 583.192C669.435 583.832 668.992 584.312 668.427 584.632C667.862 584.952 667.211 585.112 666.475 585.112ZM666.715 583.4C667.195 583.4 667.622 583.293 667.995 583.08C668.379 582.867 668.683 582.557 668.907 582.152C669.142 581.747 669.259 581.272 669.259 580.728C669.259 580.173 669.142 579.699 668.907 579.304C668.683 578.899 668.379 578.589 667.995 578.376C667.622 578.163 667.195 578.056 666.715 578.056C666.235 578.056 665.803 578.163 665.419 578.376C665.046 578.589 664.742 578.899 664.507 579.304C664.283 579.699 664.171 580.173 664.171 580.728C664.171 581.272 664.283 581.747 664.507 582.152C664.742 582.557 665.046 582.867 665.419 583.08C665.803 583.293 666.235 583.4 666.715 583.4ZM669.307 585V582.984L669.387 580.712L669.227 578.44V573.128H671.211V585H669.307ZM678.265 585V573.128H680.265V585H678.265ZM682.89 585V576.456H684.89V585H682.89ZM683.898 575.048C683.525 575.048 683.215 574.931 682.97 574.696C682.735 574.461 682.618 574.179 682.618 573.848C682.618 573.507 682.735 573.224 682.97 573C683.215 572.765 683.525 572.648 683.898 572.648C684.271 572.648 684.575 572.76 684.81 572.984C685.055 573.197 685.178 573.469 685.178 573.8C685.178 574.152 685.061 574.451 684.826 574.696C684.591 574.931 684.282 575.048 683.898 575.048ZM692.363 576.36C693.046 576.36 693.654 576.493 694.187 576.76C694.731 577.027 695.158 577.437 695.467 577.992C695.776 578.536 695.931 579.24 695.931 580.104V585H693.931V580.36C693.931 579.603 693.75 579.037 693.387 578.664C693.035 578.291 692.539 578.104 691.899 578.104C691.43 578.104 691.014 578.2 690.651 578.392C690.288 578.584 690.006 578.872 689.803 579.256C689.611 579.629 689.515 580.104 689.515 580.68V585H687.515V576.456H689.419V578.76L689.083 578.056C689.382 577.512 689.814 577.096 690.379 576.808C690.955 576.509 691.616 576.36 692.363 576.36ZM700.1 583.096L700.148 580.584L704.612 576.456H707.012L703.22 580.264L702.164 581.144L700.1 583.096ZM698.468 585V573.128H700.468V585H698.468ZM704.916 585L701.796 581.144L703.06 579.544L707.348 585H704.916ZM714.422 582.296C714.123 582.296 713.841 582.221 713.574 582.072C713.307 581.923 713.094 581.72 712.934 581.464C712.785 581.197 712.71 580.893 712.71 580.552C712.71 580.221 712.785 579.928 712.934 579.672C713.094 579.405 713.307 579.197 713.574 579.048C713.841 578.899 714.123 578.824 714.422 578.824C714.742 578.824 715.03 578.899 715.286 579.048C715.553 579.197 715.761 579.405 715.91 579.672C716.07 579.928 716.15 580.221 716.15 580.552C716.15 580.893 716.07 581.197 715.91 581.464C715.761 581.72 715.553 581.923 715.286 582.072C715.03 582.221 714.742 582.296 714.422 582.296ZM724.955 578.456H730.523V580.168H724.955V578.456ZM725.115 583.256H731.435V585H723.035V573.8H731.211V575.544H725.115V583.256ZM733.754 585V573.8H735.466L742.49 582.424H741.642V573.8H743.706V585H741.994L734.97 576.376H735.818V585H733.754Z" fill="#DDEEFF" style="fill:#DDEEFF;fill:color(display-p3 0.8667 0.9333 1.0000);fill-opacity:1;"/>
<circle cx="16" cy="16" r="5.9" fill="#EC6B5F" stroke="#B4B4B4" style="fill:#EC6B5F;fill:color(display-p3 0.9255 0.4196 0.3725);fill-opacity:1;stroke:#B4B4B4;stroke:color(display-p3 0.7059 0.7059 0.7059);stroke-opacity:1;" stroke-width="0.2"/>
<circle cx="33" cy="16" r="5.9" fill="#F5BF4E" stroke="#B4B4B4" style="fill:#F5BF4E;fill:color(display-p3 0.9608 0.7490 0.3059);fill-opacity:1;stroke:#B4B4B4;stroke:color(display-p3 0.7059 0.7059 0.7059);stroke-opacity:1;" stroke-width="0.2"/>
<circle cx="50" cy="16" r="5.9" fill="#61C554" stroke="#B4B4B4" style="fill:#61C554;fill:color(display-p3 0.3804 0.7725 0.3294);fill-opacity:1;stroke:#B4B4B4;stroke:color(display-p3 0.7059 0.7059 0.7059);stroke-opacity:1;" stroke-width="0.2"/>
<defs>
<filter id="filter0_i_1_753" x="471" y="463" width="41" height="25" filterUnits="userSpaceOnUse" color-interpolation-filters="sRGB">
<feFlood flood-opacity="0" result="BackgroundImageFix"/>
<feBlend mode="normal" in="SourceGraphic" in2="BackgroundImageFix" result="shape"/>
<feColorMatrix in="SourceAlpha" type="matrix" values="0 0 0 0 0 0 0 0 0 0 0 0 0 0 0 0 0 0 127 0" result="hardAlpha"/>
<feOffset dx="1" dy="1"/>
<feGaussianBlur stdDeviation="0.5"/>
<feComposite in2="hardAlpha" operator="arithmetic" k2="-1" k3="1"/>
<feColorMatrix type="matrix" values="0 0 0 0 0 0 0 0 0 0 0 0 0 0 0 0 0 0 0.1 0"/>
<feBlend mode="normal" in2="shape" result="effect1_innerShadow_1_753"/>
</filter>
<filter id="filter1_d_1_753" x="473" y="465" width="22" height="22" filterUnits="userSpaceOnUse" color-interpolation-filters="sRGB">
<feFlood flood-opacity="0" result="BackgroundImageFix"/>
<feColorMatrix in="SourceAlpha" type="matrix" values="0 0 0 0 0 0 0 0 0 0 0 0 0 0 0 0 0 0 127 0" result="hardAlpha"/>
<feOffset dx="1" dy="1"/>
<feGaussianBlur stdDeviation="0.5"/>
<feComposite in2="hardAlpha" operator="out"/>
<feColorMatrix type="matrix" values="0 0 0 0 0 0 0 0 0 0 0 0 0 0 0 0 0 0 0.1 0"/>
<feBlend mode="normal" in2="BackgroundImageFix" result="effect1_dropShadow_1_753"/>
<feBlend mode="normal" in="SourceGraphic" in2="effect1_dropShadow_1_753" result="shape"/>
</filter>
<filter id="filter2_dd_1_753" x="465" y="497" width="353" height="64" filterUnits="userSpaceOnUse" color-interpolation-filters="sRGB">
<feFlood flood-opacity="0" result="BackgroundImageFix"/>
<feColorMatrix in="SourceAlpha" type="matrix" values="0 0 0 0 0 0 0 0 0 0 0 0 0 0 0 0 0 0 127 0" result="hardAlpha"/>
<feOffset dx="2" dy="2"/>
<feGaussianBlur stdDeviation="4"/>
<feComposite in2="hardAlpha" operator="out"/>
<feColorMatrix type="matrix" values="0 0 0 0 0 0 0 0 0 0 0 0 0 0 0 0 0 0 0.05 0"/>
<feBlend mode="normal" in2="BackgroundImageFix" result="effect1_dropShadow_1_753"/>
<feColorMatrix in="SourceAlpha" type="matrix" values="0 0 0 0 0 0 0 0 0 0 0 0 0 0 0 0 0 0 127 0" result="hardAlpha"/>
<feOffset dx="1" dy="1"/>
<feGaussianBlur stdDeviation="1"/>
<feComposite in2="hardAlpha" operator="out"/>
<feColorMatrix type="matrix" values="0 0 0 0 0 0 0 0 0 0 0 0 0 0 0 0 0 0 0.07 0"/>
<feBlend mode="normal" in2="effect1_dropShadow_1_753" result="effect2_dropShadow_1_753"/>
<feBlend mode="normal" in="SourceGraphic" in2="effect2_dropShadow_1_753" result="shape"/>
</filter>
<clipPath id="clip0_1_753">
<rect width="64" height="46" fill="white" style="fill:white;fill-opacity:1;" transform="translate(607.5 209)"/>
</clipPath>
</defs>
</svg>
